<svg xmlns="http://www.w3.org/2000/svg" xmlns:xlink="http://www.w3.org/1999/xlink" width="147.544" height="56.432" viewBox="0 0 147.544 56.432">
  <defs>
    <linearGradient id="linear-gradient" x1="0.49" y1="0.495" x2="2.776" y2="0.563" gradientUnits="objectBoundingBox">
      <stop offset="0" stop-color="#781122"/>
      <stop offset="0.022" stop-color="#811122"/>
      <stop offset="0.105" stop-color="#a01122"/>
      <stop offset="0.192" stop-color="#b81122"/>
      <stop offset="0.284" stop-color="#c91122"/>
      <stop offset="0.384" stop-color="#d31122"/>
      <stop offset="0.505" stop-color="#d71122"/>
      <stop offset="0.663" stop-color="#b41122"/>
      <stop offset="0.886" stop-color="#812"/>
      <stop offset="1" stop-color="#781122"/>
    </linearGradient>
    <linearGradient id="linear-gradient-2" x1="-2.229" y1="0.478" x2="6.437" y2="0.547" xlink:href="#linear-gradient"/>
    <linearGradient id="linear-gradient-3" x1="-0.987" y1="0.46" x2="1.474" y2="0.526" xlink:href="#linear-gradient"/>
    <linearGradient id="linear-gradient-4" x1="-1.587" y1="0.438" x2="0.319" y2="0.507" xlink:href="#linear-gradient"/>
  </defs>
  <g id="Group_17" data-name="Group 17" transform="translate(-837.493 -792.562)">
    <path id="Path_37" data-name="Path 37" d="M853.874,793.973a15.851,15.851,0,0,0-3.743-.413H838.659a1.166,1.166,0,0,0-1.166,1.166v28.6a1.165,1.165,0,0,0,1.166,1.162h4.473a1.164,1.164,0,0,0,1.166-1.162v-6.949a1.166,1.166,0,0,1,1.166-1.166h4a16.837,16.837,0,0,0,4.885-.685,11.485,11.485,0,0,0,3.974-2.055,9.583,9.583,0,0,0,2.672-3.4,10.1,10.1,0,0,0,.921-3.516Zm1.2,10.5a4.433,4.433,0,0,1-1.411,3.339,5.537,5.537,0,0,1-3.978,1.347h-4.223a1.165,1.165,0,0,1-1.166-1.166v-7.127a1.164,1.164,0,0,1,1.166-1.161h4.092A6.257,6.257,0,0,1,853.6,800.9a4.2,4.2,0,0,1,1.479,3.489Z" transform="translate(0 -0.553)" fill="#fff"/>
    <g id="Group_16" data-name="Group 16" transform="translate(860.78 792.562)">
      <path id="Path_38" data-name="Path 38" d="M910.16,812.912a10.429,10.429,0,0,0,3.588-2.94,9.708,9.708,0,0,0,1.833-6.12v-.086a9.473,9.473,0,0,0-3.071-7.512q-3.069-2.694-8.592-2.695H890.944a1.165,1.165,0,0,0-1.166,1.166v2.953l6.809,9.812a.428.428,0,0,1,0-.077v-6.55a1.164,1.164,0,0,1,1.166-1.161h5.593a6.258,6.258,0,0,1,3.933,1.1,3.943,3.943,0,0,1,1.411,3.316v.086a4.036,4.036,0,0,1-1.347,3.18,5.633,5.633,0,0,1-3.865,1.193h-5.725a1.133,1.133,0,0,1-.481-.1l4.523,5.954s.309.42.486.678l5.933,8.86a1.16,1.16,0,0,0,.966.517H914.3a1.161,1.161,0,0,0,.957-1.819l-5.516-8.066A1.163,1.163,0,0,1,910.16,812.912Z" transform="translate(-889.778 -793.115)" fill="url(#linear-gradient)"/>
      <path id="Path_39" data-name="Path 39" d="M957.913,793.56h-4.478a1.164,1.164,0,0,0-1.161,1.166v28.6a1.163,1.163,0,0,0,1.161,1.162h4.478a1.165,1.165,0,0,0,1.166-1.162v-28.6A1.166,1.166,0,0,0,957.913,793.56Z" transform="translate(-924.439 -793.115)" fill="url(#linear-gradient-2)"/>
      <path id="Path_40" data-name="Path 40" d="M994.7,811.207a7.124,7.124,0,0,0-1.9-2.541,11.8,11.8,0,0,0-3.1-1.855,32.038,32.038,0,0,0-4.187-1.388q-1.994-.531-3.3-.93a9.615,9.615,0,0,1-2.06-.84,2.607,2.607,0,0,1-1.044-.993,2.8,2.8,0,0,1-.286-1.3v-.091a2.352,2.352,0,0,1,.993-1.923,4.824,4.824,0,0,1,2.981-.771,10.408,10.408,0,0,1,3.978.816,21.193,21.193,0,0,1,3.135,1.629,1.164,1.164,0,0,0,1.57-.326l2.255-3.271a1.162,1.162,0,0,0-.29-1.615,18.045,18.045,0,0,0-4.3-2.227,18.54,18.54,0,0,0-6.251-1.016,13.625,13.625,0,0,0-4.369.667,10,10,0,0,0-3.407,1.9,8.689,8.689,0,0,0-2.218,2.94,8.973,8.973,0,0,0-.789,3.82v.091a8.994,8.994,0,0,0,.73,3.842,7.093,7.093,0,0,0,2.059,2.586,12,12,0,0,0,3.234,1.746,38.241,38.241,0,0,0,4.255,1.28q1.946.49,3.166.93a10.069,10.069,0,0,1,1.905.88,2.46,2.46,0,0,1,.93.952,2.671,2.671,0,0,1,.245,1.17v.086a2.437,2.437,0,0,1-1.17,2.146,5.972,5.972,0,0,1-3.293.771,11.581,11.581,0,0,1-4.881-1.016,19.429,19.429,0,0,1-3.489-2.068,1.165,1.165,0,0,0-1.583.191l-2.559,3.067a1.168,1.168,0,0,0,.164,1.66,18.2,18.2,0,0,0,5.28,2.962,20.534,20.534,0,0,0,6.936,1.216,15.489,15.489,0,0,0,4.587-.64,10.516,10.516,0,0,0,3.561-1.86,8.3,8.3,0,0,0,2.327-3,9.534,9.534,0,0,0,.835-4.087V814.7A8.594,8.594,0,0,0,994.7,811.207Z" transform="translate(-935.035 -792.562)" fill="url(#linear-gradient-3)"/>
      <path id="Path_41" data-name="Path 41" d="M1050.116,796.826l-5.112,8.22a1.167,1.167,0,0,1-1.978,0l-6.8-10.937a1.165,1.165,0,0,0-.989-.549h-5.521a1.165,1.165,0,0,0-1.166,1.166v28.6a1.164,1.164,0,0,0,1.166,1.162h4.387a1.164,1.164,0,0,0,1.166-1.162V808.312a1.164,1.164,0,0,1,2.137-.64l6.478,9.835h.177l6.564-9.967a1.164,1.164,0,0,1,2.136.64v15.142a1.165,1.165,0,0,0,1.166,1.162h4.387a1.164,1.164,0,0,0,1.166-1.162V810.295Z" transform="translate(-966.742 -793.115)" fill="url(#linear-gradient-4)"/>
    </g>
    <path id="Path_42" data-name="Path 42" d="M1132.488,822.837l-12.262-28.82a1.166,1.166,0,0,0-1.07-.708h-4.736a1.166,1.166,0,0,0-1.07.708l-7.013,16.485,4.867,7.018h11.25a1.166,1.166,0,0,1,1.08.726l2.237,5.489a1.162,1.162,0,0,0,1.08.721h4.568A1.164,1.164,0,0,0,1132.488,822.837Zm-13.419-11.323h-4.745a1.164,1.164,0,0,1-1.075-1.606l2.372-5.793a1.163,1.163,0,0,1,2.155,0l2.373,5.793A1.165,1.165,0,0,1,1119.069,811.515Z" transform="translate(-149.102 -0.415)" fill="#fff"/>
    <text id="AD" transform="translate(955.037 845.994)" fill="#b91122" font-size="20" font-family="Gotham-Light, Gotham" font-weight="300" letter-spacing="-0.1em"><tspan x="0" y="0">AD</tspan></text>
  </g>
</svg>
