<svg xmlns="http://www.w3.org/2000/svg" xmlns:xlink="http://www.w3.org/1999/xlink" width="880.862" height="665.63" viewBox="0 0 880.862 665.63">
  <defs>
    <linearGradient id="linear-gradient" x1="0.5" y1="1" x2="0.5" gradientUnits="objectBoundingBox">
      <stop offset="0" stop-color="gray" stop-opacity="0.251"/>
      <stop offset="0.54" stop-color="gray" stop-opacity="0.122"/>
      <stop offset="1" stop-color="gray" stop-opacity="0.102"/>
    </linearGradient>
    <linearGradient id="linear-gradient-2" x1="0.5" x2="0.5" y2="0" xlink:href="#linear-gradient"/>
    <linearGradient id="linear-gradient-3" x1="0.5" x2="0.5" y2="0" xlink:href="#linear-gradient"/>
    <linearGradient id="linear-gradient-4" x1="1.096" x2="1.096" y2="0" xlink:href="#linear-gradient"/>
    <linearGradient id="linear-gradient-5" x1="0.5" x2="0.5" y2="0" xlink:href="#linear-gradient"/>
  </defs>
  <g id="undraw_team_spirit_hrr4" transform="translate(0.013 -0.004)">
    <path id="Path_205" data-name="Path 205" d="M43.44,426.65c13.937,54.314,43.443,101.265,90.077,124.02,96.952,47.3,315.469,22.9,478.581-5.094,84.393-14.486,158.521-54.43,212.4-110.718Z" transform="translate(-33.935 -111.908)" fill="#eb3f43" opacity="0.1"/>
    <path id="Path_206" data-name="Path 206" d="M905.381,79.232h-89.5c-4.258,0-7.743-3.174-7.743-7.053s3.476-7.053,7.743-7.053H831.37c-4.258,0-7.742-3.174-7.742-7.053s3.476-7.046,7.742-7.046H820.321c-4.258,0-7.742-3.174-7.742-7.053s3.476-7.053,7.742-7.053h46.711A132.339,132.339,0,0,0,830.6,27.767c-127.372-14.92-172.852-5.056-188.918,5.095a187.454,187.454,0,0,1-65.463,26.162c-78.587,14.78-225.555,32.565-358.765-5.7C151.243,34.317,102.039,66.488,72.54,120.151H920.92c-1.107-15.609-4.421-30.026-10.507-42.638A8.115,8.115,0,0,1,905.381,79.232Z" transform="translate(-40.504 -20.14)" fill="#eb3f43" opacity="0.1"/>
    <path id="Path_207" data-name="Path 207" d="M33.069,280.23a328.237,328.237,0,0,0,3.476,94.761l785.774,26.2a335.373,335.373,0,0,0,54.593-75.877Zm310.762,67.6H328.346c4.251,0,7.743,3.174,7.743,7.053s-3.484,7.046-7.743,7.046H238.889c-4.251,0-7.743-3.167-7.743-7.046s3.484-7.053,7.743-7.053h15.485c-4.251,0-7.743-3.174-7.743-7.053s3.484-7.053,7.743-7.053H243.31c-4.251,0-7.743-3.167-7.743-7.046s3.484-7.053,7.743-7.053h89.5c4.258,0,7.743,3.174,7.743,7.053s-3.476,7.046-7.743,7.046h11.025c4.258,0,7.743,3.174,7.743,7.053S348.113,347.83,343.831,347.83Z" transform="translate(-31.16 -78.854)" fill="#eb3f43" opacity="0.1"/>
    <path id="Path_208" data-name="Path 208" d="M912.209,149.94,54.336,168.963c-10.452,24.459-17.366,52.107-20.556,80.77H897.173a308.914,308.914,0,0,0,12.465-51.48C912.209,181.406,913.238,165.115,912.209,149.94ZM207.964,212.275H192.479c4.251,0,7.743,3.174,7.743,7.053s-3.484,7.053-7.743,7.053H102.99c-4.251,0-7.743-3.174-7.743-7.053s3.484-7.053,7.743-7.053h15.485c-4.251,0-7.743-3.167-7.743-7.046s3.484-7.053,7.743-7.053H107.411c-4.251,0-7.743-3.174-7.743-7.053s3.484-7.053,7.743-7.053h89.5c4.258,0,7.743,3.174,7.743,7.053s-3.476,7.053-7.743,7.053h11.056c4.251,0,7.743,3.174,7.743,7.053S212.214,212.275,207.964,212.275Z" transform="translate(-31.754 -49.441)" fill="#eb3f43" opacity="0.1"/>
    <ellipse id="Ellipse_35" data-name="Ellipse 35" cx="58.247" cy="13.077" rx="58.247" ry="13.077" transform="translate(456.117 567.567)" fill="#eb3f43" opacity="0.1"/>
    <ellipse id="Ellipse_36" data-name="Ellipse 36" cx="105.082" cy="8.625" rx="105.082" ry="8.625" transform="translate(544.63 613.55)" fill="#eb3f43" opacity="0.1"/>
    <ellipse id="Ellipse_37" data-name="Ellipse 37" cx="105.082" cy="13.077" rx="105.082" ry="13.077" transform="translate(122.716 596.021)" fill="#eb3f43" opacity="0.1"/>
    <ellipse id="Ellipse_38" data-name="Ellipse 38" cx="79.067" cy="13.077" rx="79.067" ry="13.077" transform="translate(308.947 530.558)" fill="#eb3f43" opacity="0.1"/>
    <ellipse id="Ellipse_39" data-name="Ellipse 39" cx="63.295" cy="13.077" rx="63.295" ry="13.077" transform="translate(346.793 639.479)" fill="#eb3f43" opacity="0.1"/>
    <path id="Path_209" data-name="Path 209" d="M564.133,279.575c-1.672-11.258-11.9-37.528-11.9-37.528h0q-.267-1.161-.6-2.323c-7.255-24.931-17.3-27.1-17.3-27.1l-35.972-7.743a2.787,2.787,0,0,1,.774.72,4.992,4.992,0,0,0-.565.085,14.091,14.091,0,0,1-3.151-6.813c-.07-.372-.132-.774-.178-1.154a25.3,25.3,0,0,0-2.06-38.039c-.379-.294-.774-.581-1.154-.852,1.7-1.8,1.75-4.313.48-6.821-2.834-5.884-9-9.608-15.33-11.428-4.839-1.386-10.065-1.835-14.881-.317a53.759,53.759,0,0,0-7.789,3.616c-4.777,2.385-10.065,4.274-13.635,8.2a4,4,0,0,0-1.363,3.291,8.88,8.88,0,0,0,1.355,2.392c1.03,1.789.774,4.042.07,5.993a58.064,58.064,0,0,0-2.222,5.76c-.488,2-.3,4.351,1.2,5.784a25.477,25.477,0,0,0,2.245,1.549,11.777,11.777,0,0,1,2.145,2.408q2.137,2.865,4.258,5.753a59.258,59.258,0,0,1,5.335,8.106,39.508,39.508,0,0,0,3.3,6.194,9.183,9.183,0,0,0,1.417,1.487l-.418-.163a6.45,6.45,0,0,0,4.731,1.928h.217a1.3,1.3,0,0,0,.867-.356c0,.263,0,.526,0,.774.085,2.764.07,5.706-.124,8.47l-.333-.17a2.9,2.9,0,0,0-3.1.325l-33.115,26.572s-7.2,9.848-6.194,26.851l-5.807,25.5s-7.255,21.633-1.672,37.079,8.819,24.281,8.819,24.281,2.23,17.552,5.582,18.985,4.8,2.207,4.8,2.207l.666,4.2h0s.225.41.619,1.1c2.439,4.243,11.474,19.217,16.724,17.614a67.128,67.128,0,0,1,.852,12.3l5.2,34.88s3.624,9.485,3.4,14.455,4.227,12.055,4.227,12.055a23.034,23.034,0,0,0-2.23,16.221c2.121,9.291,4.8,52.092,4.8,52.092l3.871,10.375-.108,12.164a11.613,11.613,0,0,1-2.4,5.42c-2.509,2.725-2.323,5.877-8.37,9.6s-9.879,5.133-9.879,10.065a12.943,12.943,0,0,1-.186,2.052c-.557,3.623-1.641,5.59,9.477,6.643a29.314,29.314,0,0,0,21.772-7.278s1.92-3.484,10.963-4.893c0,0,3.1-.163,3.26-2.9.062-.945.046-2.749,0-4.738-.147-3.786-.511-8.207-.991-8.424-.6-.271-1.657-4.08-2.021-5.458h2.516s2.323-17.552,0-28.918-.225-19.426-.225-19.426l-.449-30.018s-3.1-3.314-.666-9.167,0-34.764,0-34.764.9-10.375,3.461-12.806.124-15.2,0-15.864l4.568,15.322s2.005,30.459,6.256,35.972l1.223,13.8s8.7,12.7,7.03,19.534,1.789,31.566,1.789,31.566v25.279s-3.91,10.15,1.548,13.8l2.323-.093c-.774.72-1.37,1.8-2.276,2.741-1.045,1.076-1.641,5.172-1.974,8.695-.279,2.981-.372,5.544-.372,5.544a9.128,9.128,0,0,0,6.7,3.972c4.375.256,18.791,11.219,18.791,11.219s14.239,0,17.924-.774l.217-.054a4.839,4.839,0,0,0,2.78-2.269,5.807,5.807,0,0,0,.666-4.173c-.457-2.176-2.183-4.56-6.008-6.589-9.516-5.017-10.932-9.717-10.932-9.717l-6.248-9.376h.89s-.55-9.934,6.248-21.083l-.441-49.111s2.787-16.886-2.005-26.054c0,0-.395-9.709,2.81-12.69s-4.266-33.107-4.266-33.107-1.549-16.174-3.368-30.931h0c7.533,7.146,15.346-18.582,16.662-23.158h.194l-.085-.333c.054-.217.085-.325.085-.325h0s-1.672-5.946-.449-4.738,4.243-3.314,4.243-3.314-.449-24.614,4.8-37.017S564.133,279.575,564.133,279.575Zm-22.453,15.663.039-.07c.774,15.028-.147,47.1-.147,47.1s-1.038,4.111-2.145,8.95l-.774-30.467h0l-.774-28.7Zm-96.092-10.36s3.794,47.454,0,54.3c-1.076,1.951-1.982,5.42-2.733,9.376-1.254-3.291-3.91-11.018-2.958-15.113,1.231-5.3-2.454-19.209-2.454-19.534s-.333-7.743,2.323-13.41.914-8.122.914-8.122S442.908,283.082,445.587,284.878Z" transform="translate(-117.036 -47.042)" fill="url(#linear-gradient)"/>
    <path id="Path_210" data-name="Path 210" d="M461.6,458.484c-3.306,14.533-16.453-7.441-19.449-12.713-.387-.689-.6-1.092-.6-1.092L442.975,438l7.534-3.1a21.047,21.047,0,0,1,3.376,2.2C458.011,440.343,464.15,447.226,461.6,458.484Z" transform="translate(-123.807 -113.77)" fill="#d38884"/>
    <path id="Path_211" data-name="Path 211" d="M592.863,433.564a1.015,1.015,0,0,1-.085.325,1.647,1.647,0,0,1-.1.348c-1.293,4.537-8.958,30.08-16.36,22.988-8.1-7.742-4.165-25.643-4.165-25.643h.054l17.034-1.742,3.376,3.469h0Z" transform="translate(-153.075 -112.628)" fill="#d38884"/>
    <path id="Path_212" data-name="Path 212" d="M556.071,559.838l.434,48.778c-6.682,11.072-6.132,20.9-6.132,20.9l-22.02.867C522.98,626.772,526.8,616.7,526.8,616.7V591.582s-3.4-24.536-1.758-31.334-6.9-19.356-6.9-19.356l-1.208-13.7c-4.166-5.474-6.14-35.709-6.14-35.709l-4.467-15.268c.124.658,2.447,13.4,0,15.748s-3.4,12.705-3.4,12.705,2.408,28.709,0,34.508.65,9.1.65,9.1l.441,29.8s-2.083,8,.217,19.279,0,28.709,0,28.709H480.62l.108-12.164-3.825-10.3s-2.632-42.507-4.715-51.712a23.1,23.1,0,0,1,2.183-16.1s-4.375-7.007-4.158-11.939-3.376-14.339-3.376-14.339l-5.095-34.617a67.252,67.252,0,0,0-2.524-19.72c-2.958-9.864-7.34-22.794-7.34-22.794l4.948.441,24.962,2.222s60.694-4.08,63.411-.689a11.391,11.391,0,0,1,1.146,3.538c2.725,12.241,6.326,50.59,6.326,50.59s7.34,29.909,4.189,32.867-2.764,12.589-2.764,12.589C558.82,543.036,556.071,559.838,556.071,559.838Z" transform="translate(-126.139 -113.201)" fill="#444053"/>
    <path id="Path_213" data-name="Path 213" d="M507.079,699.665c-.17,2.718-3.2,2.88-3.2,2.88-8.873,1.394-10.762,4.847-10.762,4.847a28.5,28.5,0,0,1-21.362,7.232c-10.917-1.053-9.856-3-9.291-6.6a13.647,13.647,0,0,0,.178-2.029c0-4.932,3.778-6.333,9.694-10.065s5.753-6.821,8.215-9.531,2.718-7.967,2.718-7.967c2.787-4.855,9.856.774,9.856.774.333,1.719,10.84,1.479,10.84,1.479s1.394,5.59,2.114,5.915c.472.217.828,4.6.968,8.362C507.125,696.939,507.14,698.728,507.079,699.665Z" transform="translate(-128.456 -168.302)" fill="#b07473"/>
    <path id="Path_214" data-name="Path 214" d="M507.079,705.064c-.17,2.718-3.2,2.88-3.2,2.88-8.873,1.394-10.762,4.847-10.762,4.847a28.5,28.5,0,0,1-21.362,7.232c-10.917-1.053-9.856-3-9.291-6.6,4.878,1.208,14.2,2.9,19.643-.062,7.564-4.1,12.992-6.968,12.992-6.968l11.954-6.016C507.125,702.339,507.14,704.127,507.079,705.064Z" transform="translate(-128.456 -173.701)" opacity="0.1"/>
    <path id="Path_215" data-name="Path 215" d="M593.283,715.2a4.723,4.723,0,0,1-2.725,2.253l-.209.054c-3.616.774-17.591.774-17.591.774s-14.13-10.925-18.4-11.172a8.988,8.988,0,0,1-6.573-3.949s.085-2.54.356-5.5c.333-3.5.914-7.564,1.943-8.633,1.889-1.974,2.323-4.645,6.573-2.958,0,0,6.07-10.7,13.224-2.431l7.4,11.227s1.394,4.646,10.77,9.686c3.747,2.013,5.42,4.382,5.892,6.542A5.768,5.768,0,0,1,593.283,715.2Z" transform="translate(-147.788 -169.216)" fill="#b07473"/>
    <path id="Path_216" data-name="Path 216" d="M593.283,720.207c-.836.7-1.758,1.463-2.725,2.253l-.209.054c-3.616.774-17.591.774-17.591.774s-14.13-10.925-18.4-11.172a8.988,8.988,0,0,1-6.573-3.949s.085-2.54.356-5.5c4.351,1.3,10.94,3.6,12.705,6.078,2.71,3.771,10.94,9.035,10.94,9.035s15.346-1.479,22.159-1.68A5.769,5.769,0,0,1,593.283,720.207Z" transform="translate(-147.788 -174.218)" opacity="0.1"/>
    <path id="Path_217" data-name="Path 217" d="M517.488,224.037,497.28,245.4s-24.49-1.8-20.216-9.036c2.176-3.685,2.516-11.4,2.323-18.1-.178-6.465-.844-11.97-.844-11.97s34.346-17.1,31.744-1.154a26.238,26.238,0,0,0-.093,9.1C511.658,222.288,517.488,224.037,517.488,224.037Z" transform="translate(-131.711 -60.367)" fill="#d38884"/>
    <path id="Path_218" data-name="Path 218" d="M510.833,205.138a26.238,26.238,0,0,0-.093,9.1,25.21,25.21,0,0,1-17.978,7.5c-4.646,0-9.67-3.817-13.426-6.024-.178-6.473-.217-9.423-.217-9.423S513.466,189.2,510.833,205.138Z" transform="translate(-132.289 -60.367)" opacity="0.1"/>
    <path id="Path_219" data-name="Path 219" d="M514.66,186.793a25.31,25.31,0,1,1-9.523-19.774A25.31,25.31,0,0,1,514.66,186.793Z" transform="translate(-128.884 -52.049)" fill="#d38884"/>
    <path id="Path_220" data-name="Path 220" d="M547.464,438.017c-6.3,15-46.842,15.307-46.842,15.307V436.972l-2.454-.163c1.061,4.684-1.487,16.1-1.487,16.1-32.039,4.522-39.851-13.735-39.851-13.735l1.115-6.248,24.962,2.222s60.694-4.08,63.411-.689a11.389,11.389,0,0,1,1.146,3.554Z" transform="translate(-127.257 -113.325)" opacity="0.1"/>
    <path id="Path_221" data-name="Path 221" d="M500.622,404.992V388.64l-2.454-.155c1.061,4.646-1.487,16.1-1.487,16.1-24.11,3.4-34.5-6.093-38.163-11a14.98,14.98,0,0,1-1.688-2.725l9.787-55.049,2.323-81.018,3.507-14.215.813-6.821v-.077h.085l2.493,1.068,14.92,6.45,16.948-12.8.248-.178.844-.643,1.4,1.123,3.484,2.8,11.172,72.153s19.356,55.553,22.98,77.975c.147.9.263,1.734.356,2.516C550.584,404.613,500.622,404.992,500.622,404.992Z" transform="translate(-127.257 -66.968)" fill="#eb3f43"/>
    <circle id="Ellipse_40" data-name="Ellipse 40" cx="1.44" cy="1.44" r="1.44" transform="translate(363.873 174.386)" fill="#67647e"/>
    <circle id="Ellipse_41" data-name="Ellipse 41" cx="1.44" cy="1.44" r="1.44" transform="translate(364.539 187.533)" fill="#67647e"/>
    <circle id="Ellipse_42" data-name="Ellipse 42" cx="1.44" cy="1.44" r="1.44" transform="translate(365.979 208.817)" fill="#67647e"/>
    <circle id="Ellipse_43" data-name="Ellipse 43" cx="1.44" cy="1.44" r="1.44" transform="translate(368.356 231.742)" fill="#67647e"/>
    <circle id="Ellipse_44" data-name="Ellipse 44" cx="1.44" cy="1.44" r="1.44" transform="translate(369.796 253.267)" fill="#67647e"/>
    <circle id="Ellipse_45" data-name="Ellipse 45" cx="1.44" cy="1.44" r="1.44" transform="translate(371.236 276.192)" fill="#67647e"/>
    <circle id="Ellipse_46" data-name="Ellipse 46" cx="1.44" cy="1.44" r="1.44" transform="translate(370.663 298.87)" fill="#67647e"/>
    <path id="Path_222" data-name="Path 222" d="M474.217,345.531s-1.61,21.083-4.568,27.215-4.274,23.336-4.274,23.336l-6.868-.774a14.986,14.986,0,0,1-1.688-2.725l9.787-55.049,2.323-81.018,3.515-14.223.813-6.821.093-.039a2.772,2.772,0,0,1,2.447.039l.325.17q-.147.418-.279.859c-2.679,8.385-3.678,23.839-3.678,23.839s3.871,28.268,4.274,41.415S474.217,345.531,474.217,345.531Z" transform="translate(-127.254 -68.681)" opacity="0.1"/>
    <path id="Path_223" data-name="Path 223" d="M453.884,437.122a3.961,3.961,0,0,1-.263.511c-2.663,4.5-9.415,7.355-11.467,8.137-.387-.689-.6-1.092-.6-1.092L442.975,438l7.534-3.1a21.042,21.042,0,0,1,3.376,2.222Z" transform="translate(-123.807 -113.77)" opacity="0.1"/>
    <path id="Path_224" data-name="Path 224" d="M429.345,298.81l-6.248,3.724-5.691,25.31s-7.123,21.47-1.649,36.808,8.656,24.118,8.656,24.118,2.191,17.421,5.482,18.845,4.707,2.191,4.707,2.191l.658,4.165s8.919-3.027,12.071-8.362-2.323-18.582-2.323-18.582-4.707-11.289-3.5-16.546-2.416-19.062-2.416-19.356-.325-7.673,2.323-13.317.883-8.052.883-8.052l-1.649-16.1Z" transform="translate(-117.518 -83.048)" fill="#67647e"/>
    <path id="Path_225" data-name="Path 225" d="M562.7,387.082s-16.546,6.24-21.8.774-4.715-31.117-4.715-31.117-5.033-47.33-8.215-55.1-1.549-63.876-1.549-63.876-2.137-7.255-4-9.152a2.029,2.029,0,0,0-.395-.317l.643.139,2.245.48,3.484,2.8,11.172,72.153s19.356,55.553,22.98,77.975Z" transform="translate(-141.973 -67.128)" opacity="0.1"/>
    <path id="Path_226" data-name="Path 226" d="M593.137,434.218h-.186c-2.083.271-20.464,2.493-20.541-1.332a11.2,11.2,0,0,1,.07-1.324l17.034-1.742,3.376,3.469h0c.062.225.108.418.155.573Z" transform="translate(-153.348 -112.623)" opacity="0.1"/>
    <path id="Path_227" data-name="Path 227" d="M575.5,266.07l12.078,6.3s10.065,26.061,11.676,37.234c0,0,7.456,29.933,2.323,42.243s-4.708,36.746-4.708,36.746-2.958,4.491-4.165,3.291.441,4.707.441,4.707-20.649,2.741-20.734-1.316,4.738-23.444,4.738-23.444,1.316-46.122-.55-53.354S575.5,266.07,575.5,266.07Z" transform="translate(-153.348 -75.657)" fill="#67647e"/>
    <path id="Path_228" data-name="Path 228" d="M526.975,329.52s-6.8,16.646-8.989,17.746.441,5.474.441,5.474S530.808,335.435,526.975,329.52Z" transform="translate(-140.866 -89.981)" opacity="0.1"/>
    <path id="Path_229" data-name="Path 229" d="M521.518,254.1c.077-.317-8.106,8.029-10.3,9.291S519.219,263.311,521.518,254.1Z" transform="translate(-139.466 -72.952)" opacity="0.1"/>
    <path id="Path_230" data-name="Path 230" d="M491.976,327.82s-12.489,8.075-10.84,11.273S491.976,327.82,491.976,327.82Z" transform="translate(-132.71 -89.597)" opacity="0.1"/>
    <path id="Path_231" data-name="Path 231" d="M524.47,480.07s10.631,6.837,27.169,8.517Z" transform="translate(-142.526 -123.967)" opacity="0.1"/>
    <path id="Path_232" data-name="Path 232" d="M491.5,501.3s9.856,12.388,14.355,12.706S491.5,501.3,491.5,501.3Z" transform="translate(-135.083 -128.76)" opacity="0.1"/>
    <path id="Path_233" data-name="Path 233" d="M505.863,564c-.441.217-5.59,11.172-10.84,11.505S505.863,564,505.863,564Z" transform="translate(-135.641 -142.914)" opacity="0.1"/>
    <path id="Path_234" data-name="Path 234" d="M568.33,594.905s9.771-2.191,11.947,4.816C580.277,599.7,579.619,597.507,568.33,594.905Z" transform="translate(-152.428 -149.818)" opacity="0.1"/>
    <path id="Path_235" data-name="Path 235" d="M559.84,646.511s11.838-2.416,14.355.875S559.84,646.511,559.84,646.511Z" transform="translate(-150.511 -161.348)" opacity="0.1"/>
    <path id="Path_236" data-name="Path 236" d="M513.2,654c0,.108-12.047,2.416-11.614,3.949s12.853,1.316,13.294-1.1A2.323,2.323,0,0,0,513.2,654Z" transform="translate(-137.358 -163.231)" opacity="0.1"/>
    <path id="Path_237" data-name="Path 237" d="M554.75,667.217s19.8-2.416,18.582,1.75S554.75,667.217,554.75,667.217Z" transform="translate(-149.362 -166.058)" opacity="0.1"/>
    <path id="Path_238" data-name="Path 238" d="M420.89,352.44c.108.325,13.038,2.083,14.788,6.248,0,0-12.706-5.923-14.711-5.923" transform="translate(-119.143 -95.155)" opacity="0.1"/>
    <path id="Path_239" data-name="Path 239" d="M441.461,396.16s-10.739,3.4-9.972,8.517S430.4,402.308,441.461,396.16Z" transform="translate(-121.527 -105.025)" opacity="0.1"/>
    <path id="Path_240" data-name="Path 240" d="M437.92,428.527s3.91-5.366,7.634-4.382S437.92,428.527,437.92,428.527Z" transform="translate(-122.988 -111.315)" opacity="0.1"/>
    <path id="Path_241" data-name="Path 241" d="M505.148,167.017a6.094,6.094,0,0,1-1.254.937c-3.1,1.8-3.949,4.584-5.42,7.789-1.37,2.934-2.88,6.039-5.644,7.7-3.569,2.152-8.269,1.363-11.978,3.236a9.291,9.291,0,0,0-4.955,9.159,26.419,26.419,0,0,0,1.053,4.2,29.924,29.924,0,0,1,1.13,9.113,1.545,1.545,0,0,1,0,.271,25.3,25.3,0,1,1,27.1-42.406Z" transform="translate(-128.895 -52.047)" opacity="0.1"/>
    <path id="Path_242" data-name="Path 242" d="M500.805,155.117c-2.78-5.838-8.827-9.539-15.044-11.343-4.746-1.37-9.9-1.819-14.61-.31a53.589,53.589,0,0,0-7.642,3.585c-4.692,2.369-9.849,4.243-13.379,8.137a4.077,4.077,0,0,0-1.339,3.267,9.122,9.122,0,0,0,1.324,2.369,7.19,7.19,0,0,1,.07,5.954A54.608,54.608,0,0,0,448,172.5c-.48,1.99-.294,4.32,1.177,5.737a21.46,21.46,0,0,0,2.214,1.549,11.654,11.654,0,0,1,2.1,2.385l4.181,5.714a57.955,57.955,0,0,1,5.234,8.044,38.332,38.332,0,0,0,3.236,6.14c1.394,1.85,3.562,3.337,5.869,3.136a1.138,1.138,0,0,0,.929-.441,1.223,1.223,0,0,0,.116-.581,29.716,29.716,0,0,0-1.107-9.082,26.207,26.207,0,0,1-1.053-4.2,9.33,9.33,0,0,1,4.955-9.159c3.716-1.874,8.416-1.084,11.978-3.229,2.772-1.672,4.282-4.777,5.644-7.743,1.494-3.205,2.323-5.985,5.42-7.789S502.346,158.191,500.805,155.117Z" transform="translate(-125.21 -47.766)" fill="#585268"/>
    <path id="Path_243" data-name="Path 243" d="M501.63,693.06s3.871,4.932,2.865,7.742S501.63,693.06,501.63,693.06Z" transform="translate(-137.37 -172.049)" opacity="0.1"/>
    <path id="Path_244" data-name="Path 244" d="M569.28,707.029s.859-6.612,4.3-6.674,3.616-.356,6.248.658,5.1,2.586,4.313,2.818-4.529-3.778-8.37-1.727A27.653,27.653,0,0,0,569.28,707.029Z" transform="translate(-152.642 -173.676)" opacity="0.1"/>
    <path id="Path_245" data-name="Path 245" d="M483.766,251.281l10.84-7.6s-15.857-9.368-17.746-8.052-3.19,13.162-3.19,13.162Z" transform="translate(-131.058 -68.757)" opacity="0.1"/>
    <path id="Path_246" data-name="Path 246" d="M483.706,250.608l10.84-7.743s-15.857-9.368-17.746-8.052-3.19,13.813-3.19,13.813Z" transform="translate(-131.045 -68.572)" fill="#e1e7ef"/>
    <path id="Path_247" data-name="Path 247" d="M483.706,250.608l10.84-7.743s-15.857-9.368-17.746-8.052-3.19,13.813-3.19,13.813Z" transform="translate(-131.045 -68.572)" fill="#eb3f43"/>
    <path id="Path_248" data-name="Path 248" d="M467.785,234.793l-.325-.163a2.811,2.811,0,0,0-3.043.317L431.9,261.327s-7.069,9.779-6.086,26.65l19.178,27.169s2.191-9.2,4.816-7.448c0,0,3.724,47.113,0,53.9s-5.366,32.209-5.366,32.209l12.6,1.425s1.316-17.2,4.274-23.336,4.568-27.215,4.568-27.215,2.663-30.629,2.222-43.776-4.274-41.415-4.274-41.415S464.9,242.923,467.785,234.793Z" transform="translate(-120.233 -68.491)" fill="#67647e"/>
    <path id="Path_249" data-name="Path 249" d="M517.951,244.854l-13.511-5s17.2-18.845,19.356-8.393Z" transform="translate(-138.005 -67.131)" opacity="0.1"/>
    <path id="Path_250" data-name="Path 250" d="M517.951,244l-13.511-5s17.2-18.845,19.356-8.393Z" transform="translate(-138.005 -66.939)" fill="#e1e7ef"/>
    <path id="Path_251" data-name="Path 251" d="M517.951,244l-13.511-5s17.2-18.845,19.356-8.393Z" transform="translate(-138.005 -66.939)" fill="#eb3f43"/>
    <path id="Path_252" data-name="Path 252" d="M521.32,228.117a.774.774,0,0,1,.557.124Z" transform="translate(-141.815 -67.087)" opacity="0.1"/>
    <path id="Path_253" data-name="Path 253" d="M523,226.426l35.848,7.743s9.864,2.191,16.987,26.952-9.756,55.1-9.756,55.1l-3.724-3.167,1.866,72.307s-16.546,6.24-21.8.774-4.707-31.14-4.707-31.14-5.04-47.322-8.223-55.1-1.549-63.868-1.549-63.868S525.013,225.992,523,226.426Z" transform="translate(-142.194 -66.705)" fill="#67647e"/>
    <path id="Path_254" data-name="Path 254" d="M565.223,285.845c-.5.465-1.092,22.345,1.1,39a212.539,212.539,0,0,0,6.194,30.018l-3.252-66.717S566.756,284.421,565.223,285.845Z" transform="translate(-151.62 -80.048)" opacity="0.1"/>
    <path id="Path_255" data-name="Path 255" d="M559.7,261.6c.875.55,4.715,9.639,2.958,13.364S559.7,261.6,559.7,261.6Z" transform="translate(-150.479 -74.648)" opacity="0.1"/>
    <path id="Path_256" data-name="Path 256" d="M506.245,156.384a19.79,19.79,0,0,0-7.882-8.254,18.746,18.746,0,0,1,5.908,6.968c1.548,3.1,1.092,6.194-1.92,7.89s-3.949,4.584-5.42,7.789c-1.37,2.934-2.88,6.039-5.652,7.743-3.562,2.152-8.261,1.355-11.978,3.229a9.353,9.353,0,0,0-4.955,9.167,26.33,26.33,0,0,0,1.061,4.189,29.949,29.949,0,0,1,1.13,9.113,1.222,1.222,0,0,1-.124.581,1.107,1.107,0,0,1-.921.441,5.334,5.334,0,0,1-2.7-.5,6.287,6.287,0,0,0,4.646,1.819.914.914,0,0,0,1.037-1.022,29.708,29.708,0,0,0-1.123-9.113,25.43,25.43,0,0,1-1.061-4.2,9.33,9.33,0,0,1,4.955-9.159c3.716-1.874,8.416-1.084,11.978-3.229,2.772-1.672,4.282-4.777,5.644-7.743,1.494-3.205,2.323-5.985,5.42-7.789S507.794,159.457,506.245,156.384Z" transform="translate(-130.86 -49.033)" opacity="0.1"/>
    <path id="Path_257" data-name="Path 257" d="M756.865,258.8c-10.669-.209-20.084-7.743-25.419-16.948a17.034,17.034,0,0,1-2.571-7.255,8.375,8.375,0,0,1,.294-1.734,18.009,18.009,0,0,0,.774-2.656,4.639,4.639,0,0,0,0-1.084v-.062a6.405,6.405,0,0,0-2.323-5.211c-1.425-1.339-3.213-2.323-4.7-3.654-4.584-4.026-5.977-10.483-6.062-16.631v-.325c.054-2.632.263-5.273.24-7.905a33.243,33.243,0,0,0-.194-4.475c-.441-3.724-1.858-7.518-4.785-9.895-7.634-6.194-20.471.256-28.376-5.6-1.92-1.432-3.476-3.546-5.807-4.1-1.758-.426-3.585.147-5.3.72-5.822,1.92-12.318,4.444-14.595,10.065-1.3,3.229-.937,6.914-2.129,10.181-.774,2.191-2.253,4.073-3.329,6.148a9.625,9.625,0,0,0-1.239,5.133,5.792,5.792,0,0,0,.379,2.733,6.967,6.967,0,0,0,1.9,2.718,9.022,9.022,0,0,1-1.13,1.812c-1.487,1.82-3.771,3.1-5.319,4.909-2.865,3.322-2.756,7.835-1.347,11.738s3.956,7.456,5.714,11.258c.774,1.649,1.363,3.492.581,5.133a14.72,14.72,0,0,1-2.57,2.989,9.392,9.392,0,0,0-2.323,5.188c-17.428,3.98-17.444,17.986-17.444,17.986h0l-9.415,23.677s-1.51,3.987-3.283,9.252l-11.142-2,7.743,12.961c-1.463,5.28-2.5,10.174-2.16,12.636,0,0-3.461,16.259,2.694,19.1l13.58,6.109a8.045,8.045,0,0,0,1.881.844l.55.248a1.455,1.455,0,0,0,1.27,0h.186a1.827,1.827,0,0,0,.774-.116,1.548,1.548,0,0,0,.681-.736.23.23,0,0,1,0-.077L637.2,350.7l3.445,4.08c1.549,1.092,3.1,2.036,4.56,2.888l-5.335,52.974s-.859,70.457-3.461,86.515a44.969,44.969,0,0,0-.6,12.76l-.1.17c.643,4.529,2.323,5.42,2.323,5.42v-.062a.507.507,0,0,0,.1.062,45.617,45.617,0,0,1,2.787-5.977v1.161c-.054,5.977-.24,14.347-.859,19.79-1.053,9.291,2.694,39.913,2.694,39.913l1.293,27.873a25.769,25.769,0,0,1-3.174,13.58c-3.1,5.567-7.053,13.4-7.34,16.879a3.482,3.482,0,0,0,0,.565h0l-6.643,7.99s-2.594,4.011,3.267,5.629c3.151.875,8.586,0,12.953-1.03a8.656,8.656,0,0,0,6.713-8.424,29.809,29.809,0,0,1,5.482-10.522l1.092,6.419,7.309,1.812.937-17.591a7.744,7.744,0,0,0,.5-3.1h0c1.44-12.512-3.391-11.389-3.391-11.389a.674.674,0,0,1,.232.434l-.232-.426h0c-2.965-5.853-1.549-15.485-1.549-15.485s3.871-27.873,5.2-35.236c.952-5.2.557-22.236.24-31.744a11.355,11.355,0,0,0-.039-1.154c11.335-.147,25.225-.526,34.973-1.471v1.146l-1.8,65.85a36.15,36.15,0,0,1-2.524,12.249.67.67,0,0,1-.085.224,53.42,53.42,0,0,0-3.569,17.258l-.836,20.9v.581h0c-1.456.557-3.755,2.176-3.817,6.868-.1,6.875,12.016,4.583,12.016,4.583,12.109,0,12.21-12.6,12.21-12.6s.379-11.56.96-19.294-1.827-6.031-1.827-6.031l-.186,22V608.627l.186-2.8v-.077h0v-.6l1.525-22.693S723.99,544.65,725.717,537.4c1.231-5.156.72-20.688.317-29.274a6.831,6.831,0,0,0-.062-1.138c3.461-.31,6.519-.341,7.742-.341h.565s-.573-60.732-2.021-83.619-3.747-43.83-9.516-50.133c-3.484-3.809-8.339-15.57-11.614-24.281a121.462,121.462,0,0,0,21.346,6.968c18.265,3.825,15.764-12.032,15.764-12.032l-1.851-29.987h.124a152.9,152.9,0,0,0-2.013-23.444,68.981,68.981,0,0,0-4.708-17.034c1.982-.774,3.941-1.6,5.861-2.454,4.963-2.191,10.553-5.3,11.265-10.646h-.24A6.906,6.906,0,0,0,756.865,258.8ZM643.646,302.162h0c.039,3.1-.077,8.47-.263,14.409l-5.8-7.743,5.815-9.43ZM721.35,317.887Zm2.416,11.714-9.663-3.1a43.354,43.354,0,0,1,5.97-7.386l.836-.774-.3.062.465-.426.279-.062-.441.426.527-.108a16.482,16.482,0,0,0,3.291,6.62c3.469,3.786-.952,4.746-.952,4.746Z" transform="translate(-160.918 -54.222)" fill="url(#linear-gradient-2)"/>
    <path id="Path_258" data-name="Path 258" d="M648.276,715.66l-1.13,21.431-7.208-1.8-1.518-8.912Z" transform="translate(-144.124 -161.557)" fill="#a27772"/>
    <path id="Path_259" data-name="Path 259" d="M648.276,715.66l-1.13,21.431-7.208-1.8-1.518-8.912Z" transform="translate(-144.124 -161.557)" opacity="0.1"/>
    <path id="Path_260" data-name="Path 260" d="M716.48,727.283l10.994,2.276,8.153-7.2V702.066l.186-2.772v-.085h0v-.588l1.518-22.554s11-37.544,12.713-44.752c1.208-5.11.7-20.533.3-29.058-.163-3.492-.3-5.83-.3-5.83l-24.273-5.877-.511,18.659-1.773,65.378A36.231,36.231,0,0,1,721,686.751l-.085.224a53.208,53.208,0,0,0-3.523,17.127l-.821,20.789v.573Z" transform="translate(-185.872 -148.908)" fill="#cc818c"/>
    <path id="Path_261" data-name="Path 261" d="M741.45,730.146v.573h0v-.588Z" transform="translate(-191.509 -180.417)" opacity="0.1"/>
    <path id="Path_262" data-name="Path 262" d="M716.48,765.211l10.994,2.276,8.153-7.2V758.56a2.323,2.323,0,0,1-1.169,1.858l-.116.07A21.911,21.911,0,0,1,722,762.927l-4.289-.364a4.016,4.016,0,0,0-1.138.279v.573Z" transform="translate(-185.872 -186.835)" opacity="0.1"/>
    <path id="Path_263" data-name="Path 263" d="M733.263,754.76l.116-.062a2.322,2.322,0,0,0,1.185-2.013l.178-21.842s2.369-1.7,1.8,5.985-.945,19.155-.945,19.155S735.5,768.5,723.554,768.5c0,0-11.947,2.276-11.854-4.553s4.932-7.108,4.932-7.108l4.289.372A21.857,21.857,0,0,0,733.263,754.76Z" transform="translate(-184.793 -180.543)" fill="#b07473"/>
    <path id="Path_264" data-name="Path 264" d="M642.52,724.724c.279,4.932,14.788,2.083,14.788,2.083l9.763-18.954s8.153-6.264,4.073-11.761a8.773,8.773,0,0,1-.6-.937l-.039-.046h0c-.085-.139-.163-.286-.24-.441h0c-2.927-5.807-1.487-15.33-1.487-15.33s3.786-27.687,5.118-34.988c.937-5.157.55-22.074.24-31.535-.124-3.933-.24-6.573-.24-6.573l-24.087-6.45v7.185c-.054,5.939-.24,14.246-.852,19.651-1.038,9.19,2.656,39.626,2.656,39.626l1.278,27.7a25.652,25.652,0,0,1-3.1,13.48c-3.02,5.528-6.968,13.317-7.239,16.763a3.388,3.388,0,0,0-.039.534Z" transform="translate(-169.176 -150.993)" fill="#cc818c"/>
    <path id="Path_265" data-name="Path 265" d="M642.518,752.529c.279,4.932,14.788,2.083,14.788,2.083l9.763-18.954s8.153-6.264,4.073-11.761a8.752,8.752,0,0,1-.6-.937c-.132,2.873-3.283,10.065-3.283,10.065s-8.06,16.128-10.623,19.821-13.7-.689-14.115-.844a3.386,3.386,0,0,0-.008.527Z" transform="translate(-169.174 -178.799)" opacity="0.1"/>
    <path id="Path_266" data-name="Path 266" d="M668.17,722.293s4.769-1.107,3.345,11.312h0a8,8,0,0,1-3.771,7.1c-3.414,2.145-8.679,6.759-11.343,15.733h0a8.579,8.579,0,0,1-6.62,8.362c-4.3,1.006-9.67,1.889-12.775,1.022-5.784-1.61-3.221-5.59-3.221-5.59l6.635-7.874s11.567,4.553,14.122.852S665.166,733.4,665.166,733.4,669.586,723.338,668.17,722.293Z" transform="translate(-167.076 -178.642)" fill="#b07473"/>
    <path id="Path_267" data-name="Path 267" d="M728.331,593.52l-.511,18.659c6.465-.627,11.1-1.5,11.885-2.733,1.711-2.648,7.921-3.763,13.2-4.22-.163-3.492-.3-5.83-.3-5.83Z" transform="translate(-188.432 -149.578)" opacity="0.1"/>
    <path id="Path_268" data-name="Path 268" d="M651.94,609.905A8.857,8.857,0,0,1,654.6,606.7c2.555-1.417,2.276,9.105,2.276,9.105s8.517.078,19.4-.062c-.124-3.933-.24-6.581-.24-6.581L651.94,602.72S651.986,605.709,651.94,609.905Z" transform="translate(-171.302 -151.655)" opacity="0.1"/>
    <path id="Path_269" data-name="Path 269" d="M647.658,563.964s2.849-7.742,5.42-9.121,2.276,9.1,2.276,9.1,62.575.573,65.7-4.266,21.331-4.553,21.331-4.553-.565-60.3-1.99-83.046-3.693-43.521-9.384-49.777c-3.678-4.049-8.912-17.15-12.148-25.883-1.758-4.769-2.927-8.246-2.927-8.246l-59.726,3.407-.488,4.839-6.341,63.427s-.852,69.969-3.414,85.9S647.658,563.964,647.658,563.964Z" transform="translate(-169.769 -103.221)" fill="#444053"/>
    <g id="Group_83" data-name="Group 83" transform="translate(475.45 284.949)" opacity="0.1">
      <path id="Path_270" data-name="Path 270" d="M720.191,559.675c3.1-4.831,21.331-4.553,21.331-4.553s-.565-60.3-1.99-83.046-3.693-43.521-9.384-49.777c-3.693-4.065-8.912-17.15-12.148-25.883-1.479-4.011-2.54-7.1-2.834-7.983l4.646-.263s1.169,3.476,2.934,8.246c3.236,8.734,8.463,21.834,12.14,25.883,5.691,6.256,7.967,27.021,9.384,49.777s2,83.046,2,83.046-18.2-.279-21.338,4.553c-2.671,4.127-48.716,4.32-62.08,4.282C680,563.918,717.775,563.407,720.191,559.675Z" transform="translate(-649.215 -388.17)"/>
      <path id="Path_271" data-name="Path 271" d="M648.236,603.4c1.154-.643,1.727,1.138,2.013,3.3a44.645,44.645,0,0,0-2.687,5.822s-1.649-.89-2.323-5.42C646.185,605.484,647.23,603.959,648.236,603.4Z" transform="translate(-645.24 -436.728)"/>
    </g>
    <path id="Path_272" data-name="Path 272" d="M668.757,197.245c-4.135,5.637.046,13.65-4.39,19.132-1.463,1.812-3.716,3.1-5.242,4.878-2.826,3.3-2.718,7.781-1.332,11.652s3.871,7.4,5.637,11.18c.774,1.634,1.347,3.469.573,5.095a14.428,14.428,0,0,1-2.54,2.965c-2.849,3.182-2.927,7.6-1.394,11.351s4.46,6.968,7.348,10.143c1.138,1.247,2.578,2.625,4.475,2.586a6.194,6.194,0,0,0,2.811-.921,28.647,28.647,0,0,0,13.038-37.389c-2.4-5.753-6.4-11.265-6.442-17.343,0-4.824,2.478-9.43,2.919-14.231.534-5.838-2.919-15.106-9.965-17.653C674.719,192.437,670.855,194.35,668.757,197.245Z" transform="translate(-172.41 -58.189)" fill="#585268"/>
    <path id="Path_273" data-name="Path 273" d="M668.757,197.245c-4.135,5.637.046,13.65-4.39,19.132-1.463,1.812-3.716,3.1-5.242,4.878-2.826,3.3-2.718,7.781-1.332,11.652s3.871,7.4,5.637,11.18c.774,1.634,1.347,3.469.573,5.095a14.428,14.428,0,0,1-2.54,2.965c-2.849,3.182-2.927,7.6-1.394,11.351s4.46,6.968,7.348,10.143c1.138,1.247,2.578,2.625,4.475,2.586a6.194,6.194,0,0,0,2.811-.921,28.647,28.647,0,0,0,13.038-37.389c-2.4-5.753-6.4-11.265-6.442-17.343,0-4.824,2.478-9.43,2.919-14.231.534-5.838-2.919-15.106-9.965-17.653C674.719,192.437,670.855,194.35,668.757,197.245Z" transform="translate(-172.41 -58.189)" opacity="0.1"/>
    <path id="Path_274" data-name="Path 274" d="M718.221,464.55c-8.277.434-16.066,4-23.313,8.021s-14.262,8.587-22.058,11.444" transform="translate(-176.023 -120.463)" opacity="0.1"/>
    <path id="Path_275" data-name="Path 275" d="M713.482,489.74A34.121,34.121,0,0,0,692,500.192c-2.013,2.129-3.747,4.514-5.846,6.558a25.969,25.969,0,0,1-11.521,6.527" transform="translate(-176.424 -126.15)" opacity="0.1"/>
    <path id="Path_276" data-name="Path 276" d="M713.34,508.91a37.567,37.567,0,0,0-17.281,10.421c-1.27,1.371-2.423,2.834-3.693,4.2-6.852,7.355-16.53,11.258-25.875,14.951" transform="translate(-174.587 -130.478)" opacity="0.1"/>
    <path id="Path_277" data-name="Path 277" d="M716.512,242.943a169.9,169.9,0,0,0,1.7,19.759c.774,4.645,1.858,8.826,3.414,10.677,4.553,5.42-22.182,12.659-22.182,12.659L683.66,273.805s12.512-11.521,6.682-22.755S716.512,242.943,716.512,242.943Z" transform="translate(-178.463 -70.346)" fill="#cc818c"/>
    <path id="Path_278" data-name="Path 278" d="M658.79,396.416h63.14c-1.758-4.769-2.927-8.246-2.927-8.246l-59.726,3.407Z" transform="translate(-172.849 -103.221)" opacity="0.1"/>
    <path id="Path_279" data-name="Path 279" d="M649.946,369.107h67.507c-1.9-6.79,0-13.069,2.7-17.9a39.56,39.56,0,0,1,7.069-9.167l.464-.426,23.568-5.218,1.27-.279s.194-42.855-14.982-48.739a88.72,88.72,0,0,1-24.273-13.836l-20.851,6.442L677.06,272.24c-4.932,5.3-18.017,3.221-18.017,3.221-21.424,2.462-21.424,18.582-21.424,18.582s12.512,29.2,13.464,29.2S649.946,369.107,649.946,369.107Z" transform="translate(-168.07 -77.05)" fill="#eb3f43"/>
    <path id="Path_280" data-name="Path 280" d="M678.26,359.715s-13.766-3.051-18.45-8.385" transform="translate(-173.079 -94.904)" opacity="0.1"/>
    <path id="Path_281" data-name="Path 281" d="M768.635,341.51,752.67,354.595a27.188,27.188,0,0,0,.526,3.1l.464-.426,23.568-5.218Z" transform="translate(-194.042 -92.687)" opacity="0.1"/>
    <path id="Path_282" data-name="Path 282" d="M717.46,386.052s3.492,1.967,8.842,4.553h9.175c-1.9-6.79,0-13.069,2.7-17.9L722,367.47C727.51,372.588,717.46,386.052,717.46,386.052Z" transform="translate(-186.093 -98.548)" opacity="0.1"/>
    <path id="Path_283" data-name="Path 283" d="M641.566,293.76l-9.477,5.118L622.8,322.392s-9.67,25.783-8.726,32.611c0,0-3.407,16.12,2.656,18.961l15.795,7.154a1.471,1.471,0,0,0,1.9-2.029c-2.253-4.266-4.731-10.94-.774-14.61L629.092,355l16.453-26.929,5.5-9.291Z" transform="translate(-162.538 -81.908)" fill="#eb3f43"/>
    <path id="Path_284" data-name="Path 284" d="M677.054,353.305c.821,3.345,3.593,8.517,12.767,10.445L699.887,372l10.708,4.855,4.367,1.974,1.85-13.371-4.2-2.323-4.9-2.679s-11.056-20.03-28.562-11.614a3.871,3.871,0,0,0-2.09,4.467Z" transform="translate(-176.944 -93.876)" opacity="0.1"/>
    <path id="Path_285" data-name="Path 285" d="M677.8,351.848c.821,3.353,3.585,8.517,12.76,10.445l10.065,8.246,10.716,4.855,4.359,1.974L717.549,364l-4.2-2.323-4.862-2.656s-11.064-20.03-28.57-11.575a3.871,3.871,0,0,0-2.114,4.406Z" transform="translate(-177.116 -93.557)" fill="#cc818c"/>
    <circle id="Ellipse_47" data-name="Ellipse 47" cx="24.459" cy="24.459" r="24.459" transform="translate(495.952 141.023)" opacity="0.1"/>
    <circle id="Ellipse_48" data-name="Ellipse 48" cx="24.459" cy="24.459" r="24.459" transform="translate(495.952 140.458)" fill="#cc818c"/>
    <path id="Path_286" data-name="Path 286" d="M720.735,293.354l-7.355-14.293s10.762-4.351,11.544-9.392,10.313,5.908,8.254,9.539S720.735,293.354,720.735,293.354Z" transform="translate(-185.172 -76.175)" opacity="0.1"/>
    <path id="Path_287" data-name="Path 287" d="M720.735,291.884l-7.355-14.293s10.762-4.351,11.544-9.392,10.313,5.915,8.254,9.539S720.735,291.884,720.735,291.884Z" transform="translate(-185.172 -75.844)" fill="#eb3f43"/>
    <path id="Path_288" data-name="Path 288" d="M636.579,345.311l40.641,54.639s-14.982,8.153-35.616-6.442l-8.912-10.623L607.25,340Z" transform="translate(-161.214 -92.347)" fill="#f6f8fb"/>
    <path id="Path_289" data-name="Path 289" d="M634.522,381.126l3.7-.1s22.608-21.942,28.16-10.84S652.3,391.663,652.3,391.663l-5.97,3.221-7.781,2.323-4.978-6.682Z" transform="translate(-167.155 -98.453)" fill="#cc818c"/>
    <path id="Path_290" data-name="Path 290" d="M638.488,396.405a5.523,5.523,0,0,1,.093,3.825,1.548,1.548,0,0,1-.674.736,1.726,1.726,0,0,1-.774.108,7.781,7.781,0,0,1-5.1-2.524,23.307,23.307,0,0,1-3.306-4.785c-1.006-1.758-2.052-3.7-1.7-5.7.4-2.176,2.323-3.685,4.2-4.909,3.747-2.478,3.871.41,4.692,3.6S637.629,393.184,638.488,396.405Z" transform="translate(-165.663 -101.879)" opacity="0.1"/>
    <path id="Path_291" data-name="Path 291" d="M637.757,396.405a5.568,5.568,0,0,1,.093,3.825,1.548,1.548,0,0,1-.674.736,1.742,1.742,0,0,1-.774.108,7.743,7.743,0,0,1-5.1-2.524,23.04,23.04,0,0,1-3.314-4.785c-1.007-1.758-2.052-3.7-1.688-5.7.395-2.176,2.323-3.685,4.2-4.909,3.755-2.478,3.871.41,4.7,3.6S636.89,393.184,637.757,396.405Z" transform="translate(-165.497 -101.879)" fill="#eb3f43"/>
    <path id="Path_292" data-name="Path 292" d="M623.85,317.008l1.889-3.2-1.649,5.939Z" transform="translate(-140.835 -70.841)" opacity="0.1"/>
    <path id="Path_293" data-name="Path 293" d="M721.19,380.15l4.359,1.974,1.851-13.371-4.2-2.323C726.1,369.759,723.559,375.915,721.19,380.15Z" transform="translate(-186.935 -98.313)" opacity="0.1"/>
    <path id="Path_294" data-name="Path 294" d="M737.943,363.231s-14.076.859-20.053-2.981" transform="translate(-186.19 -96.918)" opacity="0.1"/>
    <g id="Group_84" data-name="Group 84" transform="translate(490.076 196.305)" opacity="0.1">
      <path id="Path_295" data-name="Path 295" d="M739.7,353.055a39.627,39.627,0,0,1,7.069-9.175,18.87,18.87,0,0,1,2.083-1.13l21.942-4.506,1.27-.279s.194-42.855-14.974-48.739A91.146,91.146,0,0,1,733.43,275.9l1.665-.511a88.486,88.486,0,0,0,24.273,13.836c15.175,5.877,14.974,48.739,14.974,48.739h-2.276l-22.453,4.3s-.968.937-1.262,1.208a43.511,43.511,0,0,0-7.177,9.492,23.8,23.8,0,0,0-1.882,17.994h-2.323C735.095,364.166,737.03,357.887,739.7,353.055Z" transform="translate(-679.774 -274.066)"/>
      <path id="Path_296" data-name="Path 296" d="M664.13,277.957c.364-.054.712-.108,1.092-.147a39.263,39.263,0,0,0,4.646.379,42.226,42.226,0,0,1-5.737-.232Z" transform="translate(-664.13 -274.612)"/>
      <path id="Path_297" data-name="Path 297" d="M701.65,281.446l-13.89-7.03a7.341,7.341,0,0,0,.774-.736l14.494,7.332Z" transform="translate(-669.464 -273.68)"/>
    </g>
    <path id="Path_298" data-name="Path 298" d="M761.4,340l9.291,11.382,1.9,30.908s2.462,15.733-15.547,11.939-38.852-15.516-38.852-15.516,10.065-13.464,4.553-18.582l25.79,8.346s4.359-.952.945-4.738-4.018-10.623-4.018-10.623Z" transform="translate(-186.258 -92.347)" fill="#eb3f43"/>
    <path id="Path_299" data-name="Path 299" d="M779.42,382.17l5.118,5.877a7.379,7.379,0,0,1-5.118-5.877Z" transform="translate(-200.08 -101.866)" opacity="0.1"/>
    <path id="Path_300" data-name="Path 300" d="M736.99,360.8l7.967,10.236-3.98.952Z" transform="translate(-166.376 -81.449)" opacity="0.1"/>
    <path id="Path_301" data-name="Path 301" d="M665.463,208.8c-.875-2.145-.2-4.646.852-6.666s2.5-3.933,3.291-6.109c1.169-3.236.813-6.9,2.091-10.065,2.253-5.613,8.656-8.122,14.393-10.065a9.677,9.677,0,0,1,5.234-.712c2.323.55,3.833,2.656,5.73,4.073,7.789,5.807,20.456-.588,27.989,5.559,2.88,2.323,4.282,6.124,4.715,9.818s0,7.441-.047,11.165c-.124,6.519,1.1,13.65,5.977,17.97,1.471,1.3,3.205,2.276,4.646,3.623a6.343,6.343,0,0,1,2.323,5.18,17.957,17.957,0,0,1-.774,2.632c-.968,3.4.48,6.968,2.245,10.065,5.265,9.113,14.548,16.623,25.07,16.832-.7,5.311-6.194,8.393-11.111,10.569-6.194,2.78-12.791,5.5-19.612,5.157s-13.937-4.715-15.129-11.436c-.41-2.323-.356-5.118-2.323-6.326-1.208-.736-2.772-.55-4.073-1.1-1.881-.774-2.811-2.888-3.43-4.831A43.483,43.483,0,0,1,711.5,241.74c-.085-4.986.573-10.429-2.253-14.533-2.617-3.8-7.262-5.729-10.282-9.221-2.787-3.236-5.815-7.139-10.383-7.743C682.264,209.353,669.195,217.94,665.463,208.8Z" transform="translate(-174.264 -55.106)" opacity="0.1"/>
    <path id="Path_302" data-name="Path 302" d="M665.463,207.326c-.875-2.145-.2-4.646.852-6.666s2.5-3.933,3.291-6.109c1.169-3.236.813-6.9,2.091-10.065,2.253-5.621,8.656-8.13,14.393-10.065a9.677,9.677,0,0,1,5.234-.712c2.323.55,3.833,2.656,5.73,4.073,7.789,5.807,20.456-.588,27.989,5.559,2.88,2.323,4.282,6.124,4.715,9.825s0,7.433-.047,11.157c-.124,6.519,1.1,13.65,5.977,17.97,1.471,1.3,3.205,2.276,4.646,3.624a6.343,6.343,0,0,1,2.323,5.18,17.957,17.957,0,0,1-.774,2.632c-.968,3.4.48,6.968,2.245,10.065,5.28,9.082,14.525,16.615,25.047,16.825-.7,5.311-6.194,8.393-11.111,10.576-6.194,2.772-12.791,5.5-19.612,5.149s-13.937-4.715-15.129-11.436c-.41-2.323-.356-5.118-2.323-6.326-1.208-.736-2.772-.55-4.073-1.1-1.881-.774-2.811-2.888-3.43-4.831a43.431,43.431,0,0,1-2.021-12.388c-.085-4.986.573-10.429-2.253-14.533-2.617-3.8-7.262-5.729-10.282-9.221-2.787-3.236-5.815-7.139-10.383-7.743C682.264,207.883,669.195,216.485,665.463,207.326Z" transform="translate(-174.264 -54.774)" fill="#585268"/>
    <path id="Path_303" data-name="Path 303" d="M686.593,291.788l14.022-11.382s-9.6-5.2-10.747-9.639-8.826,2.106-8.044,6.086S686.593,291.788,686.593,291.788Z" transform="translate(-178.036 -76.382)" opacity="0.1"/>
    <path id="Path_304" data-name="Path 304" d="M687.317,289.58l14.022-11.374s-9.6-5.2-10.7-9.639-8.827,2.106-8.044,6.086S687.317,289.58,687.317,289.58Z" transform="translate(-178.21 -75.886)" fill="#eb3f43"/>
    <circle id="Ellipse_49" data-name="Ellipse 49" cx="1.115" cy="1.115" r="1.115" transform="translate(522.564 210.729)" opacity="0.1"/>
    <circle id="Ellipse_50" data-name="Ellipse 50" cx="1.115" cy="1.115" r="1.115" transform="translate(522.564 216.923)" opacity="0.1"/>
    <circle id="Ellipse_51" data-name="Ellipse 51" cx="1.115" cy="1.115" r="1.115" transform="translate(522.564 223.11)" opacity="0.1"/>
    <g id="Group_85" data-name="Group 85" transform="translate(490.972 127.218)" opacity="0.1">
      <path id="Path_305" data-name="Path 305" d="M672.466,193.973c1.107-3.043.867-6.457,1.9-9.523a10.4,10.4,0,0,0-1.185,2.183c-1.285,3.2-.921,6.86-2.1,10.065l-.077.186a17.692,17.692,0,0,0,1.456-2.911Z" transform="translate(-666.58 -184.45)"/>
      <path id="Path_306" data-name="Path 306" d="M759.632,275.585c-6.194,2.772-12.791,5.5-19.612,5.149s-13.937-4.715-15.129-11.428c-.41-2.323-.356-5.126-2.323-6.333-1.208-.736-2.772-.55-4.073-1.1-1.881-.774-2.811-2.888-3.43-4.831a43.437,43.437,0,0,1-2.021-12.388c-.085-4.978.581-10.421-2.245-14.533-2.625-3.8-7.27-5.722-10.29-9.221-2.787-3.229-5.815-7.139-10.383-7.743-6.264-.852-19.356,7.743-23.057-1.409a7.2,7.2,0,0,1,.24-5.288c-.271.457-.534.914-.774,1.378-1.053,2.06-1.719,4.529-.844,6.674,3.724,9.136,16.794.55,23.057,1.409,4.568.619,7.6,4.529,10.383,7.743,3.02,3.5,7.665,5.42,10.282,9.229,2.834,4.1,2.168,9.547,2.253,14.525a43.439,43.439,0,0,0,2.021,12.388c.619,1.951,1.549,4.042,3.43,4.831,1.3.55,2.865.372,4.073,1.1,2,1.208,1.943,4.034,2.323,6.333,1.208,6.713,8.315,11.08,15.129,11.428s13.379-2.369,19.612-5.149c4.491-2,9.492-4.762,10.84-9.291C766.941,272,763.132,274.029,759.632,275.585Z" transform="translate(-665.288 -189.419)"/>
    </g>
    <path id="Path_307" data-name="Path 307" d="M920.6,326.819c-16.391-9.43-22.585-11.753-22.616-11.753l-.341-.24a13.634,13.634,0,0,1-4.127-5.218,10.882,10.882,0,0,1,0-1.123.473.473,0,0,0,0,.108c.255-4.994,3.809-9.539,7.177-13.5l8.617-10.135a9.989,9.989,0,0,0,2.222-3.515,8.1,8.1,0,0,0,.232-2.16q0-.441,0-.883c-.047-2.516-.116-5.04-.209-7.557-.077-2.2-.643-4.971-2.841-5.42-1.146-.232-2.663.178-3.267-.774a1.881,1.881,0,0,1-.147-1.309.441.441,0,0,0,0,.108v-.124a29.164,29.164,0,0,0,.813-5.18,7.062,7.062,0,0,0-.356-2.625c-1.27-3.647-5.66-5.149-9.539-5.838s-8.23-1.278-10.661-4.313a31.551,31.551,0,0,0-2.121-2.919,8.37,8.37,0,0,0-3.964-1.959,22.453,22.453,0,0,0-14.424,1.254c-1.874.836-3.755,1.967-5.815,1.843s-3.964-1.61-6.07-1.967c-3.407-.581-6.666,1.92-8.346,4.886a11.947,11.947,0,0,0-1.549,5.76v.341h0a8.424,8.424,0,0,0,2.214,5.884c1.471,1.549,3.654,2.571,4.266,4.576.248.813.186,1.7.41,2.524a2.269,2.269,0,0,0,.093.3l-.108.147a25.551,25.551,0,0,0-5.42,15.748,26.139,26.139,0,0,0,18.365,24.776c0,.255,0,.511,0,.774a11.139,11.139,0,0,1-3.562,8.672l-23.22,9.276s-14-1.665-19.047,18.791a34.884,34.884,0,0,0-.867,10.375c.186,3.1-.24,8.517-3.871,15.539-5.737,11.242-4.429,37.048,7.309,39.6,11.08,2.416,15.415,1.409,15.872,1.293v.449c-.186,4.847-1.943,46.61-8.331,51.658-1.765,1.4-1.44,2.323,0,2.981,0,0,0,.271-.039.774-.194,3.1-1.177,14.711-5.42,21.307-4.963,7.665-4.444,51.875-4.444,51.875l-3.383,26.061s2.083,16.1,0,18.907c-1.866,2.5-4.344,62.049-4.862,74.963h-.217a6.287,6.287,0,0,0-5.017,3.1c-2.741,4.452-12.342,12.682-12.342,12.682-2.083,2.958-9.787,5.791-13.859,7.123a8.614,8.614,0,0,0-1.548.681,8.262,8.262,0,0,0-3.5,3.686,3.957,3.957,0,0,0-.372,3.1c1.038,2.547,22.693,4.343,28.175,1.781,4.3-2.005,21.369-4.646,28.454-5.683a5.838,5.838,0,0,0,5.064-5.064,3.337,3.337,0,0,0-.65-2.532c-1.355-1.68-2.044-6.271-2.323-9.291a6.279,6.279,0,0,0,1.595-.945,68.019,68.019,0,0,1,3.871-27.339c5.219-13.8,6.782-39.348,5.482-55.955,0,0,15.911-68.475,28.438-74.863h0c.194.248,6.271,8.044,7.046,32.193.774,24.528,9.647,40.625,9.647,40.625s-3.918,41.647,0,57.233l-5.118,24.583c-.379-.317-.619-.565-.619-.565s.155.681.364,1.773l-.108.526.225.046c.581,3.1,1.44,8.432,1.084,11.614-.2,1.789-.7,4.243-1.045,6.651-.542,3.786-.689,7.456,1.3,8.261,3.267,1.316,22.453,3.1,25.705-1.115a6.032,6.032,0,0,0,.945-6.31,6.389,6.389,0,0,0-.944-1.611s-5.095-8.323-3.654-14.192a4.32,4.32,0,0,0-.612-3.368c.225-2.88,1.386-16.213,4.39-27.532,3.267-12.3,10.15-39.255,5.087-56.977h0q-.286-1.045-.65-2.044a76.525,76.525,0,0,1-2.872-29.894,60.925,60.925,0,0,1,0-26.061c3.136-14.308,5.327-28.361,5.327-28.361s1.727-18.907.217-30.5a7.608,7.608,0,0,0-.1-.774l.821-.186s-4.436-19.674-6-32.193c-.372-2.958-.852-6.7-1.378-10.692a27.285,27.285,0,0,0,4.251-1.061c14.084-4.855,18.52-48.778,18.52-48.778V357.7S937.041,336.273,920.6,326.819ZM815.646,666.128c-.434-.217-.689-.364-.689-.364h0Z" transform="translate(-198.453 -69.735)" fill="url(#linear-gradient-3)"/>
    <path id="Path_308" data-name="Path 308" d="M923.184,643.3c6.109,17.568-1.022,46.084-4.336,58.843s-4.328,28.012-4.328,28.012a58.993,58.993,0,0,1-22.407-.511l5.35-26.224c-3.825-15.531,0-57.039,0-57.039s-8.656-16.042-9.423-40.486c-.774-24.056-6.682-31.837-6.868-32.077h0c-12.218,6.364-27.749,74.607-27.749,74.607,1.27,16.546-.263,42.011-5.35,55.746a68.908,68.908,0,0,0-3.817,27.238c-1.781,1.549-4.258,1.765-6.968,1.332-7.27-1.177-15.988-7.441-15.988-7.441s2.8-74.328,4.839-77.147,0-18.845,0-18.845l3.306-25.969s-.511-44.055,4.328-51.689c4.181-6.6,5.141-18.195,5.327-21.238v-.774l7.371-8.826s71.293-5.35,76.651,0c1.309,1.308,2.122,4.3,2.6,8.052,1.471,11.552-.217,30.389-.217,30.389s-2.137,14.006-5.2,28.26a62.032,62.032,0,0,0,0,25.976A77.758,77.758,0,0,0,923.184,643.3Z" transform="translate(-209.535 -132.629)" fill="#65617d"/>
    <path id="Path_309" data-name="Path 309" d="M939.292,814.73c-3.182,4.2-21.9,2.423-25.086,1.115-1.943-.774-1.8-4.467-1.27-8.238.333-2.392.821-4.839,1.022-6.62.5-4.583-1.549-13.882-1.549-13.882s4.2,4.46,5.211,0a4.856,4.856,0,0,1,3.639-3.453,9.508,9.508,0,0,1,6.612.41c3.306,1.44,8.819,4.5,7.835,8.633-1.4,5.846,3.562,14.146,3.562,14.146a6.44,6.44,0,0,1,.929,1.595,6.109,6.109,0,0,1-.906,6.295Z" transform="translate(-230.103 -192.408)" fill="#a27772"/>
    <path id="Path_310" data-name="Path 310" d="M939.346,821.833c-3.182,4.2-21.9,2.423-25.086,1.115-1.943-.774-1.8-4.467-1.27-8.238,2.013.945,5.42,1.727,11.126,1.2a31.378,31.378,0,0,1,4-.124,93.1,93.1,0,0,0,12.156-.248A6.109,6.109,0,0,1,939.346,821.833Z" transform="translate(-230.156 -199.511)" opacity="0.1"/>
    <path id="Path_311" data-name="Path 311" d="M858.075,663.1c1.27,16.546-.263,42.011-5.35,55.746a68.908,68.908,0,0,0-3.817,27.238c-1.781,1.549-4.258,1.765-6.968,1.332,1.549-10.739,8.083-57.008,12.272-93.568,4.777-41.632,27.1-70.271,27.1-70.271l4.452,4.9C873.607,594.861,858.075,663.1,858.075,663.1Z" transform="translate(-214.194 -147.334)" opacity="0.1"/>
    <path id="Path_312" data-name="Path 312" d="M922.13,331.742l-3.1,15.276L903.8,372.607l-18.776-8.021s-25.55-26.735-9.485-30.552a14.215,14.215,0,0,0,5.327-2.369c3.151-2.377,4.142-5.83,4.158-9.214a28.245,28.245,0,0,0-2.586-10.948l32.844-10.313a52.728,52.728,0,0,0-2.323,13.3c-.255,8.95,3.1,13.356,5.8,15.485A9.865,9.865,0,0,0,922.13,331.742Z" transform="translate(-220.583 -83.585)" fill="#fbbebe"/>
    <path id="Path_313" data-name="Path 313" d="M918.813,301.19a52.717,52.717,0,0,0-2.323,13.3,24.964,24.964,0,0,1-1.912,2.036,25.984,25.984,0,0,1-25.968,5.923A28.244,28.244,0,0,0,886,311.5Z" transform="translate(-224.141 -83.585)" opacity="0.1"/>
    <path id="Path_314" data-name="Path 314" d="M918.1,288.188a25.853,25.853,0,1,1-7.574-18.4,25.976,25.976,0,0,1,7.574,18.4Z" transform="translate(-219.66 -74.788)" fill="#fbbebe"/>
    <path id="Path_315" data-name="Path 315" d="M922.13,340.129l-3.1,15.276L903.8,380.994l-18.776-8.021s-25.55-26.735-9.485-30.552a14.215,14.215,0,0,0,5.327-2.369c-2.9,7.959,9.059,24.521,9.059,24.521,1.394,2.052,4.584.774,4.584.774,7.7-1.169,21.88-23.32,24.2-27.006a9.864,9.864,0,0,0,3.422,1.789Z" transform="translate(-220.583 -91.972)" opacity="0.1"/>
    <path id="Path_316" data-name="Path 316" d="M930.984,528.88c-4.522,1.03-29.538,6.566-39.022,5.18-10.437-1.549-30.73-2.54-30.73-2.54s-12.922.7-16.9-1.123v-.774L851.7,520.8s71.293-5.35,76.651,0C929.691,522.136,930.5,525.125,930.984,528.88Z" transform="translate(-214.734 -132.624)" opacity="0.1"/>
    <path id="Path_317" data-name="Path 317" d="M878.908,365.408s-13.433-18.582-8.37-25.86l-22.693,9.291s-13.658-1.657-18.582,18.729a35.465,35.465,0,0,0-.844,10.344c.186,3.1-.232,8.517-3.74,15.485-5.6,11.2-4.328,36.924,7.131,39.487s15.524,1.27,15.524,1.27-1.549,46.595-8.145,51.945,16.879,4.073,16.879,4.073,20.293,1.022,30.738,2.547,39.719-5.35,39.719-5.35-4.328-19.6-5.861-32.077-5.1-39.046-5.1-39.046l25.968-35.182s4.583-21.261-11.459-30.684S908,338.65,908,338.65s-16.12,26.247-24.521,27.517C883.492,366.167,880.3,367.452,878.908,365.408Z" transform="translate(-209.57 -92.042)" fill="#eb3f43"/>
    <path id="Path_318" data-name="Path 318" d="M855.918,382.74s-.248,8.408,1.278,11.714,7.131,21.679,7.131,21.679H851.59s6.875-7.386,6.372-10.956S855.918,382.74,855.918,382.74Z" transform="translate(-216.373 -101.995)" opacity="0.1"/>
    <path id="Path_319" data-name="Path 319" d="M894.029,454.225s-28.121-6.875-30.738-12.729-9.841-18.961-9.841-18.961l2.965-4,13.673,10.731s16.259,12.984,23.94,14.262S894.029,454.225,894.029,454.225Z" transform="translate(-216.793 -110.077)" fill="#fbbebe"/>
    <path id="Path_320" data-name="Path 320" d="M894.029,454.225s-28.121-6.875-30.738-12.729-9.841-18.961-9.841-18.961l2.965-4,13.673,10.731s16.259,12.984,23.94,14.262S894.029,454.225,894.029,454.225Z" transform="translate(-216.793 -110.077)" opacity="0.05"/>
    <path id="Path_321" data-name="Path 321" d="M922.449,421.831v15.253H920a71.3,71.3,0,0,0-34.637,8.973l-4.587,2.54-1.231.689-7.9-17.808,7.386-6.62h.379c1.8.178,9.616.828,12.93-.286,3.143-1.068,7.046-4.452,16.306-2.09,4.56,1.169,8.463,6.279,12.884,4.684Z" transform="translate(-220.901 -110.781)" fill="#fbbebe"/>
    <path id="Path_322" data-name="Path 322" d="M952.834,380.954l5.087,5.729v13.882s-4.328,43.792-18.071,48.631-38.294-2.8-38.294-2.8-6.341-16.8-3.376-17.808,26.208-7.154,26.208-7.154-.325-25.69,4.762-33.332c0,0-3.306-23.932,8.153-24.443S952.834,380.954,952.834,380.954Z" transform="translate(-226.712 -97.685)" opacity="0.1"/>
    <path id="Path_323" data-name="Path 323" d="M953.835,380.954l5.095,5.729v13.882S954.6,444.357,940.851,449.2s-38.295-2.8-38.295-2.8-6.341-16.8-3.368-17.808,26.208-7.154,26.208-7.154-.333-25.69,4.762-33.332c0,0-3.314-23.932,8.145-24.443S953.835,380.954,953.835,380.954Z" transform="translate(-226.939 -97.685)" fill="#eb3f43"/>
    <path id="Path_324" data-name="Path 324" d="M912.528,299.187a10.234,10.234,0,0,0-.581-4.963,3.778,3.778,0,0,0-4.042-2.323c-2.176.511-3.1,3.345-5.25,4.026-1.8.573-3.771-.7-4.646-2.385a11.879,11.879,0,0,1-.883-5.544v-6.38c0-2.323-.077-4.816-1.5-6.635-1.773-2.261-5.946-3.252-8.734-3.159a7.41,7.41,0,0,0-4.986,2.005,6.417,6.417,0,0,1-5.242,1.866,4.514,4.514,0,0,1-3.654-3.159v-.077a25.968,25.968,0,1,1,38.6,34.47A70,70,0,0,0,912.528,299.187Z" transform="translate(-221.208 -74.761)" opacity="0.1"/>
    <path id="Path_325" data-name="Path 325" d="M874.7,270.351a4.553,4.553,0,0,1-3.662-3.167c-.209-.821-.155-1.7-.395-2.509-.6-2.005-2.733-3.043-4.165-4.568-2.865-3.043-2.679-8.044-.65-11.707,1.641-2.95,4.816-5.42,8.145-4.862,2.06.356,3.871,1.82,5.931,1.959s3.871-1,5.675-1.835a21.384,21.384,0,0,1,14.107-1.254,8.129,8.129,0,0,1,3.871,1.959,33.85,33.85,0,0,1,2.067,2.9c2.369,3.02,6.62,3.616,10.406,4.3s8.068,2.183,9.291,5.822c.828,2.416,0,5.033-.449,7.541a2.276,2.276,0,0,0,.1,1.548c.6.976,2.075.565,3.19.774,2.145.457,2.694,3.221,2.78,5.42q.132,3.763.2,7.533a9.591,9.591,0,0,1-.225,2.787,9.841,9.841,0,0,1-2.16,3.507l-8.408,10.1c-3.732,4.475-7.688,9.694-6.968,15.485-1.765.774-3.871-.736-4.444-2.586s-.116-3.871.279-5.737a70.335,70.335,0,0,0,1.347-9.949,10.205,10.205,0,0,0-.581-4.955,3.778,3.778,0,0,0-4.042-2.323c-2.183.511-3.1,3.345-5.249,4.026-1.8.573-3.771-.7-4.646-2.385a11.846,11.846,0,0,1-.883-5.536v-6.388c0-2.323-.077-4.816-1.5-6.635-1.773-2.261-5.946-3.252-8.734-3.159a7.41,7.41,0,0,0-4.979,2.005A6.429,6.429,0,0,1,874.7,270.351Z" transform="translate(-219.245 -70.167)" fill="#7c5c5c"/>
    <path id="Path_326" data-name="Path 326" d="M885.3,381.92l7.975,32.759S899.562,414.64,885.3,381.92Z" transform="translate(-223.983 -101.81)" opacity="0.1"/>
    <path id="Path_327" data-name="Path 327" d="M918.359,374.85s-10.437,17.1-6.364,34.779l1.943.139S910.47,401.585,918.359,374.85Z" transform="translate(-229.796 -100.214)" opacity="0.1"/>
    <path id="Path_328" data-name="Path 328" d="M929,499.555s12.822-4.243,13.751,5.6C942.782,505.153,940.366,498.409,929,499.555Z" transform="translate(-233.848 -128.16)" opacity="0.1"/>
    <path id="Path_329" data-name="Path 329" d="M874.8,426.81s-2.547,17.808,2.036,24.954a55.843,55.843,0,0,1-22.407,3.058L852.88,426.81Z" transform="translate(-216.664 -111.944)" opacity="0.1"/>
    <path id="Path_330" data-name="Path 330" d="M880.778,449.529l-1.231.689-7.9-17.808,7.386-6.62h.379C879.3,426.673,877.24,441.98,880.778,449.529Z" transform="translate(-220.901 -111.714)" opacity="0.1"/>
    <path id="Path_331" data-name="Path 331" d="M872.652,425.83s-2.547,17.808,2.036,24.946a55.68,55.68,0,0,1-22.407,3.058l-8.912-28Z" transform="translate(-214.517 -111.722)" fill="#eb3f43"/>
    <path id="Path_332" data-name="Path 332" d="M835.146,803.7a5.768,5.768,0,0,1-4.948,5.048c-6.914,1.03-23.568,3.662-27.772,5.668-5.35,2.547-26.479.774-27.5-1.781a4.042,4.042,0,0,1,.364-3.1,8.161,8.161,0,0,1,3.414-3.67,9.064,9.064,0,0,1,1.549-.681c3.98-1.324,11.5-4.142,13.526-7.1,0,0,9.376-8.2,12.047-12.628a6.117,6.117,0,0,1,4.893-3.051c2.23-.1,4.715,1.022,5.737,5.907,0,0,12.21,6.968,15.485.859,0,0,.511,9.384,2.54,11.954h0a3.407,3.407,0,0,1,.666,2.57Z" transform="translate(-199.03 -192.218)" fill="#a27772"/>
    <path id="Path_333" data-name="Path 333" d="M835.146,809.161a5.768,5.768,0,0,1-4.948,5.048c-6.914,1.03-23.568,3.662-27.772,5.668-5.35,2.547-26.479.774-27.5-1.781a4.042,4.042,0,0,1,.364-3.1,8.16,8.16,0,0,1,3.414-3.67c3.445,2.323,11.1,4.522,27.92,1.9,16.05-2.509,24-4.963,27.873-6.635h0a3.407,3.407,0,0,1,.65,2.57Z" transform="translate(-199.03 -197.678)" opacity="0.1"/>
    <g id="Group_86" data-name="Group 86" transform="translate(645.047 183.623)" opacity="0.1">
      <path id="Path_334" data-name="Path 334" d="M942.459,270.428V270.3a22.8,22.8,0,0,0,.774-5.784,38.173,38.173,0,0,1-.774,4.646A2.819,2.819,0,0,0,942.459,270.428Z" transform="translate(-881.917 -258.93)"/>
      <path id="Path_335" data-name="Path 335" d="M909.97,292.629a7.362,7.362,0,0,1,.627,2.911,8.78,8.78,0,0,0-.627-4.057,3.764,3.764,0,0,0-4.034-2.323c-2.183.511-3.1,3.345-5.257,4.026-1.8.573-3.763-.7-4.646-2.385a11.78,11.78,0,0,1-.883-5.544v-6.38c0-2.323-.077-4.816-1.5-6.635-1.781-2.269-5.946-3.252-8.734-3.167a7.417,7.417,0,0,0-4.986,2.013,6.433,6.433,0,0,1-5.249,1.866,4.537,4.537,0,0,1-3.655-3.159c-.209-.821-.155-1.7-.395-2.516-.6-2-2.733-3.043-4.166-4.56a8.339,8.339,0,0,1-2.145-5.42,8.679,8.679,0,0,0,2.145,6.527c1.432,1.549,3.569,2.563,4.166,4.56.24.774.186,1.7.395,2.516a4.537,4.537,0,0,0,3.654,3.159,6.433,6.433,0,0,0,5.249-1.866,7.417,7.417,0,0,1,4.986-2.013c2.787-.085,6.968.9,8.734,3.167,1.425,1.819,1.494,4.32,1.5,6.635v6.38a11.717,11.717,0,0,0,.883,5.536c.883,1.665,2.826,2.965,4.646,2.392,2.137-.681,3.1-3.515,5.257-4.026A3.911,3.911,0,0,1,909.97,292.629Z" transform="translate(-864.285 -257.3)"/>
      <path id="Path_336" data-name="Path 336" d="M945.2,293.4a9.785,9.785,0,0,1-2.168,3.5L934.623,307c-3.538,4.251-7.278,9.175-6.968,14.6.255-4.978,3.724-9.508,6.968-13.457l8.408-10.1a9.785,9.785,0,0,0,2.168-3.5,9.659,9.659,0,0,0,.225-2.8,7.351,7.351,0,0,1-.225,1.649Z" transform="translate(-878.587 -265.077)"/>
      <path id="Path_337" data-name="Path 337" d="M921.919,327.713a5.961,5.961,0,0,1-.255-1.363,6.865,6.865,0,0,0,.255,2.509c.573,1.843,2.671,3.368,4.444,2.578a10.821,10.821,0,0,1-.093-1.115C924.5,331.027,922.461,329.524,921.919,327.713Z" transform="translate(-877.233 -272.888)"/>
    </g>
    <path id="Path_338" data-name="Path 338" d="M812.69,789.36s2.663,4.646,12.311.557" transform="translate(-207.591 -193.788)" opacity="0.1"/>
    <path id="Path_339" data-name="Path 339" d="M918,790.82s8.315,9.794,18.8,3.213" transform="translate(-231.365 -194.118)" opacity="0.1"/>
    <path id="Path_340" data-name="Path 340" d="M947.49,641.23s-5.877,3.67-6.062,5.768,3.035-1.548,3.035-1.548Z" transform="translate(-236.652 -160.348)" opacity="0.1"/>
    <path id="Path_341" data-name="Path 341" d="M949.184,677.59a12.287,12.287,0,0,1-7.239,2.826c-4.4.193-4.026,5.923-1.154,4.2S949.184,677.59,949.184,677.59Z" transform="translate(-236.022 -168.557)" opacity="0.1"/>
    <path id="Path_342" data-name="Path 342" d="M952.21,682.34s-2.818,13.851-5.11,11.18" transform="translate(-237.934 -169.629)" opacity="0.1"/>
    <path id="Path_343" data-name="Path 343" d="M248.007,684.014s17.692,4.855,26.208-1.6,12.21-4.382,12.21-4.382,20.309-1.123,21.981-5.923-7.789-22.237-7.789-22.237c-.674-1.549-1.657-3.515-2.1-3.515l.093-7.355h0l2.942-30.777c6.79-17.413.124-39.913.124-39.913l-1.216-5.582a14.123,14.123,0,0,1,1.154-9.291L313.95,528.66a37.081,37.081,0,0,1,2.323-4.754c.774-1.417,1.8-3.167,3.1-5.265.379-.6.774-1.231,1.208-1.889,1.494-2.323,3.306-4.955,5.5-7.99,5.458-7.564,8.331-17.034,9.818-24l.658,2.183h.147l.178.039h.294l.317.054h.116l3.794,48.282c.232,18.83,7.146,29.251,7.146,29.251l-.952,41.57c1.3,10.011-1.549,23.359-2.857,28.686l-2.989,6.744a8.106,8.106,0,0,0-4.405,6.132c-.588,4.978-5.83,15.71-5.83,15.71-2.029,2.571-6.434,9.516-6.434,9.516s-2.075,6.705-.79,9.214,12.032,2.253,12.032,2.253c12.272,2.718,21.679-3.871,21.083-8.408s1.912-5.691,1.912-5.691c4.878-1.549,4.405-4.855,4.405-4.855a30.381,30.381,0,0,0-3.693-19.774l-.774,1.789a27.23,27.23,0,0,1,1.471-10.553l-.449.31-.139.085h-.046c.774-6.79,7.905-19.356,7.905-19.356,13.1-22.98,8.339-54.12,8.339-54.12L374.3,554.11l-.116-3.662a122.228,122.228,0,0,1,1.974-26.092c.7-3.809,1.432-8.408,1.99-13.48,1.177-10.716,4.971-21.772,6.721-26.456l.519-.093h.062c.712-.124,1.432-.248,2.16-.387h.139s.418-2.261.774-6.109c.209-2.454.379-5.567.379-9.144a102.876,102.876,0,0,0-4.886-31.83l.395-.565s.937-1.27,2.648-3.469h0c3.143-4,8.037-10.065,14.068-16.91,10.8-12.318,7.626-24.776,7.626-24.776s-7.82-28.655-11.3-45.859a52.152,52.152,0,0,0-8.579-20.4,40.6,40.6,0,0,0,1.084-8.269c.232-5.095.054-10.406-2.238-14.982s-7.17-8.192-12.264-7.58a4.692,4.692,0,0,1-2.2,0,3.345,3.345,0,0,1-1.448-1.262c-2.981-4.111-3.174-9.639-2.245-14.626S372.4,268.4,373.25,263.4s.465-10.553-2.718-14.517c-3.74-4.646-10.259-5.954-15.121-9.446-3.414-2.454-5.977-5.977-9.577-8.153s-6.968-1.347-10.878-.526c-6.573,1.386-12.822,2.021-19.039,4.847a50.705,50.705,0,0,0-16.592,12.071,15.748,15.748,0,0,0-3.7,5.838c-1.549,5.118,1.479,10.569.844,15.864-.449,3.755-2.663,7.022-4.421,10.375s-3.1,7.332-1.719,10.84c2.168,5.482,9.237,6.643,14.378,9.562a4.39,4.39,0,0,1,1.7,1.479c1.27,2.214-1.324,4.514-2.958,6.48a9.763,9.763,0,0,0-1.936,3.933,14.029,14.029,0,0,0-8.416,10.158c-1.742,7.8.937,17.637,3.3,24.141-2.578,14.486.774,20.2,3.244,22.391a12.427,12.427,0,0,1,4.3,8.47v.271c.163,2.632.441,5.257.813,7.874h0c-.085-.612-.17-1.262-.217-1.549-2.021,3.74-5.869,13.294-8.037,29.367a88.259,88.259,0,0,1-1.959,10.228,55.931,55.931,0,0,0-1.641,18.288l.387,5.211a1.641,1.641,0,0,1-1.053-.348l2.718,4.978v8.4a30.971,30.971,0,0,1-2.059,11.08c-.194.511-.4,1.022-.627,1.548a9.012,9.012,0,0,0-.914,4.56c-5.846,8.958-19.248,59.161-19.248,59.161-7.27,16.461.6,27.1.6,27.1s3.809,45.828,4.522,48.2,2.292,30.3,2.292,30.3h0V644.1a5.212,5.212,0,0,0-1.324-.379c-6.372-.356-8.1,9.709-8.1,9.709l-13.038,12.45s-5.954-1.007-14.711,5.567S248.007,684.014,248.007,684.014ZM378.2,419.15l-.039-.139-.356.209h0l-.147.085-.07.046h0l-6.008-21.207a35.213,35.213,0,0,1-.441-17.444l4.646-20.347h0v-4.893l14.765,39.348C391.491,400.111,382.719,412.956,378.2,419.15Z" transform="translate(-78.201 -67.491)" fill="url(#linear-gradient-4)"/>
    <path id="Path_344" data-name="Path 344" d="M413.15,557s-5.962,14.5-7.479,28.415c-.55,5.017-1.262,9.554-1.959,13.317a121.7,121.7,0,0,0-1.9,25.759l.116,3.616,1.936,9.577s4.646,30.761-8.184,53.424c0,0-7.6,13.573-7.835,20l-5.149,1.99-10.406-2.919s5.025-18.017,3.391-30.645l.937-41.035s-6.759-10.267-6.991-28.849l-3.972-50.992Z" transform="translate(-106.673 -141.334)" fill="#fdc2cc"/>
    <path id="Path_345" data-name="Path 345" d="M346.078,547.62S344.8,567.5,334.968,581.207s-11.923,19.651-11.923,19.651L310.935,625.34A14.022,14.022,0,0,0,309.8,634.5l1.192,5.513s6.55,22.221-.116,39.417l-3.159,33.216H289.24s-1.548-27.6-2.222-29.94-4.444-47.6-4.444-47.6-7.743-10.53-.588-26.781c0,0,16.143-60.818,20.464-59.765S346.078,547.62,346.078,547.62Z" transform="translate(-87.101 -139.216)" fill="#fdc2cc"/>
    <g id="Group_87" data-name="Group 87" transform="translate(218.739 408.404)" opacity="0.1">
      <path id="Path_346" data-name="Path 346" d="M316.955,640.05l-1.185-5.513a13.937,13.937,0,0,1,1.13-9.2l12.109-24.505s2.1-5.962,11.923-19.651c9.438-13.162,10.994-32.023,11.1-33.471l1.881-.093s-1.277,19.883-11.111,33.587-11.923,19.651-11.923,19.651L318.775,625.34a14.022,14.022,0,0,0-1.138,9.159l1.192,5.513s6.55,22.221-.116,39.417l-3.159,33.216H313.68l3.159-33.216C323.505,662.233,316.955,640.05,316.955,640.05Z" transform="translate(-313.68 -547.62)"/>
    </g>
    <path id="Path_347" data-name="Path 347" d="M390.65,711.13c.232-6.426,7.835-20,7.835-20,12.868-22.686,8.184-53.423,8.184-53.423l-1.982-9.585-.116-3.616a121.7,121.7,0,0,1,1.9-25.759c.689-3.763,1.4-8.3,1.951-13.317,1.463-13.395,7.046-27.331,7.456-28.353L417.8,557s-5.962,14.5-7.479,28.415c-.55,5.017-1.262,9.554-1.959,13.317a121.7,121.7,0,0,0-1.9,25.759l.116,3.616,1.936,9.577s4.646,30.761-8.184,53.424c0,0-7.6,13.573-7.835,20l-5.149,1.99-1.084-.3Z" transform="translate(-111.326 -141.334)" opacity="0.1"/>
    <path id="Path_348" data-name="Path 348" d="M380.781,754.892a8.95,8.95,0,0,0,8.517-1.053,27.486,27.486,0,0,0-.7,15.439c2.106,8.424-19.651-6.783-19.651-6.783L373.6,751.88S375.4,755.24,380.781,754.892Z" transform="translate(-107.418 -185.327)" fill="#d39999"/>
    <path id="Path_349" data-name="Path 349" d="M382.4,755.357a8.7,8.7,0,0,0,6.914-1.548,27.486,27.486,0,0,0-.7,15.439c2.106,8.424-19.651-6.782-19.651-6.782l4.646-10.615a6.638,6.638,0,0,0,5.3,2.989C380.119,754.978,381.265,755.141,382.4,755.357Z" transform="translate(-107.423 -185.321)" opacity="0.1"/>
    <path id="Path_350" data-name="Path 350" d="M289.32,466.106h9.09V414.533l-6.821-1.223Z" transform="translate(-65.316 -93.303)" fill="#fdc2cc"/>
    <path id="Path_351" data-name="Path 351" d="M289.32,466.106h9.09V414.533l-6.821-1.223Z" transform="translate(-65.316 -93.303)" opacity="0.05"/>
    <path id="Path_352" data-name="Path 352" d="M371.007,760.64s5.729-.356,8.3,4.793l3.159,2.454,1.549-3.624a30.2,30.2,0,0,1,3.577,19.534s.465,3.267-4.328,4.793c0,0-2.454,1.169-1.874,5.613s-8.648,10.994-20.7,8.3c0,0-10.53.24-11.815-2.222s.821-9,.821-9,4.328-6.86,6.31-9.392c0,0,5.149-10.607,5.737-15.485S367.964,757.946,371.007,760.64Z" transform="translate(-102.793 -187.096)" fill="#7e5659"/>
    <path id="Path_353" data-name="Path 353" d="M310.651,764.265l.093-7.27s-10.46,3.012-18.93-.395c0,0,.712,7.309-.465,8.308s3.918,10.406,3.918,10.406l5.691,5.962,9.787-3.562,2.656-8.362S311.348,764.265,310.651,764.265Z" transform="translate(-89.86 -186.393)" fill="#d39999"/>
    <path id="Path_354" data-name="Path 354" d="M310.651,764.265l.093-7.27s-10.46,3.012-18.93-.395c0,0,.712,7.309-.465,8.308s3.918,10.406,3.918,10.406l5.691,5.962,9.787-3.562,2.656-8.362S311.348,764.265,310.651,764.265Z" transform="translate(-89.86 -186.393)" opacity="0.1"/>
    <path id="Path_355" data-name="Path 355" d="M279.5,763.1s5.559.643,4.855,7.743.294,0,.294,0,5.908,2.392,8.014,5.729,5.908-2.981,6.194-4.793,2.656-2.563,2.656-2.563,9.291,17.227,7.65,21.966-21.586,5.83-21.586,5.83-3.631-2.044-11.993,4.328-25.728,1.548-25.728,1.548S235.7,796.979,244.3,790.5s14.44-5.5,14.44-5.5l12.806-12.342S273.243,762.741,279.5,763.1Z" transform="translate(-78.653 -187.857)" fill="#7e5659"/>
    <path id="Path_356" data-name="Path 356" d="M360.269,236.684c3.538,2.145,6.055,5.629,9.407,8.052,4.769,3.445,11.172,4.731,14.842,9.33,3.1,3.918,3.5,9.392,2.663,14.331s-2.71,9.655-3.616,14.579-.72,10.383,2.207,14.44a3.275,3.275,0,0,0,1.417,1.247,4.645,4.645,0,0,0,2.16,0c5-.6,9.8,2.973,12.047,7.487s2.423,9.763,2.191,14.8c-.194,4.127-.658,8.339-2.47,12.055-3.1,6.318-9.539,10.22-15.9,13.209a123.115,123.115,0,0,1-12.69,5.126c-2.973,1.007-6.109,1.912-9.2,1.386-5.288-.914-9.036-5.722-14.053-7.6-4.111-1.549-8.672-.991-13.046-.6-3.732.325-8,.317-10.569-2.408-3.3-3.5-1.812-9.144-.124-13.65a9.717,9.717,0,0,1-6.875-15.888c1.595-1.943,4.142-4.212,2.9-6.4a4.243,4.243,0,0,0-1.672-1.456c-5.04-2.88-11.985-4.034-14.107-9.438-1.363-3.476-.046-7.41,1.68-10.716s3.871-6.542,4.344-10.243c.619-5.234-2.323-10.615-.828-15.663a15.7,15.7,0,0,1,3.631-5.776,49.83,49.83,0,0,1,16.259-11.916c6.109-2.8,12.233-3.422,18.69-4.785C353.433,235.353,356.638,234.485,360.269,236.684Z" transform="translate(-93.031 -68.709)" fill="#865a61"/>
    <path id="Path_357" data-name="Path 357" d="M326.915,337.757s-14.811-.774-17.614,11.854,6.078,30.715,6.078,30.715Z" transform="translate(-93.829 -91.838)" fill="#fdc2cc"/>
    <path id="Path_358" data-name="Path 358" d="M326.915,337.757s-14.811-.774-17.614,11.854,6.078,30.715,6.078,30.715Z" transform="translate(-93.829 -91.838)" opacity="0.05"/>
    <path id="Path_359" data-name="Path 359" d="M320,366.413l5.613,4.444,26.193,1.169L368.159,360.8l16.631-28.539c-10.166-2.594-14.277-9.616-15.81-16.182a35.429,35.429,0,0,1-.325-13.518s-26.665-13.8-23.39,7.743a29.268,29.268,0,0,1,.248,8.006c-1.549,12.62-13.8,10.243-13.8,10.243l-4.7,7.247-5.381,17.808Z" transform="translate(-96.368 -82.912)" fill="#fdc2cc"/>
    <path id="Path_360" data-name="Path 360" d="M352.579,310.27a29.265,29.265,0,0,1,.248,8.006,23.638,23.638,0,0,0,23.468-2.2,35.429,35.429,0,0,1-.325-13.518S349.3,288.754,352.579,310.27Z" transform="translate(-103.659 -82.91)" opacity="0.1"/>
    <circle id="Ellipse_52" data-name="Ellipse 52" cx="23.622" cy="23.622" r="23.622" transform="translate(235.37 189.321)" fill="#fdc2cc"/>
    <path id="Path_361" data-name="Path 361" d="M336.96,370.628c.573,0,1.138.085,1.7.139,3.1.31,16.035,1.007,23.406-7.8,8.246-9.849,19.225-22.012,19.674-22.508l11.172,3.376s-8.842-3.144-14.711,13.3a17.034,17.034,0,0,0,5.753,19.6,17.7,17.7,0,0,0,7.309,3.1.039.039,0,0,1,0,.039v7.216h0L386.7,407.22a34.9,34.9,0,0,0,.434,17.227l6.968,24.629c-1.053.728-44.287,30.134-73.167,9.825h0c.108-.883,3.678-29.786,1.2-43.931a97.7,97.7,0,0,1-1.293-10.932v-.271a12.326,12.326,0,0,0-4.235-8.362c-2.6-2.323-6.124-8.517-2.64-24.884a60.129,60.129,0,0,1,3.871-11.792l9.686-21.888h0l8.927.178v.062c-.774.96-11.126,13.89-12.249,22.221C323.1,367.222,321.746,369.653,336.96,370.628Z" transform="translate(-94.676 -91.633)" fill="#eb3f43"/>
    <path id="Path_362" data-name="Path 362" d="M413.433,349.623s8.734,7.487,12.164,24.482,11.072,45.224,11.072,45.224,3.1,12.318-7.487,24.482-17.622,21.679-17.622,21.679l-6.968,10.267a8.741,8.741,0,0,1-5.017,3.546c-3.174.836-8.052,1.44-12.28-.875a7.154,7.154,0,0,1-3.1-9.036l1.549-3.585s-14.347,9.043-15.593,4.049,16.685-9.98,16.685-9.98,14.811-2.493,17.808-9.508c0,0,15.9-20.432,14.657-27.447L403.94,381.755s-19.209-2.54-12.659-24.118S413.433,349.623,413.433,349.623Z" transform="translate(-107.675 -93.569)" fill="#fdc2cc"/>
    <path id="Path_363" data-name="Path 363" d="M307.4,534.537s35.089,7.015,43.358,6.078l.89,2.965s13.317,2.981,43.428-1.8q2.95-.465,6.124-1.045l.7-.124s.41-2.23.736-6.031c.72-8.633.976-25.349-5.1-42.46l-5.064-15.593s-31.3,18.76-52.014,17.034c-1.85-.155-3.685-.3-5.536-.364-4.251-.163-10.84,0-15.121-3.43l-8.981,1.549v25.55A30.613,30.613,0,0,1,308.8,527.8c-.194.511-.395,1.014-.619,1.549A8.13,8.13,0,0,0,307.4,534.537Z" transform="translate(-93.494 -123.168)" fill="#65617d"/>
    <path id="Path_364" data-name="Path 364" d="M364.58,552.555v7.952s15.33,3.43,50.257-2.965c0,0,.41-2.23.736-6.031C404.857,553.229,375.3,557.363,364.58,552.555Z" transform="translate(-106.432 -140.094)" opacity="0.1"/>
    <path id="Path_365" data-name="Path 365" d="M307.4,549.5s35.089,7.015,43.358,6.078l.89,2.965v-7.952c-4,1.657-32.519-5.219-42.855-7.8-.194.511-.395,1.014-.619,1.549a8.129,8.129,0,0,0-.774,5.157Z" transform="translate(-93.495 -138.126)" opacity="0.1"/>
    <path id="Path_366" data-name="Path 366" d="M417.31,538.546l2.6,16.135q2.95-.465,6.124-1.045c-.813-4.715-2.586-15.485-2.1-17.274l-3.275-2.8Z" transform="translate(-118.335 -136.042)" fill="#65617d"/>
    <path id="Path_367" data-name="Path 367" d="M417.78,538.1l2.6,16.143q2.95-.472,6.124-1.045c-.813-4.715-2.586-15.485-2.1-17.274l-3.275-2.811Z" transform="translate(-118.441 -135.941)" opacity="0.1"/>
    <g id="Group_88" data-name="Group 88" transform="translate(224.801 353.339)" opacity="0.05">
      <path id="Path_368" data-name="Path 368" d="M341.8,497.414c-1.843-.155-3.685-.3-5.536-.364-4.135-.155-10.445,0-14.75-3.167l1.5-.263c4.3,3.414,10.84,3.267,15.121,3.43,1.85.062,3.685.209,5.536.364.6.054,1.223.085,1.85.1A34.736,34.736,0,0,1,341.8,497.414Z" transform="translate(-321.51 -480.365)"/>
      <path id="Path_369" data-name="Path 369" d="M409.588,541.777q2.95-.464,6.124-1.038l.712-.132s.41-2.23.728-6.031c.728-8.633.983-25.349-5.1-42.46l-4.769-14.711c1.014-.573,1.549-.906,1.549-.906l5.064,15.593c6.078,17.111,5.822,33.827,5.1,42.46-.325,3.8-.736,6.031-.736,6.031l-.7.132q-3.167.573-6.124,1.037a192.865,192.865,0,0,1-31.551,2.71A198.993,198.993,0,0,0,409.588,541.777Z" transform="translate(-334.687 -476.5)"/>
      <path id="Path_370" data-name="Path 370" d="M360.707,559.3v.085H359.7Q360.273,559.346,360.707,559.3Z" transform="translate(-330.131 -495.192)"/>
    </g>
    <ellipse id="Ellipse_53" data-name="Ellipse 53" cx="1.324" cy="2.725" rx="1.324" ry="2.725" transform="translate(302.01 400.065)" fill="#d39999"/>
    <path id="Path_371" data-name="Path 371" d="M312.725,460.636c2.137-15.872,5.908-25.3,7.9-29,.077.5.279,2.137.372,2.64.4,2.323.046,5.249.17,8.2l-1.982,35.894,2.656,11.227c2.493,8.888-6.744,1.866-6.744,1.866-1.912,4.212-5.42,3.747-5.42,3.747l-.48-6.442a55.638,55.638,0,0,1,1.61-18.063,86.076,86.076,0,0,0,1.92-10.073Z" transform="translate(-93.893 -113.034)" fill="#fdc2cc"/>
    <path id="Path_372" data-name="Path 372" d="M312.725,460.636c2.137-15.872,5.908-25.3,7.9-29,.077.5.279,2.137.372,2.64.4,2.323.046,5.249.17,8.2l-1.982,35.894,2.656,11.227c2.493,8.888-6.744,1.866-6.744,1.866-1.912,4.212-5.42,3.747-5.42,3.747l-.48-6.442a55.638,55.638,0,0,1,1.61-18.063,86.076,86.076,0,0,0,1.92-10.073Z" transform="translate(-93.893 -113.034)" opacity="0.05"/>
    <path id="Path_373" data-name="Path 373" d="M415.73,489.463c-1.68,2.176-2.6,3.422-2.6,3.422l-6.968,10.259a8.7,8.7,0,0,1-5.017,3.546c-3.174.836-8.052,1.448-12.28-.875a7.139,7.139,0,0,1-3.1-9.028l1.548-3.593s-14.347,9.043-15.593,4.057,16.685-9.98,16.685-9.98,14.811-2.493,17.808-9.516c0,0,1.293-1.657,3.1-4.2" transform="translate(-108.03 -122.497)" fill="#fdc2cc"/>
    <path id="Path_374" data-name="Path 374" d="M410.079,513s-16.964-1.649-22.337-11.35l-2.462,8.013s17.808,12.3,21.873,10.7Z" transform="translate(-111.105 -128.839)" fill="#65617d"/>
    <path id="Path_375" data-name="Path 375" d="M409.3,512.9s-16.956-1.649-22.337-11.358l-2.454,7.99s17.808,12.3,21.865,10.7Z" transform="translate(-110.931 -128.814)" opacity="0.1"/>
    <path id="Path_376" data-name="Path 376" d="M315.508,510.46s-5.939,2.106-7.108.937l2.671,4.917,5.048-3.871Z" transform="translate(-93.749 -130.827)" fill="#65617d"/>
    <path id="Path_377" data-name="Path 377" d="M315.508,510.46s-5.939,2.106-7.108.937l2.671,4.917,5.048-3.871Z" transform="translate(-93.749 -130.827)" opacity="0.1"/>
    <path id="Path_378" data-name="Path 378" d="M332.709,529.729V519.47l-2.439,10.507Z" transform="translate(-74.56 -117.268)" opacity="0.1"/>
    <path id="Path_379" data-name="Path 379" d="M380.025,272.583a9.111,9.111,0,0,1-6.364,3.352,50.145,50.145,0,0,1-7.394,0c-3.871-.062-7.99.534-11.157,2.811a28.368,28.368,0,0,0-5.118,5.42c-4.785,5.846-11.428,11.32-18.969,10.708a4.917,4.917,0,0,1-3.523-1.487,5.652,5.652,0,0,1-.9-3.205,73.275,73.275,0,0,1,.457-14.448,30.46,30.46,0,0,1,2.183-8.617,29.422,29.422,0,0,1,5.249-7.495,32.108,32.108,0,0,1,9.159-7.34A16.43,16.43,0,0,1,355.11,250.8c4.514,1.231,8.029,4.762,12.334,6.581C372.36,259.451,385.414,264.972,380.025,272.583Z" transform="translate(-97.821 -72.112)" opacity="0.1"/>
    <path id="Path_380" data-name="Path 380" d="M380.025,271.37a9.111,9.111,0,0,1-6.364,3.353,50.162,50.162,0,0,1-7.394,0c-3.871-.07-7.99.526-11.157,2.8a28.365,28.365,0,0,0-5.118,5.42c-4.785,5.846-11.428,11.32-18.969,10.708a4.885,4.885,0,0,1-3.523-1.487,5.629,5.629,0,0,1-.9-3.205,73.275,73.275,0,0,1,.457-14.448,30.461,30.461,0,0,1,2.183-8.617,29.221,29.221,0,0,1,5.249-7.487,32,32,0,0,1,9.159-7.348,16.43,16.43,0,0,1,11.459-1.479c4.514,1.231,8.029,4.762,12.334,6.581C372.36,258.239,385.414,263.744,380.025,271.37Z" transform="translate(-97.821 -71.837)" fill="#865a61"/>
    <path id="Path_381" data-name="Path 381" d="M292.1,473.47l-.062,2.826-.635-2.7Z" transform="translate(-65.786 -106.884)" fill="#fdc2cc"/>
    <path id="Path_382" data-name="Path 382" d="M292.1,473.47l-.062,2.826-.635-2.7Z" transform="translate(-65.786 -106.884)" opacity="0.05"/>
    <g id="Group_89" data-name="Group 89" transform="translate(281.844 252.508)" opacity="0.05">
      <path id="Path_383" data-name="Path 383" d="M399.362,356.351c-6.558,21.578,12.558,24.11,12.558,24.11l15.361,41.167c1.247,7.015-14.664,27.447-14.664,27.447-1.107,2.617-3.871,4.607-6.891,6.078a10.793,10.793,0,0,0,4.088-4.491s15.9-20.425,14.657-27.439L409.11,382.048s-19.109-2.532-12.558-24.11c2.191-7.208,5.42-10.491,8.687-11.668C402.985,348.082,400.918,351.217,399.362,356.351Z" transform="translate(-395.184 -346.27)"/>
    </g>
    <g id="Group_90" data-name="Group 90" transform="translate(217.885 245.199)" opacity="0.1">
      <path id="Path_384" data-name="Path 384" d="M401,384.61a16.135,16.135,0,0,0,3.1,2.934,17.6,17.6,0,0,0,7.309,3.1v.813a17.544,17.544,0,0,1-6.628-2.934A16.066,16.066,0,0,1,401,384.61Z" transform="translate(-332.539 -347.616)"/>
      <path id="Path_385" data-name="Path 385" d="M323.474,422.5v.271a100,100,0,0,0,1.332,10.971c2.323,13.348-.72,39.851-1.154,43.513-.248-.163-.5-.317-.774-.5.116-.883,3.685-29.786,1.208-43.923a98.107,98.107,0,0,1-1.293-10.932v-.271a11.947,11.947,0,0,0-2.083-5.923,12.04,12.04,0,0,1,2.764,6.79Z" transform="translate(-314.413 -354.637)"/>
      <path id="Path_386" data-name="Path 386" d="M335.892,337.891l-7.572-.147a.039.039,0,0,0-.039,0l-9.678,21.88a60.322,60.322,0,0,0-3.871,11.792c-2.818,13.24-1.045,19.836,1.107,23.1-2.423-2.857-4.924-9.368-1.8-24a59.685,59.685,0,0,1,3.833-11.8l9.748-21.88h0l8.927.178v.054C336.473,337.155,336.233,337.449,335.892,337.891Z" transform="translate(-312.577 -336.83)"/>
      <path id="Path_387" data-name="Path 387" d="M416.39,345.87l.132.039Z" transform="translate(-336.013 -338.871)"/>
      <path id="Path_388" data-name="Path 388" d="M393.758,344.771l-7.588-2.284h-.039c-.449.5-11.42,12.659-19.666,22.508-7.371,8.8-20.293,8.114-23.406,7.8-.565-.062-1.138-.108-1.7-.147-8.463-.542-11.792-1.548-12.907-3.685,1.587,1.549,5.079,2.323,12.2,2.756.573,0,1.138.085,1.7.139,3.1.31,16.035,1,23.406-7.8,8.246-9.856,19.225-22.02,19.674-22.515h0l11.041,3.345A6.9,6.9,0,0,0,393.758,344.771Z" transform="translate(-316.161 -337.896)"/>
    </g>
    <path id="Path_389" data-name="Path 389" d="M293.052,777.145s-10.685,2.919-12.752-1.665" transform="translate(-87.406 -190.655)" opacity="0.1"/>
    <path id="Path_390" data-name="Path 390" d="M379.933,774.29s-12.388,3.2-15.253-1.75" transform="translate(-106.454 -189.991)" opacity="0.1"/>
    <path id="Path_391" data-name="Path 391" d="M590.683,759.516c.178-1.549.434-3.1.712-4.646,1.223-6.69-.643-13.069-1.549-15.7h0c-.286-.813-.5-1.27-.5-1.27-4.932-1.347-24.373,13.735-31.458,19.418-2.454,0-5.118.108-8.029.3-1.27.093-2.54.124-3.809.1H541.41c-6.573-5.3-26.921-21.222-31.984-19.844,0,0-.209.457-.5,1.27h0a31.816,31.816,0,0,0-1.587,15.7c.279,1.548.534,3.1.712,4.646.379,3.4,1.8,9.926,6.968,14.331,1.107,8.052,5.249,18.636,8.439,25.063a17.949,17.949,0,0,0,1.084,3.538c-1.316,5.079-2.834,11.707-2.4,13.936,0,0-6.875-1.665-7.572,6.612v.255c-2.485,1.138-5.59,3.747-2.1,9.214a3.585,3.585,0,0,0,1.8,1.463c.619.217,1.223.217,1.161-.65l4.3,4.839s7.789.9,7.882-3.624l.457.07c1.045.155,2.137.286,3.26.4l.542,1.788s-5.846-.124-4.251,3.476c0,0,1.471,1.363,1.974.867,0,0-.774,2.361,2.276,2.361,0,0,3.275,1.734,4.553.5s3.925-3.1,4.173-3.871c.07-.209.1-2.044.116-4.583h.5c6.527.155,13.457-.054,19.759-.395h.511c0,2.749.039,4.777.108,4.994.255.774,2.911,2.609,4.181,3.871s4.545-.5,4.545-.5c3.035,0,2.276-2.361,2.276-2.361.511.5,1.982-.867,1.982-.867,1.595-3.6-4.258-3.476-4.258-3.476l.7-2.323,3.229-.271.511-.046c-.31,4.917,7.874,3.972,7.874,3.972l4.3-4.839c-.07.867.534.867,1.154.65a3.554,3.554,0,0,0,1.742-1.479c5.273-8.246-4.467-10-4.467-10a4.769,4.769,0,0,0-.921-.147,1.586,1.586,0,0,1,.039-.426h0a16.992,16.992,0,0,0,.062-3.267c-.364-1.494-2.764-3.871-5.8-4.22-1.982-.248-2.021-9.353-1.819-15.663a18.024,18.024,0,0,0,.31-3.593,18.953,18.953,0,0,0-.774-5.753c3.871-6.566,6.968-13.449,7.317-15.485C588.879,769.419,590.3,762.915,590.683,759.516Z" transform="translate(-138.569 -182.147)" fill="url(#linear-gradient-5)"/>
    <path id="Path_392" data-name="Path 392" d="M585.749,838.617h0c-.31,4.289-1.138,11.172-1.138,11.172s-3.445.418-8.772.9l-3.616.31c-2.772.225-5.884.441-9.175.627-6.078.333-12.752.542-19.047.387-3.143-.07-6.194-.232-9.02-.511-1.262-.124-2.485-.271-3.647-.441-7.216-1.076-12.388-3.136-12.829-6.752a20.9,20.9,0,0,1-.163-4.646c.674-8.13,7.293-6.488,7.293-6.488-.426-2.245,1.177-9.221,2.478-14.269.821-3.182,1.548-5.6,1.548-5.6l46.548-3.1h.155a2.276,2.276,0,0,1,2.276,2.392c-.279,5.582-.674,18.365,1.61,18.652,2.927.364,5.242,2.679,5.6,4.142A17.371,17.371,0,0,1,585.749,838.617Z" transform="translate(-141.129 -198.495)" fill="#eb3f43"/>
    <path id="Path_393" data-name="Path 393" d="M544.087,761.575S526.535,782.7,518.08,776.851c-.2-.139-.395-.279-.581-.426-5.683-4.3-7.177-11.242-7.572-14.765-.17-1.549-.418-3.043-.689-4.553a31.613,31.613,0,0,1,1.548-15.415h0c.279-.774.472-1.247.472-1.247C517.1,738.82,544.087,761.575,544.087,761.575Z" transform="translate(-139.001 -182.727)" fill="#eb3f43"/>
    <path id="Path_394" data-name="Path 394" d="M534.646,763.914s-5.528,3.871-13.325,10.236a28.167,28.167,0,0,1-3.871,2.663c-5.683-4.3-7.177-11.242-7.572-14.765-.17-1.548-.418-3.043-.689-4.553a31.613,31.613,0,0,1,1.548-15.415h0C521.669,742.839,534.646,763.914,534.646,763.914Z" transform="translate(-138.99 -183.115)" fill="#eb3f43"/>
    <path id="Path_395" data-name="Path 395" d="M534.646,763.914s-5.528,3.871-13.325,10.236a28.167,28.167,0,0,1-3.871,2.663c-5.683-4.3-7.177-11.242-7.572-14.765-.17-1.548-.418-3.043-.689-4.553a31.613,31.613,0,0,1,1.548-15.415h0C521.669,742.839,534.646,763.914,534.646,763.914Z" transform="translate(-138.99 -183.115)" fill="#fff" opacity="0.5"/>
    <path id="Path_396" data-name="Path 396" d="M530.4,764.193s-2.95,2.083-7.115,5.466a14.974,14.974,0,0,1-2.044,1.417A11.4,11.4,0,0,1,517.2,763.2c-.085-.821-.217-1.626-.364-2.439a16.925,16.925,0,0,1,.859-8.223h0C523.483,752.943,530.4,764.193,530.4,764.193Z" transform="translate(-140.765 -185.476)" opacity="0.1"/>
    <path id="Path_397" data-name="Path 397" d="M569.05,761.575S586.6,782.7,595.057,776.851c.194-.139.395-.279.581-.426,5.683-4.3,7.177-11.242,7.572-14.765.17-1.549.418-3.043.681-4.553a31.519,31.519,0,0,0-1.549-15.415h0c-.279-.774-.48-1.247-.48-1.247C596.033,738.82,569.05,761.575,569.05,761.575Z" transform="translate(-152.59 -182.727)" fill="#eb3f43"/>
    <path id="Path_398" data-name="Path 398" d="M581.22,763.914s5.536,3.871,13.333,10.236a28.157,28.157,0,0,0,3.833,2.663c5.683-4.3,7.177-11.242,7.572-14.765.17-1.548.418-3.043.681-4.553a31.519,31.519,0,0,0-1.549-15.415h0C594.212,742.839,581.22,763.914,581.22,763.914Z" transform="translate(-155.337 -183.115)" fill="#eb3f43"/>
    <path id="Path_399" data-name="Path 399" d="M581.22,763.914s5.536,3.871,13.333,10.236a28.157,28.157,0,0,0,3.833,2.663c5.683-4.3,7.177-11.242,7.572-14.765.17-1.548.418-3.043.681-4.553a31.519,31.519,0,0,0-1.549-15.415h0C594.212,742.839,581.22,763.914,581.22,763.914Z" transform="translate(-155.337 -183.115)" fill="#fff" opacity="0.5"/>
    <path id="Path_400" data-name="Path 400" d="M589.05,764.188s2.934,2.075,7.069,5.42a14.17,14.17,0,0,0,2.036,1.409c3.012-2.284,3.809-5.962,4.018-7.828.085-.774.217-1.618.364-2.423a16.956,16.956,0,0,0-.813-8.176h0C595.933,753.008,589.05,764.188,589.05,764.188Z" transform="translate(-157.105 -185.488)" opacity="0.1"/>
    <path id="Path_401" data-name="Path 401" d="M579.05,810.23a42.046,42.046,0,0,1-6.721,8.563c-6.968,6.194-37.056,3.732-39.007,3.414-.41-.07-1.262-1.285-2.323-3.26.821-3.182,1.549-5.6,1.549-5.6Z" transform="translate(-144 -198.5)" opacity="0.1"/>
    <path id="Path_402" data-name="Path 402" d="M552.429,765.381c-1.223.085-2.447.116-3.678.093-6.279-.108-27.432.17-29.778,8.71-2.764,10.065,9.593,37.017,11.536,37.342s32.023,2.764,39.015-3.414,16.089-25.55,15.6-27.308C585.125,780.8,593.8,762.517,552.429,765.381Z" transform="translate(-141.195 -188.306)" fill="#eb3f43"/>
    <path id="Path_403" data-name="Path 403" d="M554.252,786.51s-15.485-2.385-22.747,12.853a18.582,18.582,0,0,0,1.37,18.729c2.416,3.4,5.962,5.931,10.894,3.871C554.732,817.45,554.252,786.51,554.252,786.51Z" transform="translate(-143.684 -193.115)" opacity="0.1"/>
    <path id="Path_404" data-name="Path 404" d="M553.622,785.25s-15.485-2.385-22.748,12.853a18.582,18.582,0,0,0,1.37,18.729c2.416,3.4,5.962,5.931,10.894,3.871C554.1,816.19,553.622,785.25,553.622,785.25Z" transform="translate(-143.542 -192.83)" opacity="0.1"/>
    <path id="Path_405" data-name="Path 405" d="M553.622,785.88s-15.485-2.385-22.748,12.852a18.582,18.582,0,0,0,1.37,18.729c2.416,3.4,5.962,5.931,10.894,3.871C554.1,816.82,553.622,785.88,553.622,785.88Z" transform="translate(-143.542 -192.972)" fill="#eb3f43"/>
    <path id="Path_406" data-name="Path 406" d="M553.622,785.88s-15.485-2.385-22.748,12.852a18.582,18.582,0,0,0,1.37,18.729c2.416,3.4,5.962,5.931,10.894,3.871C554.1,816.82,553.622,785.88,553.622,785.88Z" transform="translate(-143.542 -192.972)" fill="#fff" opacity="0.5"/>
    <path id="Path_407" data-name="Path 407" d="M538.807,803.13s-2.114,1.951-1.3,2.439S538.807,803.13,538.807,803.13Z" transform="translate(-145.427 -196.897)" fill="#3f2b3b"/>
    <path id="Path_408" data-name="Path 408" d="M542,806.35s-1.154,2.547-.333,2.826,1.308-1.827,1.308-1.827Z" transform="translate(-146.341 -197.624)" fill="#3f2b3b"/>
    <path id="Path_409" data-name="Path 409" d="M535.444,811.32s-1.13,3,0,3S535.444,811.32,535.444,811.32Z" transform="translate(-144.89 -198.746)" fill="#3f2b3b"/>
    <path id="Path_410" data-name="Path 410" d="M533.78,821.71s2.261,5.776,8.145,5.366" transform="translate(-144.628 -201.091)" fill="none" stroke="#3f2b3b" stroke-miterlimit="10" stroke-width="1"/>
    <path id="Path_411" data-name="Path 411" d="M540.61,823.91s2.323,2.276,4.87.65" transform="translate(-146.17 -201.588)" fill="none" stroke="#3f2b3b" stroke-miterlimit="10" stroke-width="1"/>
    <path id="Path_412" data-name="Path 412" d="M564,786.51s15.485-2.385,22.747,12.853a18.582,18.582,0,0,1-1.37,18.729c-2.408,3.4-5.962,5.931-10.894,3.871C563.488,817.45,564,786.51,564,786.51Z" transform="translate(-151.449 -193.115)" opacity="0.1"/>
    <path id="Path_413" data-name="Path 413" d="M564.589,785.25s15.485-2.385,22.748,12.853a18.582,18.582,0,0,1-1.37,18.729c-2.408,3.4-5.962,5.931-10.894,3.871C564.132,816.19,564.589,785.25,564.589,785.25Z" transform="translate(-151.582 -192.83)" opacity="0.1"/>
    <path id="Path_414" data-name="Path 414" d="M564.589,785.88s15.485-2.385,22.748,12.852a18.582,18.582,0,0,1-1.37,18.729c-2.408,3.4-5.962,5.931-10.894,3.871C564.132,816.82,564.589,785.88,564.589,785.88Z" transform="translate(-151.582 -192.972)" fill="#eb3f43"/>
    <path id="Path_415" data-name="Path 415" d="M564.589,785.88s15.485-2.385,22.748,12.852a18.582,18.582,0,0,1-1.37,18.729c-2.408,3.4-5.962,5.931-10.894,3.871C564.132,816.82,564.589,785.88,564.589,785.88Z" transform="translate(-151.582 -192.972)" fill="#fff" opacity="0.5"/>
    <path id="Path_416" data-name="Path 416" d="M586.16,803.13s2.114,1.951,1.3,2.439S586.16,803.13,586.16,803.13Z" transform="translate(-156.453 -196.897)" fill="#3f2b3b"/>
    <path id="Path_417" data-name="Path 417" d="M582.935,806.35s1.154,2.547.333,2.826-1.308-1.827-1.308-1.827Z" transform="translate(-155.504 -197.624)" fill="#3f2b3b"/>
    <path id="Path_418" data-name="Path 418" d="M589.675,811.32s1.123,3,0,3S589.675,811.32,589.675,811.32Z" transform="translate(-157.133 -198.746)" fill="#3f2b3b"/>
    <path id="Path_419" data-name="Path 419" d="M589.245,821.71s-2.261,5.776-8.145,5.366" transform="translate(-155.31 -201.091)" fill="none" stroke="#3f2b3b" stroke-miterlimit="10" stroke-width="1"/>
    <path id="Path_420" data-name="Path 420" d="M583.378,823.91s-2.323,2.276-4.878.65" transform="translate(-154.723 -201.588)" fill="none" stroke="#3f2b3b" stroke-miterlimit="10" stroke-width="1"/>
    <path id="Path_421" data-name="Path 421" d="M553.2,842.462c.41-.077,8.13-3.414,16.089,0Z" transform="translate(-149.012 -205.43)" fill="#3f2b3b"/>
    <path id="Path_422" data-name="Path 422" d="M531.334,859.337c-7.216-1.076-12.388-3.136-12.829-6.751a20.9,20.9,0,0,1-.163-4.646,10.419,10.419,0,0,1,2.756-1.007c1.308-.364,2.927-.116,6.341.859s3.167,4.994,3.871,10.236a4.33,4.33,0,0,1,.023,1.308Z" transform="translate(-141.129 -206.749)" opacity="0.1"/>
    <path id="Path_423" data-name="Path 423" d="M519.6,847.585s-9.384,1.719-4.3,9.818a3.461,3.461,0,0,0,1.734,1.432c.6.209,1.169.209,1.107-.643l4.15,4.754s8.285.976,7.557-4.266-.488-9.291-3.871-10.236S520.919,847.221,519.6,847.585Z" transform="translate(-140.114 -206.898)" fill="#eb3f43"/>
    <path id="Path_424" data-name="Path 424" d="M524.18,854.67s1.99,4.545,4.754.728" transform="translate(-142.461 -208.532)" fill="none" stroke="#3f2b3b" stroke-miterlimit="10" stroke-width="1"/>
    <path id="Path_425" data-name="Path 425" d="M518.28,857s1.03,4.3,4.932,1.1" transform="translate(-141.129 -209.058)" fill="none" stroke="#3f2b3b" stroke-miterlimit="10" stroke-width="1"/>
    <path id="Path_426" data-name="Path 426" d="M602.524,846.877h0c-.31,4.289-1.138,11.172-1.138,11.172s-3.445.418-8.772.9a4.488,4.488,0,0,1,0-.9c.728-5.242.488-9.291,3.871-10.236C599.659,846.955,601.277,846.637,602.524,846.877Z" transform="translate(-157.904 -206.755)" opacity="0.1"/>
    <path id="Path_427" data-name="Path 427" d="M603.522,847.585s9.392,1.719,4.313,9.818a3.492,3.492,0,0,1-1.734,1.432c-.6.209-1.177.209-1.115-.643l-4.142,4.754s-8.292.976-7.557-4.266.488-9.291,3.871-10.236S602.221,847.221,603.522,847.585Z" transform="translate(-158.051 -206.898)" fill="#eb3f43"/>
    <path id="Path_428" data-name="Path 428" d="M602.254,854.67s-2,4.545-4.754.728" transform="translate(-159.013 -208.532)" fill="none" stroke="#3f2b3b" stroke-miterlimit="10" stroke-width="1"/>
    <path id="Path_429" data-name="Path 429" d="M608.1,857s-1.038,4.3-4.94,1.1" transform="translate(-160.29 -209.058)" fill="none" stroke="#3f2b3b" stroke-miterlimit="10" stroke-width="1"/>
    <path id="Path_430" data-name="Path 430" d="M547.976,859.09c-3.143-.07-6.194-.232-9.02-.511l-2.81-9.461a6.14,6.14,0,0,1-.256-1.727,6.024,6.024,0,0,1,12.04-.039C547.961,851.037,547.992,855.706,547.976,859.09Z" transform="translate(-145.104 -205.573)" opacity="0.1"/>
    <path id="Path_431" data-name="Path 431" d="M535.284,849.058l3.314,11.165s-5.637-.124-4.1,3.414c0,0,1.417,1.339,1.9.852,0,0-.736,2.323,2.191,2.323,0,0,3.159,1.711,4.382.488s3.786-3.051,4.034-3.778c.155-.48.108-9.818.054-16.259a6.008,6.008,0,0,0-6.016-5.962h0a6.016,6.016,0,0,0-5.768,7.758Z" transform="translate(-144.731 -205.514)" fill="#eb3f43"/>
    <path id="Path_432" data-name="Path 432" d="M540.921,869.47s-2.462,2.323-1.161,3.693" transform="translate(-145.892 -211.873)" fill="none" stroke="#3f2b3b" stroke-miterlimit="10" stroke-width="1"/>
    <path id="Path_433" data-name="Path 433" d="M539.336,867.56s-2.276.774-2.276,2.857" transform="translate(-145.368 -211.442)" fill="none" stroke="#3f2b3b" stroke-miterlimit="10" stroke-width="1"/>
    <path id="Path_434" data-name="Path 434" d="M588.2,847.33a6.127,6.127,0,0,1-.248,1.727l-2.625,8.958c-2.772.225-5.884.441-9.175.627,0-3.345,0-7.8.054-11.351a6.016,6.016,0,0,1,12.032.039Z" transform="translate(-154.193 -205.513)" opacity="0.1"/>
    <path id="Path_435" data-name="Path 435" d="M588.551,849.058l-3.314,11.165s5.644-.124,4.1,3.414c0,0-1.417,1.339-1.9.852,0,0,.728,2.323-2.2,2.323,0,0-3.159,1.711-4.382.488s-3.778-3.051-4.026-3.778c-.155-.48-.108-9.818-.054-16.259a6.008,6.008,0,0,1,6.016-5.962h0a6.016,6.016,0,0,1,5.76,7.758Z" transform="translate(-154.322 -205.514)" fill="#eb3f43"/>
    <path id="Path_436" data-name="Path 436" d="M586.23,869.47s2.462,2.323,1.161,3.693" transform="translate(-156.468 -211.873)" fill="none" stroke="#3f2b3b" stroke-miterlimit="10" stroke-width="1"/>
    <path id="Path_437" data-name="Path 437" d="M587.63,867.56s2.276.774,2.276,2.857" transform="translate(-156.784 -211.442)" fill="none" stroke="#3f2b3b" stroke-miterlimit="10" stroke-width="1"/>
    <path id="Path_438" data-name="Path 438" d="M557.369,782.769s-11.467-.364-11.831,8.517,17.916,5.118,17.916,5.118,7.681-1.03,6.341-6.426S565.661,783.257,557.369,782.769Z" transform="translate(-147.281 -192.3)" opacity="0.1"/>
    <path id="Path_439" data-name="Path 439" d="M557.369,781.509s-11.467-.364-11.831,8.517,17.916,5.118,17.916,5.118,7.681-1.03,6.341-6.426S565.661,782,557.369,781.509Z" transform="translate(-147.281 -192.016)" opacity="0.1"/>
    <path id="Path_440" data-name="Path 440" d="M557.369,782.139s-11.467-.364-11.831,8.517,17.916,5.118,17.916,5.118,7.681-1.03,6.341-6.426S565.661,782.627,557.369,782.139Z" transform="translate(-147.281 -192.158)" fill="#3f2b3b"/>
    <path id="Path_441" data-name="Path 441" d="M527.78,839.92s3.871,1.378,4.646,4.018" transform="translate(-143.273 -205.202)" opacity="0.1"/>
    <path id="Path_442" data-name="Path 442" d="M597.532,837.4s-2.749,1.154-2.555,5.97" transform="translate(-158.441 -204.633)" opacity="0.1"/>
    <ellipse id="Ellipse_54" data-name="Ellipse 54" cx="1.795" cy="2.976" rx="1.795" ry="2.976" transform="translate(383.096 653.16) rotate(-29.887)" fill="#eb3f43"/>
    <ellipse id="Ellipse_55" data-name="Ellipse 55" cx="2.965" cy="1.789" rx="2.965" ry="1.789" transform="translate(437.591 653.859) rotate(-60)" fill="#eb3f43"/>
    <ellipse id="Ellipse_56" data-name="Ellipse 56" cx="1.795" cy="2.976" rx="1.795" ry="2.976" transform="translate(383.096 653.16) rotate(-29.887)" fill="#fff" opacity="0.5"/>
    <ellipse id="Ellipse_57" data-name="Ellipse 57" cx="2.965" cy="1.789" rx="2.965" ry="1.789" transform="translate(437.591 653.859) rotate(-60)" fill="#fff" opacity="0.5"/>
    <ellipse id="Ellipse_58" data-name="Ellipse 58" cx="20.851" cy="3.523" rx="20.851" ry="3.523" transform="translate(128.268 550.89)" fill="#eb3f43" opacity="0.1"/>
    <ellipse id="Ellipse_59" data-name="Ellipse 59" cx="20.851" cy="3.523" rx="20.851" ry="3.523" transform="translate(46.127 600.852)" fill="#eb3f43" opacity="0.1"/>
    <ellipse id="Ellipse_60" data-name="Ellipse 60" cx="31.133" cy="5.265" rx="31.133" ry="5.265" transform="translate(14.135 554.412)" fill="#eb3f43"/>
    <path id="Path_443" data-name="Path 443" d="M72.105,727.7a9,9,0,0,1-2.973-4.475c-.379-1.781.379-3.91,2.075-4.56,1.9-.728,3.941.588,5.482,1.92s3.314,2.857,5.335,2.578a8.122,8.122,0,0,1-2.509-7.6,3.1,3.1,0,0,1,.7-1.548c1.053-1.13,2.973-.643,4.243.248,4.018,2.834,5.149,8.3,5.164,13.224.41-1.781.07-3.623.077-5.42s.511-3.871,2.044-4.816a6.193,6.193,0,0,1,3.1-.774c1.812-.062,3.825.116,5.064,1.44,1.549,1.641,1.138,4.406-.2,6.194s-3.368,2.942-5.234,4.2a11.551,11.551,0,0,0-3.747,3.569,3.651,3.651,0,0,0-.279.635H79.128a31.311,31.311,0,0,1-7.022-4.808Z" transform="translate(-39.713 -176.629)" fill="#eb3f43"/>
    <ellipse id="Ellipse_61" data-name="Ellipse 61" cx="20.851" cy="3.523" rx="20.851" ry="3.523" transform="translate(776.495 580.358)" fill="#eb3f43" opacity="0.1"/>
    <path id="Path_444" data-name="Path 444" d="M1042.91,751.237s11.893-.364,15.485-2.919,18.288-5.6,19.178-1.5,17.877,20.355,4.444,20.464-31.195-2.09-34.772-4.274S1042.91,751.237,1042.91,751.237Z" transform="translate(-259.563 -183.732)" fill="#a8a8a8"/>
    <path id="Path_445" data-name="Path 445" d="M1082.25,767.733c-13.426.108-31.195-2.091-34.772-4.274-2.725-1.657-3.809-7.611-4.173-10.359h-.395s.774,9.593,4.328,11.769,21.346,4.382,34.772,4.274c3.871,0,5.218-1.409,5.141-3.453C1086.617,766.959,1085.138,767.733,1082.25,767.733Z" transform="translate(-259.563 -185.603)" opacity="0.2"/>
  </g>
</svg>
