<svg xmlns="http://www.w3.org/2000/svg" width="868.133" height="526.684" viewBox="0 0 868.133 526.684">
  <g id="undraw_hire_te5y" transform="translate(0 -0.001)">
    <ellipse id="Ellipse_24" data-name="Ellipse 24" cx="316.029" cy="28.435" rx="316.029" ry="28.435" transform="translate(236.074 469.816)" fill="#3f3d56"/>
    <rect id="Rectangle_167" data-name="Rectangle 167" width="343.027" height="232.334" transform="translate(740.659 232.334) rotate(180)" fill="#3f3d56" opacity="0.3"/>
    <rect id="Rectangle_168" data-name="Rectangle 168" width="101.57" height="110.693" transform="translate(617.194 21.287)" fill="#f2f2f2"/>
    <rect id="Rectangle_169" data-name="Rectangle 169" width="97.92" height="6.69" transform="translate(554.549 27.977) rotate(180)" fill="#f2f2f2"/>
    <rect id="Rectangle_170" data-name="Rectangle 170" width="34.668" height="6.69" transform="translate(651.861 155.7) rotate(180)" fill="#f2f2f2"/>
    <rect id="Rectangle_171" data-name="Rectangle 171" width="99.137" height="6.69" transform="translate(717.547 167.864) rotate(180)" fill="#f2f2f2"/>
    <rect id="Rectangle_172" data-name="Rectangle 172" width="141.103" height="6.69" transform="translate(577.661 52.306) rotate(180)" fill="#f2f2f2"/>
    <rect id="Rectangle_173" data-name="Rectangle 173" width="141.103" height="6.69" transform="translate(577.661 71.16) rotate(180)" fill="#f2f2f2"/>
    <rect id="Rectangle_174" data-name="Rectangle 174" width="141.103" height="6.69" transform="translate(577.661 90.015) rotate(180)" fill="#f2f2f2"/>
    <rect id="Rectangle_175" data-name="Rectangle 175" width="141.103" height="6.69" transform="translate(577.661 108.869) rotate(180)" fill="#f2f2f2"/>
    <rect id="Rectangle_176" data-name="Rectangle 176" width="141.103" height="6.69" transform="translate(577.661 127.723) rotate(180)" fill="#f2f2f2"/>
    <rect id="Rectangle_177" data-name="Rectangle 177" width="141.103" height="6.69" transform="translate(577.661 146.577) rotate(180)" fill="#f2f2f2"/>
    <rect id="Rectangle_178" data-name="Rectangle 178" width="141.103" height="6.69" transform="translate(577.661 165.432) rotate(180)" fill="#f2f2f2"/>
    <path id="Path_113" data-name="Path 113" d="M843.6,227.5a17.968,17.968,0,0,1,4.918-2.466,125.41,125.41,0,0,1,34.653-7.543c10.3-.731,21.472.137,29.52,6.613a10.151,10.151,0,0,1,2.994,3.489c1.013,2.185.706,4.725.378,7.11a8.036,8.036,0,0,1-.69,2.677c-1.083,2.062-3.749,2.784-6.065,2.537s-4.489-1.227-6.773-1.682a30.285,30.285,0,0,0-4.278-.436l-14.327-.776c-8.909-.482-17.936-.957-26.675.841a26.572,26.572,0,0,0-7.707,2.656c-2,1.121-3.34,2.729-5.192.659C841.1,237.539,839.3,230.855,843.6,227.5Z" transform="translate(-211.155 -143.001)" fill="#2f2e41"/>
    <path id="Path_114" data-name="Path 114" d="M870.593,236.854s19.271-8.638,26.58,1.329-3.987,5.98-3.987,5.98l-12.625,3.987-13.955-2.658Z" transform="translate(-215.945 -146.023)" fill="#f2f2f2"/>
    <path id="Path_115" data-name="Path 115" d="M872.741,228.5s2.658,12.625.665,15.948,11.3,7.974,11.3,7.974l12.626-5.316s-3.322-20.6,0-24.586Z" transform="translate(-217.096 -143.986)" fill="#ffb9b9"/>
    <path id="Path_116" data-name="Path 116" d="M872.741,228.5s2.658,12.625.665,15.948,11.3,7.974,11.3,7.974l12.626-5.316s-3.322-20.6,0-24.586Z" transform="translate(-217.096 -143.986)" opacity="0.1"/>
    <path id="Path_117" data-name="Path 117" d="M901.16,209.742a19.951,19.951,0,0,1-19.935,19.935,19.461,19.461,0,0,1-3.542-.319,19.934,19.934,0,1,1,23.477-19.616Z" transform="translate(-214.948 -137.849)" fill="#ffb9b9"/>
    <path id="Path_118" data-name="Path 118" d="M910.5,279.337H846.927l1.441-6.258,6.24-27.193,7.213-4.872.006-.006,3.388-2.293,1.685-1.137s1,.456,2.147,1.077c.334.188.675.383,1.016.59.006-.006.006,0,.006,0a11.9,11.9,0,0,1,1.569,1.089c.091.085.17.158.249.237,1.265,1.265,4.957,7.98,11.063,4.543a9.309,9.309,0,0,0,.894-.56,44.245,44.245,0,0,0,4.543-3.607c1.283-1.174,2.117-2.08,2.8-2.707a4.418,4.418,0,0,1,1.034-.766,1.965,1.965,0,0,1,.931-.225c1.995,0,4.653,3.984,4.653,3.984l.079.231.006.018,8.387,25.18Z" transform="translate(-212.253 -146.749)" fill="#f2f2f2"/>
    <path id="Path_119" data-name="Path 119" d="M844.189,278.372h19.268a46.871,46.871,0,0,0-.347-6.666c-.59-4.446-2.038-8.728-2.95-13.119a55.181,55.181,0,0,1-1.162-11.7c.006-.541.018-1.089.067-1.636a7.49,7.49,0,0,1,1.052-3.552c.456-.7,1.083-1.3,1.569-1.965a4.506,4.506,0,0,0,.444-.7v-.006a4.03,4.03,0,0,0,.164-.371,3,3,0,0,0,.182-.906c.109-2.007-1.709-3.941-3.674-4.768a13.734,13.734,0,0,0-8.606-.347,40.964,40.964,0,0,0-8.089,3.309c-.87.426-1.733.864-2.567,1.35a12.742,12.742,0,0,0-2.719,2.068c-2.068,2.135-2.974,5.109-3.7,7.986a16.885,16.885,0,0,0-.7,6.812c.006.073.024.152.037.225.724,3.789,3.813,6.635,5.462,10.127,1.91,4.051,1.782,8.77,1.022,13.186-.036.225-.079.45-.122.675h5.37Z" transform="translate(-209.516 -145.784)" fill="#2f2e41"/>
    <path id="Path_120" data-name="Path 120" d="M934.941,252.976a150.589,150.589,0,0,0-5.249,24.334H902.225q-1.076-2.938-2.147-5.881a44.061,44.061,0,0,1-1.466-4.525,21.654,21.654,0,0,1-.614-5.45c0-.438.018-.882.055-1.32a.019.019,0,0,0,0-.024,21.763,21.763,0,0,1,1.587-6.733,25.122,25.122,0,0,1,1.4-2.84c1.277-2.311,2.822-4.489,4.2-6.751a30.989,30.989,0,0,0,2.232-4.33.023.023,0,0,1,.006-.018,15.543,15.543,0,0,0,1.259-6.052c-.043-2.682-4.58-7.359.353-6.909,6.733.608,12.517,4.483,17.79,8.9,1.4,1.18,2.78,2.4,4.124,3.607,2.08,1.873,4.276,3.917,4.9,6.648a7.086,7.086,0,0,1,.176,1.326A18.2,18.2,0,0,1,934.941,252.976Z" transform="translate(-221.833 -144.722)" fill="#2f2e41"/>
    <path id="Path_121" data-name="Path 121" d="M887.582,248.123a14.851,14.851,0,0,0-3.119-5.028,11.568,11.568,0,0,0-4.764-2.413,26.051,26.051,0,0,0-6.988-1c-2.814-.018-6.077.737-7.272,3.285-.949,2.023-.213,4.419.742,6.439a6.313,6.313,0,0,0,1.97,2.661c1.214.82,2.783.794,4.222,1.069a19.476,19.476,0,0,1,6.24,2.828l4.929,2.979,8.466,5.118c-.223-.135-.144-5.941-.4-6.892C890.768,254.1,888.882,251.026,887.582,248.123Z" transform="translate(-215.643 -147.205)" fill="#ffb9b9"/>
    <path id="Path_122" data-name="Path 122" d="M899.167,196.958a5.06,5.06,0,0,0-2.195-2.865,11.612,11.612,0,0,0-.463-3.78c-1.207-3.569-4.067-3.364-6.766-4.942-1.171-.685-1.1-1.29-1.708-2.414a8.96,8.96,0,0,0-3.452-3.523c-1.731-1.1-3.559-2.239-5.607-2.379-4.3-.293-7.6,3.755-11.717,5.054-1.813.573-3.761.6-5.584,1.138s-3.641,1.834-3.913,3.716c-.125.869.1,1.76-.031,2.629-.253,1.726-1.767,2.935-2.781,4.355-2.242,3.14-1.986,7.576-.193,10.992a15.451,15.451,0,0,0,1.293,2.023,12.445,12.445,0,0,0,1.365,4.622c1.793,3.416,4.878,5.969,8.1,8.09a19.122,19.122,0,0,1-.478-3.45,2.382,2.382,0,0,1,.147-1.143c.359-.75,1.307-.95,2.03-1.361,1.5-.851,2.085-2.735,2.128-4.457s-.322-3.447-.141-5.16a2.82,2.82,0,0,1,.965-2.074,3.335,3.335,0,0,1,1.82-.434c3.069-.125,6.275-.182,8.982-1.633a13.311,13.311,0,0,1,2.8-1.414c2.3-.6,4.652,1.012,5.977,2.986s1.987,4.322,3.21,6.36,3.336,3.856,5.7,3.615a.946.946,0,0,0,.706-.314,1.06,1.06,0,0,0,.13-.6l.132-9.04A13.664,13.664,0,0,0,899.167,196.958Z" transform="translate(-213.456 -135.454)" fill="#2f2e41"/>
    <path id="Path_123" data-name="Path 123" d="M841.352,270.917q.648,5.337.785,10.71H825.411V267.571c.085-.341.176-.675.286-1.01,1.046-3.224,3.242-5.924,5.145-8.728.091-.14.189-.28.28-.42a22.841,22.841,0,0,0,2.08-3.753c.274-.645.711-3.765,1.174-4.032,1.983-1.15,3.595,3.765,3.868,4.859.973,3.9,1.819,7.834,2.457,11.805Q841.075,268.6,841.352,270.917Z" transform="translate(-208.217 -149.038)" fill="#2f2e41"/>
    <path id="Path_124" data-name="Path 124" d="M937.587,280.762h-38.4c-.328-.772-.651-1.545-.992-2.311a67.572,67.572,0,0,0-9.208-15.1,4,4,0,0,1-1.137-2.257,1.909,1.909,0,0,1,.249-1.016c.584-1.089,2.129-1.727,3.382-2.244A11.652,11.652,0,0,0,895,255.619a7.539,7.539,0,0,0,2.031-3,6.589,6.589,0,0,0,.255-1.034l.535.7c.432.572.87,1.137,1.314,1.7,4.257,5.468,8.935,10.856,14.816,14.1a24.928,24.928,0,0,0,4.841,2.062,1.27,1.27,0,0,0,1.022,0,1.237,1.237,0,0,0,.444-.815c.523-2.189.706-4.446,1.089-6.666a37.968,37.968,0,0,1,4.008-11.544c1.089-2.025,4.628-9.427,6.873-4.762q.967,2.016,1.946,4.045c.407.858.821,1.709,1.235,2.567a15.963,15.963,0,0,1,2,8.941Q937.5,271.347,937.587,280.762Z" transform="translate(-219.93 -148.174)" fill="#2f2e41"/>
    <path id="Path_125" data-name="Path 125" d="M845.783,285.527h3.327l-1.885-6.258-2.719-9.02a29.42,29.42,0,0,1-.261,4.568,30.416,30.416,0,0,1-2.652,9.026c-.261.553-.541,1.113-.766,1.685h4.957Z" transform="translate(-211.109 -152.939)" opacity="0.1"/>
    <path id="Path_126" data-name="Path 126" d="M929.635,265.38a6.5,6.5,0,0,0,.318,3.948,39.77,39.77,0,0,1,1.45,11.542.42.42,0,0,1-.491.5c-1.534.094-3.29.1-4.33-1.027Z" transform="translate(-227.195 -152.026)" opacity="0.1"/>
    <rect id="Rectangle_179" data-name="Rectangle 179" width="343.027" height="232.334" transform="translate(0 2.391)" fill="#3f3d56" opacity="0.3"/>
    <rect id="Rectangle_180" data-name="Rectangle 180" width="101.57" height="110.693" transform="translate(21.895 23.679)" fill="#f2f2f2"/>
    <rect id="Rectangle_181" data-name="Rectangle 181" width="97.92" height="6.69" transform="translate(186.11 23.679)" fill="#f2f2f2"/>
    <rect id="Rectangle_182" data-name="Rectangle 182" width="34.668" height="6.69" transform="translate(23.112 151.401)" fill="#f2f2f2"/>
    <rect id="Rectangle_183" data-name="Rectangle 183" width="99.137" height="6.69" transform="translate(23.112 163.565)" fill="#f2f2f2"/>
    <rect id="Rectangle_184" data-name="Rectangle 184" width="141.103" height="6.69" transform="translate(162.999 48.007)" fill="#f2f2f2"/>
    <rect id="Rectangle_185" data-name="Rectangle 185" width="141.103" height="6.69" transform="translate(162.999 66.861)" fill="#f2f2f2"/>
    <rect id="Rectangle_186" data-name="Rectangle 186" width="141.103" height="6.69" transform="translate(162.999 85.716)" fill="#f2f2f2"/>
    <rect id="Rectangle_187" data-name="Rectangle 187" width="141.103" height="6.69" transform="translate(162.999 104.569)" fill="#f2f2f2"/>
    <rect id="Rectangle_188" data-name="Rectangle 188" width="141.103" height="6.69" transform="translate(162.999 123.424)" fill="#f2f2f2"/>
    <rect id="Rectangle_189" data-name="Rectangle 189" width="141.103" height="6.69" transform="translate(162.999 142.278)" fill="#f2f2f2"/>
    <rect id="Rectangle_190" data-name="Rectangle 190" width="141.103" height="6.69" transform="translate(162.999 161.133)" fill="#f2f2f2"/>
    <path id="Path_127" data-name="Path 127" d="M208.886,283.126h-13.2q-1.524-4.1-2.706-8.3a16.573,16.573,0,0,0-4.306-8.776,16.281,16.281,0,0,1-1.855-2.518,11.826,11.826,0,0,1-1.168-7.171,18.631,18.631,0,0,1,.341-2.031c.578-2.6,1.545-5.091,2.354-7.621a2.891,2.891,0,0,1,2.36-1.952,4.681,4.681,0,0,1,2.579.3,3.2,3.2,0,0,1,.517.268c1.441.87,2.19,2.646,2.792,4.27q4.133,11.094,8.259,22.187.8,2.153,1.606,4.318c.791,2.117,1.575,4.233,2.244,6.392C208.764,282.706,208.825,282.912,208.886,283.126Z" transform="translate(-88.182 -148.145)" fill="#d0cde1"/>
    <path id="Path_128" data-name="Path 128" d="M141.1,171.766c-3.283,1.109-6.257,3.7-6.929,7.1-.312,1.576-.121,3.214-.383,4.8-.608,3.675-3.493,6.482-6.154,9.089s-5.409,5.637-5.6,9.357c-.213,4.074,2.742,7.89,2.23,11.937-.594,4.7-5.56,7.749-6.788,12.326-.82,3.057.185,6.349,1.837,9.048,3.149,5.143,8.532,8.634,14.265,10.506s11.838,2.265,17.868,2.329c7.342.077,15.314-.553,20.831-5.4a16.688,16.688,0,0,0,5.54-10.864c.524-5.613-1.819-11.413-.2-16.814,1.017-3.4,3.568-6.5,3.187-10.031-.372-3.449-3.385-5.894-5.451-8.68a35.282,35.282,0,0,1-4.248-8.7L167.174,177.4c-.772-2.037-1.619-4.18-3.339-5.517-3.22-2.5-8.4-2.011-12.163-1.5C148.178,170.868,144.459,170.631,141.1,171.766Z" transform="translate(-75.364 -134.128)" fill="#2f2e41"/>
    <path id="Path_129" data-name="Path 129" d="M150.148,213.7s.384,11.529-.769,12.682,4.611,8.839,4.611,8.839l10.376-.384,5.38-4.227-4.612-6.149s-1.921-9.992-.384-12.3S150.148,213.7,150.148,213.7Z" transform="translate(-81.375 -141.904)" fill="#a0616a"/>
    <path id="Path_130" data-name="Path 130" d="M150.148,213.7s.384,11.529-.769,12.682,4.611,8.839,4.611,8.839l10.376-.384,5.38-4.227-4.612-6.149s-1.921-9.992-.384-12.3S150.148,213.7,150.148,213.7Z" transform="translate(-81.375 -141.904)" opacity="0.1"/>
    <circle id="Ellipse_25" data-name="Ellipse 25" cx="13.835" cy="13.835" r="13.835" transform="translate(61.279 48.541)" fill="#a0616a"/>
    <path id="Path_131" data-name="Path 131" d="M156.345,279.458H167.56c.42-.76.815-1.551,1.271-2.269v-.006a6.209,6.209,0,0,1,2.044-2.141,8.052,8.052,0,0,0,1.514-.906,3.906,3.906,0,0,0,.924-1.727,26.766,26.766,0,0,0,1.265-7.457c.018-.851,0-1.715.049-2.567a10.789,10.789,0,0,1,.255-1.977,15.566,15.566,0,0,1,1.66-3.759q2.281-4.151,4.574-8.3a5.8,5.8,0,0,0,.31-2.433,6,6,0,0,0-.985-3.12c-.213-.383-.444-.766-.687-1.137a25.258,25.258,0,0,0-3.26-4.16,26.373,26.373,0,0,0-9.281-6.283,5.387,5.387,0,0,1-1.247-.608,5.176,5.176,0,0,1-1.143-1.368c-1.216-1.831-2.7-3.892-4.9-3.777a3.01,3.01,0,0,0-2.323-.158,3.164,3.164,0,0,0-.341.109,21.615,21.615,0,0,0-2.439,1.271,11.321,11.321,0,0,1-6.569,1.192,2.224,2.224,0,0,1-.766-.195,3.925,3.925,0,0,1-.706-.572,4.055,4.055,0,0,0-4.032-.645,3.662,3.662,0,0,0-1.606,1.131c-.4.5-.681,1.113-1.125,1.587-1.15,1.229-3.047,1.277-4.726,1.271a43.677,43.677,0,0,0-10.382.955,19.735,19.735,0,0,0-8.174,3.953l-.006.006c-.328.28-.633.566-.937.87a6.942,6.942,0,0,0-1.618,2.311c-.462,1.192-.4,2.536-.821,3.747-.462,1.356-1.49,2.463-1.9,3.826a15.385,15.385,0,0,1-.8,3.114c.024.018.043.036.067.055,2.214,1.946,4.105,4.5,6.325,6.429a12.765,12.765,0,0,1,3.211,3.588,5.928,5.928,0,0,1,.4.973,14.966,14.966,0,0,1,.328,3.54c.28,5.687,3.363,10.844,6.812,15.369.067.091.134.182.207.268Z" transform="translate(-74.14 -144.477)" fill="#d0cde1"/>
    <path id="Path_132" data-name="Path 132" d="M117.973,264.313q-.785,5.446-1.581,10.887a47.43,47.43,0,0,1-1.083,5.766c-.316,1.174-.724,2.323-1.01,3.5H98.461a15.173,15.173,0,0,1,.152-1.965,32.479,32.479,0,0,1,1.977-6.818q2.764-7.463,5.523-14.937c.785-2.123,1.46-4.343,2.323-6.447.152-.389.316-.778.493-1.156.918-2.019,3.467-1.192,5.352-.888a5.083,5.083,0,0,1,1.5.426,3.861,3.861,0,0,1,1.4,1.326c1.788,2.646,1.4,6.143.937,9.306Q118.045,263.811,117.973,264.313Z" transform="translate(-71.852 -149.483)" fill="#d0cde1"/>
    <path id="Path_133" data-name="Path 133" d="M179.381,289.2c.024.085.286.991.718,2.269h-13.2c6.544-1.125,12.486-2.275,12.486-2.275Z" transform="translate(-84.689 -156.494)" fill="#2f2e41"/>
    <ellipse id="Ellipse_26" data-name="Ellipse 26" cx="14.988" cy="8.07" rx="14.988" ry="8.07" transform="translate(61.279 46.236)" fill="#2f2e41"/>
    <rect id="Rectangle_191" data-name="Rectangle 191" width="343.027" height="232.334" transform="translate(219.749 87.921)" fill="#3f3d56"/>
    <ellipse id="Ellipse_27" data-name="Ellipse 27" cx="40.141" cy="4.257" rx="40.141" ry="4.257" transform="translate(472.762 295.927)" opacity="0.1"/>
    <rect id="Rectangle_192" data-name="Rectangle 192" width="101.57" height="110.693" transform="translate(241.645 109.208)" fill="#f2f2f2"/>
    <path id="Path_134" data-name="Path 134" d="M401.136,314.564a1.491,1.491,0,0,0,1.748-.722c1.4-2.213-1.182-5.067-.622-7.629.449-2.052,2.78-3.27,3.257-5.315.463-1.988-.964-4.228,0-6.026.756-1.409,2.644-1.78,4.223-1.533s3.079.941,4.675,1.039c2.126.13,4.154-.806,6.233-1.27s4.616-.282,5.839,1.462c1.571,2.24-.023,5.358.524,8.039.434,2.128,2.216,3.891,2.254,6.063.014.772-2.016.15-1.908.915s-.851.091-.085,0a1.519,1.519,0,0,0,1.154-1.372c.091-.637,1.288-.849,1.274-1.492-.032-1.507,2.693-.491,3.141-1.93a14.6,14.6,0,0,0-.6-10.181,20.392,20.392,0,0,1-1.738-4.14c-.4-2,.23-4.144-.431-6.072-.89-2.6-3.834-3.923-6.567-4.192s-5.511.213-8.229-.184c-2.435-.355-4.792-1.411-7.247-1.258-2.947.183-5.511,2.082-7.553,4.214s-3.775,4.584-6.1,6.41a11.952,11.952,0,0,0-1.954,1.682,6.564,6.564,0,0,0-.973,5.324c.329,1.833,1.044,3.582,1.346,5.42.284,1.727.2,3.492.318,5.238A9.207,9.207,0,0,0,394.661,312a4.666,4.666,0,0,0,3.631,1.9c.492.011.907-.43,1.4-.315C400.316,313.724,400.586,314.313,401.136,314.564Z" transform="translate(-126.785 -154.533)" fill="#2f2e41"/>
    <path id="Path_135" data-name="Path 135" d="M375.913,393.074c.444-6.088.779-10.637.779-10.637l2.871-7.566,9.214,18.2Z" transform="translate(-123.898 -172.564)" fill="#575a89"/>
    <path id="Path_136" data-name="Path 136" d="M375.913,393.074c.444-6.088.779-10.637.779-10.637l2.871-7.566,9.214,18.2Z" transform="translate(-123.898 -172.564)" opacity="0.1"/>
    <path id="Path_137" data-name="Path 137" d="M402.2,322.368s8.592,21.87,3.645,26.036,27.6-7.03,27.6-7.03l-.781-2.864s-10.675-4.166-5.468-16.142S402.2,322.368,402.2,322.368Z" transform="translate(-128.829 -161.717)" fill="#a0616a"/>
    <path id="Path_138" data-name="Path 138" d="M402.2,322.368s8.592,21.87,3.645,26.036,27.6-7.03,27.6-7.03l-.781-2.864s-10.675-4.166-5.468-16.142S402.2,322.368,402.2,322.368Z" transform="translate(-128.829 -161.717)" opacity="0.1"/>
    <circle id="Ellipse_28" data-name="Ellipse 28" cx="18.225" cy="18.225" r="18.225" transform="translate(267.38 133.052)" fill="#a0616a"/>
    <path id="Path_139" data-name="Path 139" d="M453.938,356.844s-.073,1.448-.2,3.978c-.262,5.152-.73,14.8-1.2,25.94H381.891a35.028,35.028,0,0,1-4.495-8.047,8.683,8.683,0,0,1-.529-2.591c-.389-6.9,5.8-16.537,10.163-17.455,4.945-1.046,14.317-10.936,14.317-10.936a2.23,2.23,0,0,0,1.192,1.8v.006a4.845,4.845,0,0,0,2.451.535c3.053,0,16.482-6.2,20.794-8.223.845-.4,1.338-.633,1.338-.633a101.064,101.064,0,0,0,15.363,5.212,16.34,16.34,0,0,1,11.452,10.412Z" transform="translate(-124.074 -166.252)" fill="#575a89"/>
    <path id="Path_140" data-name="Path 140" d="M397.29,312.321a1.491,1.491,0,0,0,1.748-.722c1.4-2.213-1.182-5.067-.622-7.629.449-2.052,2.78-3.27,3.257-5.315.463-1.987-.964-4.228,0-6.026.756-1.409,2.644-1.78,4.223-1.533s3.079.941,4.675,1.039c2.126.13,4.154-.806,6.233-1.27s4.616-.282,5.839,1.462c1.571,2.24-.023,5.358.524,8.039.434,2.128,5.382,3.622,5.831,2.183a14.594,14.594,0,0,0-.6-10.181,20.389,20.389,0,0,1-1.738-4.141c-.4-2,.23-4.144-.431-6.072-.89-2.6-3.834-3.923-6.567-4.192s-5.511.212-8.229-.184c-2.435-.355-4.792-1.411-7.247-1.258-2.947.183-5.511,2.082-7.553,4.214s-3.775,4.584-6.1,6.41a11.953,11.953,0,0,0-1.954,1.682,6.565,6.565,0,0,0-.973,5.324c.329,1.833,1.044,3.582,1.346,5.42.284,1.727.2,3.492.318,5.238a9.207,9.207,0,0,0,1.536,4.944,4.666,4.666,0,0,0,3.631,1.9c.492.011.907-.431,1.4-.315C396.47,311.48,396.74,312.069,397.29,312.321Z" transform="translate(-126.064 -154.113)" fill="#2f2e41"/>
    <path id="Path_141" data-name="Path 141" d="M477.433,390.369H456.816c-1.569-11.507-2.865-23.537-2.865-23.537l4.166-1.825,8.466-4.555s.62,1.472,1.618,3.978C470.329,369.787,474.192,379.872,477.433,390.369Z" transform="translate(-138.537 -169.86)" opacity="0.1"/>
    <path id="Path_142" data-name="Path 142" d="M478.14,389.708H454.87c-3.448-12.59-6.848-26.274-6.848-26.274l8.855-6.508,10.413,2.865S473.384,374.3,478.14,389.708Z" transform="translate(-137.425 -169.198)" fill="#575a89"/>
    <rect id="Rectangle_193" data-name="Rectangle 193" width="97.92" height="6.69" transform="translate(405.86 109.208)" fill="#eb3f43"/>
    <rect id="Rectangle_194" data-name="Rectangle 194" width="34.668" height="6.69" transform="translate(242.861 236.931)" fill="#eb3f43"/>
    <rect id="Rectangle_195" data-name="Rectangle 195" width="99.137" height="6.69" transform="translate(242.861 249.095)" fill="#eb3f43"/>
    <rect id="Rectangle_196" data-name="Rectangle 196" width="141.103" height="6.69" transform="translate(382.748 133.537)" fill="#f2f2f2"/>
    <rect id="Rectangle_197" data-name="Rectangle 197" width="141.103" height="6.69" transform="translate(382.748 152.391)" fill="#f2f2f2"/>
    <rect id="Rectangle_198" data-name="Rectangle 198" width="141.103" height="6.69" transform="translate(382.748 171.245)" fill="#f2f2f2"/>
    <rect id="Rectangle_199" data-name="Rectangle 199" width="141.103" height="6.69" transform="translate(382.748 190.099)" fill="#f2f2f2"/>
    <rect id="Rectangle_200" data-name="Rectangle 200" width="141.103" height="6.69" transform="translate(382.748 208.954)" fill="#f2f2f2"/>
    <rect id="Rectangle_201" data-name="Rectangle 201" width="141.103" height="6.69" transform="translate(382.748 227.809)" fill="#f2f2f2"/>
    <rect id="Rectangle_202" data-name="Rectangle 202" width="141.103" height="6.69" transform="translate(382.748 246.662)" fill="#f2f2f2"/>
    <path id="Path_143" data-name="Path 143" d="M729.085,430.149l-38.572,38.572L674.3,452.509a5.542,5.542,0,0,0-7.837,0l-.582-.871c-2.164,2.164-1.582,6.544.582,8.708L687.5,481.382a4.229,4.229,0,0,0,5.978,0l43.442-43.4c2.166-2.163,2.951-6.131.787-8.295h0C735.541,427.529,731.249,427.986,729.085,430.149Z" transform="translate(-178.036 -182.583)" fill="#57b894"/>
    <path id="Path_144" data-name="Path 144" d="M729.085,430.149l-38.572,38.572L674.3,452.509a5.542,5.542,0,0,0-7.837,0l-.582-.871c-2.164,2.164-1.582,6.544.582,8.708L687.5,481.382a4.229,4.229,0,0,0,5.978,0l43.442-43.4c2.166-2.163,2.951-6.131.787-8.295h0C735.541,427.529,731.249,427.986,729.085,430.149Z" transform="translate(-178.036 -182.583)" opacity="0.1"/>
    <path id="Path_145" data-name="Path 145" d="M729.159,428.1l-38.572,38.572-16.212-16.212a5.542,5.542,0,0,0-7.837,0h0a5.542,5.542,0,0,0,0,7.837l21.035,21.035a4.229,4.229,0,0,0,5.979,0l43.441-43.4a5.541,5.541,0,0,0,0-7.838h0a5.541,5.541,0,0,0-7.835,0Z" transform="translate(-178.11 -182.245)" fill="#57b894"/>
    <path id="Path_146" data-name="Path 146" d="M1031.227,691.245c0,43.491-60.622,30.039-134.847,30.039s-133.945,13.453-133.945-30.039,60.614-52.95,134.839-52.95S1031.227,647.754,1031.227,691.245Z" transform="translate(-196.404 -221.979)" opacity="0.1"/>
    <path id="Path_147" data-name="Path 147" d="M1031.227,681.245c0,43.491-60.622,30.039-134.847,30.039s-133.945,13.453-133.945-30.039,60.614-52.95,134.839-52.95S1031.227,637.754,1031.227,681.245Z" transform="translate(-196.404 -220.103)" fill="#3f3d56"/>
    <path id="Path_148" data-name="Path 148" d="M773.32,525.762l-2.747,3.19s-33.4,3.136-32.044,8.558,40.213-7.229,40.213-7.229Z" transform="translate(-191.912 -200.869)" fill="#ffc1c7"/>
    <path id="Path_149" data-name="Path 149" d="M843.16,522.425s-35.695,12.651-55.123,7.229l9.037,18.073s46.087-1.356,54.22-9.489S843.16,522.425,843.16,522.425Z" transform="translate(-201.206 -200.243)" fill="#eb3f43"/>
    <path id="Path_150" data-name="Path 150" d="M843.16,522.425s-35.695,12.651-55.123,7.229l9.037,18.073s46.087-1.356,54.22-9.489S843.16,522.425,843.16,522.425Z" transform="translate(-201.206 -200.243)" opacity="0.1"/>
    <circle id="Ellipse_29" data-name="Ellipse 29" cx="23.947" cy="23.947" r="23.947" transform="translate(593.834 177.369)" fill="#ffc1c7"/>
    <path id="Path_151" data-name="Path 151" d="M842.724,398.8a18.677,18.677,0,0,0,3.1,4.3,39.17,39.17,0,0,0,11.543,8.637,393.348,393.348,0,0,1-41.128,6.116c1.458-5.134-.461-10.625-3.04-15.3s-5.866-9.027-7.48-14.114l16.186.435c2.937.079,5.883.167,8.819.023,2.195-.107,5.851-1.422,7.9-.938C842.956,388.986,840.833,394.958,842.724,398.8Z" transform="translate(-204.524 -175)" fill="#ffc1c7"/>
    <path id="Path_152" data-name="Path 152" d="M877.7,538.1l13.555,16.266s22.591,52.864-26.658,58.286-85.848-4.066-85.848-4.066-19.881-9.488-20.332-2.259-2.259,27.562-13.1,47.442l-9.488,21.688s-4.97,4.97-3.615,11.748-30.273,9.037-29.821,0c0,0,4.518-7.681,4.518-12.2s7.229-15.362,7.229-15.362l13.1-65.064s-.9-33.436,29.821-27.11,74.552-1.355,74.552-1.355l9.94-34.791Z" transform="translate(-185.139 -201.913)" fill="#2f2e41"/>
    <path id="Path_153" data-name="Path 153" d="M877.7,538.1l13.555,16.266s22.591,52.864-26.658,58.286-85.848-4.066-85.848-4.066-19.881-9.488-20.332-2.259-2.259,27.562-13.1,47.442l-9.488,21.688s-4.97,4.97-3.615,11.748-30.273,9.037-29.821,0c0,0,4.518-7.681,4.518-12.2s7.229-15.362,7.229-15.362l13.1-65.064s-.9-33.436,29.821-27.11,74.552-1.355,74.552-1.355l9.94-34.791Z" transform="translate(-185.139 -201.913)" opacity="0.1"/>
    <path id="Path_154" data-name="Path 154" d="M817.233,537.358s41.343-15.528,64.386,17.456c0,0,5.874,51.057-17.622,53.316s-54.22,1.807-61.449-5.874-52.864-29.369-52.864-29.369-22.716-11.587-27.172,3.469-4.908,18.671-4.908,18.671-23.5,17.169-32.984,20.332c0,0-6.326,9.037-9.94,9.037s-25.754,4.97-23.5-11.748l36.6-33.435,36.6-35.695s10.392-15.362,37.05-7.229a551.142,551.142,0,0,0,53.768,13.1Z" transform="translate(-175.505 -202.359)" fill="#2f2e41"/>
    <path id="Path_155" data-name="Path 155" d="M722.549,721.779s8.585,21.688,1.355,24.4-22.592.9-22.592.9-18.073-2.259-22.592-1.807-23.043-3.163-20.332-10.392,16.718-5.422,16.718-5.422l12.651-5.874s1.355-4.518,4.518-2.711S704.476,729.459,722.549,721.779Z" transform="translate(-176.836 -237.389)" fill="#cbceda"/>
    <path id="Path_156" data-name="Path 156" d="M667.476,640.816s9.488,21.236-5.874,19.429-27.11-4.97-31.628-5.422c-4.346-.435-16.636-4.632-14.75-12.994a7.435,7.435,0,0,0,.122-1.641c0-1.123,1.525-3.325,13.724-2.986,0,0,9.037,0,12.651-6.326C641.722,630.876,655.276,648.046,667.476,640.816Z" transform="translate(-168.753 -220.587)" fill="#cbceda"/>
    <path id="Path_157" data-name="Path 157" d="M805.834,418.561s32.532-20.332,59.642,0S910.659,531.52,910.659,531.52l-62.8-14.007s-2.711-10.844-6.326-12.651-4.066-9.488-4.066-9.488-19.429-5.874-18.073-28.465S805.834,418.561,805.834,418.561Z" transform="translate(-204.545 -179.065)" fill="#eb3f43"/>
    <path id="Path_158" data-name="Path 158" d="M817.148,421.76H800.431s-9.94,11.3-11.3,39.761l-5.422,22.592s-11.3,27.11-4.518,31.628,19.881,4.066,22.592-4.97,21.236-61.449,21.236-61.449Z" transform="translate(-199.141 -181.36)" fill="#eb3f43"/>
    <path id="Path_159" data-name="Path 159" d="M810.272,334.873a24.207,24.207,0,0,1,25.04,4.105c8.677,7.744,10.428,20.377,12.622,31.8s6.607,24.141,17.371,28.544a45.257,45.257,0,0,1-14.583-.424l16.267,14.578-27.4-8.932c-8.6-2.8-17.633-5.642-26.539-4.059-14.754,2.623-25.026,16.493-39.2,21.365l1.575-7.684-9.507-.073a18.622,18.622,0,0,0,5.447-6.382,5.272,5.272,0,0,0-3.637-1.9c-3.963-24.721,10.716-49.157,29.847-65.308,3.763-3.177,7.927-6.228,12.787-7.023s10.533,1.378,12.223,6" transform="translate(-197.057 -164.722)" fill="#2f2e41"/>
    <path id="Path_160" data-name="Path 160" d="M310.2,614.159c0,52.008,32.627,94.092,72.947,94.092" transform="translate(-111.571 -217.451)" fill="#3f3d56"/>
    <path id="Path_161" data-name="Path 161" d="M399.987,708.007c0-52.592,36.41-95.148,81.4-95.148" transform="translate(-128.414 -217.207)" fill="#eb3f43"/>
    <path id="Path_162" data-name="Path 162" d="M342.729,619.963c0,49.4,20.806,89.377,46.517,89.377" transform="translate(-117.673 -218.54)" fill="#eb3f43"/>
    <path id="Path_163" data-name="Path 163" d="M399.987,701.9c0-67.2,42.084-121.579,94.092-121.579" transform="translate(-128.414 -211.105)" fill="#3f3d56"/>
    <path id="Path_164" data-name="Path 164" d="M381.1,729.5s10.345-.319,13.463-2.539,15.913-4.871,16.687-1.31,15.547,17.709,3.867,17.8-27.138-1.819-30.25-3.715S381.1,729.5,381.1,729.5Z" transform="translate(-124.871 -238.039)" fill="#a8a8a8"/>
    <path id="Path_165" data-name="Path 165" d="M415.322,743.5c-11.68.094-27.138-1.819-30.25-3.715-2.37-1.444-3.314-6.623-3.63-9.013l-.345.013s.655,8.343,3.767,10.239,18.57,3.809,30.25,3.715c3.371-.027,4.536-1.227,4.472-3C419.118,742.814,417.832,743.484,415.322,743.5Z" transform="translate(-124.871 -239.327)" opacity="0.2"/>
  </g>
</svg>
