<svg id="undraw_process_e90d_1_" data-name="undraw_process_e90d (1)" xmlns="http://www.w3.org/2000/svg" width="930" height="788" viewBox="0 0 930 788">
  <circle id="Ellipse_11" data-name="Ellipse 11" cx="14.756" cy="14.756" r="14.756" transform="translate(733.41 34.722)" fill="#f1f1f1"/>
  <circle id="Ellipse_12" data-name="Ellipse 12" cx="14.756" cy="14.756" r="14.756" transform="translate(646.41 605.721)" fill="#f1f1f1"/>
  <circle id="Ellipse_13" data-name="Ellipse 13" cx="14.756" cy="14.756" r="14.756" transform="translate(279.41 176.721)" fill="#f1f1f1"/>
  <ellipse id="Ellipse_14" data-name="Ellipse 14" cx="157" cy="23" rx="157" ry="23" transform="translate(0 742)" fill="#f1f1f1"/>
  <path id="Path_91" data-name="Path 91" d="M374.936,654.976l39.415-12.348a144.462,144.462,0,0,0-14.722-46.995l-39.415,12.348a88.612,88.612,0,0,1,14.722,46.995Z" transform="translate(-135 -56)" fill="#eb3f43"/>
  <circle id="Ellipse_15" data-name="Ellipse 15" cx="36.8" cy="36.8" r="36.8" transform="translate(108.4 229.553)" fill="#2f2e41"/>
  <path id="Path_92" data-name="Path 92" d="M105.5,727.5l-7,30h17l7-34Z" fill="#9f616a"/>
  <path id="Path_93" data-name="Path 93" d="M187.5,727.5v28l17,2v-30Z" fill="#9f616a"/>
  <path id="Path_94" data-name="Path 94" d="M235.5,465.5s2,43,4,46,20,46,20,46l9-28s-14-23-12-36,.74-29,.74-29Z" transform="translate(-135 -56)" fill="#9f616a"/>
  <circle id="Ellipse_16" data-name="Ellipse 16" cx="28" cy="28" r="28" transform="translate(129.5 249.5)" fill="#9f616a"/>
  <path id="Path_95" data-name="Path 95" d="M269.5,336.5s1,40-6,46,40,1,40,1-10-28-2-34S269.5,336.5,269.5,336.5Z" transform="translate(-135 -56)" fill="#9f616a"/>
  <path id="Path_96" data-name="Path 96" d="M306.5,381.5s-6-11-14-10-34,3-35,5-4,9-6,11-17,5-18,17,36,85,36,85-5,17-4,21-5,16-4,21-15,35-7,74v63s-27,109-19,117,35,3,40,0,26-154,26-154l10-51,1,112s-2,94,5,97,34,4,36-2c1.56-4.68,9.2-129.189,12.491-183.766a203.906,203.906,0,0,0-4.4-56.176c-4.162-18.878-10.2-41.057-17.088-50.058-13-17-21-71-21-71l17-31s-10-10-16-10S306.5,381.5,306.5,381.5Z" transform="translate(-135 -56)" fill="#2f2e41"/>
  <path id="Path_97" data-name="Path 97" d="M239.5,397.5l-5.274,3.589S230.5,465.5,233.5,469.5s23.857,2.048,25.429-1.476S239.5,397.5,239.5,397.5Z" transform="translate(-135 -56)" fill="#2f2e41"/>
  <path id="Path_98" data-name="Path 98" d="M321.5,457.5s1,42,7,54,28,62,28,62-1.277,55.031,9.861,41.516S370.5,569.5,370.5,569.5l-19-74s-10-33-9-43S321.5,457.5,321.5,457.5Z" transform="translate(-135 -56)" fill="#9f616a"/>
  <path id="Path_99" data-name="Path 99" d="M339.5,795.3s1-.8,4,2.2,11,7,10,18-7,13-7,13v-3h-3v5s-5,16-28,6c0,0-1-8,0-13s1-29,4-28,11,2,13,6S340.5,804.1,339.5,795.3Z" transform="translate(-135 -56)" fill="#2f2e41"/>
  <path id="Path_100" data-name="Path 100" d="M236.5,796.3s-1-.8-4,2.2-11,7-10,18,7,13,7,13v-3h3v5s5,16,28,6c0,0,1-8,0-13s-1-29-4-28-11,2-13,6S235.5,805.1,236.5,796.3Z" transform="translate(-135 -56)" fill="#2f2e41"/>
  <path id="Path_101" data-name="Path 101" d="M326.5,392.5l14,3s0,22,4,31,11,30,8,31-31,15-33,7S312.5,392.5,326.5,392.5Z" transform="translate(-135 -56)" fill="#2f2e41"/>
  <circle id="Ellipse_17" data-name="Ellipse 17" cx="36.8" cy="36.8" r="36.8" transform="translate(68.534 181.1)" fill="#2f2e41"/>
  <path id="Path_102" data-name="Path 102" d="M208.592,304.372a36.8,36.8,0,0,0,56.829-19.323,36.8,36.8,0,1,1-71.787-15.091A36.788,36.788,0,0,0,208.592,304.372Z" transform="translate(-135 -56)" fill="#2f2e41"/>
  <circle id="Ellipse_18" data-name="Ellipse 18" cx="26.987" cy="26.987" r="26.987" transform="translate(108.4 245.499)" fill="#2f2e41"/>
  <ellipse id="Ellipse_19" data-name="Ellipse 19" cx="23.92" cy="18.707" rx="23.92" ry="18.707" transform="translate(134.16 243.659)" fill="#2f2e41"/>
  <ellipse id="Ellipse_20" data-name="Ellipse 20" cx="4.54" cy="8.032" rx="4.54" ry="8.032" transform="translate(159.92 273.503)" fill="#a0616a"/>
  <rect id="Rectangle_149" data-name="Rectangle 149" width="534" height="429" transform="matrix(0.958, 0.288, -0.288, 0.958, 406.203, 21.663)" fill="#f1f1f1"/>
  <line id="Line_24" data-name="Line 24" x2="121.14" y2="48.965" transform="translate(611.165 141.893)" fill="none" stroke="#3f3d56" stroke-miterlimit="10" stroke-width="2"/>
  <path id="Path_103" data-name="Path 103" d="M614.244,151.96l1.814-.847-4.182-8.931,9.214-3.518-.716-1.869-11.221,4.287Z" fill="#3f3d56"/>
  <path id="Path_104" data-name="Path 104" d="M723.1,195.958l-.716-1.869,9.213-3.517-4.181-8.932,1.814-.847,5.09,10.88Z" fill="#3f3d56"/>
  <circle id="Ellipse_21" data-name="Ellipse 21" cx="11" cy="11" r="11" transform="translate(660.735 155.375)" fill="#3f3d56"/>
  <line id="Line_25" data-name="Line 25" y1="67.951" x2="111.603" transform="translate(601.934 413.4)" fill="none" stroke="#3f3d56" stroke-miterlimit="10" stroke-width="2"/>
  <path id="Path_105" data-name="Path 105" d="M611.848,484.891l.4-1.961-9.661-1.977,2.678-9.492-1.927-.542-3.259,11.561Z" fill="#3f3d56"/>
  <path id="Path_106" data-name="Path 106" d="M712.13,423.833l-1.927-.542,2.679-9.49-9.662-1.979.4-1.96,11.767,2.412Z" fill="#3f3d56"/>
  <circle id="Ellipse_22" data-name="Ellipse 22" cx="11" cy="11" r="11" transform="translate(646.735 436.375)" fill="#3f3d56"/>
  <line id="Line_26" data-name="Line 26" x2="0.039" y2="130.662" transform="translate(461.716 266.044)" fill="none" stroke="#3f3d56" stroke-miterlimit="10" stroke-width="2"/>
  <path id="Path_107" data-name="Path 107" d="M453.538,272.674,455,274.038l6.711-7.226,6.717,7.222,1.464-1.365-8.182-8.794Z" fill="#3f3d56"/>
  <path id="Path_108" data-name="Path 108" d="M453.573,390.082l1.465-1.365,6.715,7.222,6.713-7.226,1.465,1.364-8.177,8.8Z" fill="#3f3d56"/>
  <circle id="Ellipse_23" data-name="Ellipse 23" cx="11" cy="11" r="11" transform="translate(450.735 320.375)" fill="#3f3d56"/>
  <rect id="Rectangle_150" data-name="Rectangle 150" width="182" height="226" transform="translate(369)" fill="#3f3d56"/>
  <path id="Path_109" data-name="Path 109" d="M583.621,140.134h-41.3a144.459,144.459,0,0,1,0-49.247h41.3A88.611,88.611,0,0,0,583.621,140.134Z" transform="translate(-135 -56)" fill="#ff6584"/>
  <path id="Path_110" data-name="Path 110" d="M606.379,165.112h41.3a144.464,144.464,0,0,0,0-49.247h-41.3A88.611,88.611,0,0,1,606.379,165.112Z" transform="translate(-135 -56)" fill="#eb3f43"/>
  <path id="Path_111" data-name="Path 111" d="M567.379,247.112h41.3a144.464,144.464,0,0,0,0-49.247h-41.3a88.611,88.611,0,0,1,0,49.247Z" transform="translate(-135 -56)" fill="#eb3f43"/>
  <rect id="Rectangle_151" data-name="Rectangle 151" width="182" height="226" transform="translate(748 215)" fill="#3f3d56"/>
  <rect id="Rectangle_152" data-name="Rectangle 152" width="130" height="6" transform="translate(774 263)" fill="#eb3f43"/>
  <rect id="Rectangle_153" data-name="Rectangle 153" width="130" height="6" transform="translate(774 284)" fill="#eb3f43"/>
  <rect id="Rectangle_154" data-name="Rectangle 154" width="130" height="6" transform="translate(774 305)" fill="#eb3f43"/>
  <rect id="Rectangle_155" data-name="Rectangle 155" width="130" height="6" transform="translate(774 326)" fill="#eb3f43"/>
  <rect id="Rectangle_156" data-name="Rectangle 156" width="130" height="6" transform="translate(774 347)" fill="#eb3f43"/>
  <rect id="Rectangle_157" data-name="Rectangle 157" width="68" height="24" transform="translate(805 369)" fill="#eb3f43"/>
  <rect id="Rectangle_158" data-name="Rectangle 158" width="182" height="226" transform="translate(385 447)" fill="#3f3d56"/>
  <rect id="Rectangle_159" data-name="Rectangle 159" width="130" height="6" transform="translate(411.297 572.806)" fill="#eb3f43"/>
  <rect id="Rectangle_160" data-name="Rectangle 160" width="130" height="6" transform="translate(411.297 593.806)" fill="#eb3f43"/>
  <rect id="Rectangle_161" data-name="Rectangle 161" width="130" height="6" transform="translate(411.297 614.806)" fill="#eb3f43"/>
  <rect id="Rectangle_162" data-name="Rectangle 162" width="130" height="6" transform="translate(411.297 635.806)" fill="#eb3f43"/>
  <path id="Path_112" data-name="Path 112" d="M586.121,583.441h-41.3a144.463,144.463,0,0,1,0-49.247h41.3A88.612,88.612,0,0,0,586.121,583.441Z" transform="translate(-135 -56)" fill="#eb3f43" opacity="0.3"/>
  <rect id="Rectangle_163" data-name="Rectangle 163" width="76" height="5" transform="translate(468.297 482.806)" fill="#eb3f43" opacity="0.3"/>
  <rect id="Rectangle_164" data-name="Rectangle 164" width="76" height="5" transform="translate(468.297 500.806)" fill="#eb3f43" opacity="0.3"/>
  <rect id="Rectangle_165" data-name="Rectangle 165" width="76" height="5" transform="translate(468.297 518.806)" fill="#eb3f43" opacity="0.3"/>
  <rect id="Rectangle_166" data-name="Rectangle 166" width="76" height="5" transform="translate(468.297 536.806)" fill="#eb3f43" opacity="0.3"/>
</svg>
