<svg id="undraw_directions_x53j" xmlns="http://www.w3.org/2000/svg" width="891.873" height="629.848" viewBox="0 0 891.873 629.848">
  <path id="Path_166" data-name="Path 166" d="M197.81,162.593A189.488,189.488,0,0,1,425.5,136.954C352.522,163.077,272,164.038,197.81,162.593Z" transform="translate(373.551 -90.907)" fill="#eb3f43" opacity="0.1"/>
  <path id="Path_167" data-name="Path 167" d="M831.337,688.547l79.692-138.032a2.536,2.536,0,0,1,4.4,0l79.692,138.032a2.536,2.536,0,0,1-2.2,3.842H969.154a2.551,2.551,0,0,0-2.543,2.543V724.39a2.543,2.543,0,0,1-2.536,2.543H933.057a2.543,2.543,0,0,1-2.543-2.543V710.152a2.536,2.536,0,0,0-2.535-2.536H898.49a2.543,2.543,0,0,0-2.543,2.536V724.39a2.543,2.543,0,0,1-2.543,2.543h-31.01a2.543,2.543,0,0,1-2.543-2.543V694.9a2.543,2.543,0,0,0-2.543-2.543H833.534a2.543,2.543,0,0,1-2.2-3.811Zm111.132,15.275a2.536,2.536,0,0,0,1.8.768h11.164a2.543,2.543,0,0,0,0-5.086H944.244a2.543,2.543,0,0,0-1.8,4.341Zm-73.207,0a2.536,2.536,0,0,0,1.8.768h11.156a2.543,2.543,0,0,0,0-5.086h-11.2a2.543,2.543,0,0,0-1.8,4.341Z" transform="translate(-771.13 -123.526)" fill="#eb3f43" opacity="0.1"/>
  <path id="Path_168" data-name="Path 168" d="M204.853,690.129,284.545,552.1a2.543,2.543,0,0,1,4.4,0L357.783,671.32a210.276,210.276,0,0,1-28.805,29.742H317.76a2.543,2.543,0,0,0,0,5.086h4.733a123.156,123.156,0,0,1-18.44,11.471v-5.878a2.543,2.543,0,0,0-2.543-2.543H272.021a2.543,2.543,0,0,0-2.536,2.543v14.23a2.475,2.475,0,0,1-.238,1.068,2.543,2.543,0,0,1-2.305,1.475H235.925a2.489,2.489,0,0,1-2.021-1.022,2.443,2.443,0,0,1-.515-1.537V696.491a2.543,2.543,0,0,0-2.543-2.543H207.073a2.543,2.543,0,0,1-2.22-3.819Zm52.67,11.679a2.535,2.535,0,0,0-1.8-.768H244.538a2.543,2.543,0,1,0,0,5.086h11.195a2.543,2.543,0,0,0,1.8-4.341Zm50.057-51.079a2.543,2.543,0,0,0,2.543-2.543V628.87a2.543,2.543,0,0,0-2.543-2.543H265.9a2.543,2.543,0,0,0-2.536,2.543v19.316a2.543,2.543,0,0,0,2.536,2.543Z" transform="translate(436.119 -123.894)" fill="#eb3f43" opacity="0.1"/>
  <path id="Path_169" data-name="Path 169" d="M410.3,393.622h98.616V372.293a5.1,5.1,0,0,1,5.1-5.1h28.959v-22.72a3.212,3.212,0,0,1,3.212-3.212h37.3a3.212,3.212,0,0,1,3.212,3.212v22.712h34.045a5.1,5.1,0,0,1,5.1,5.1v21.329h94.037a1.037,1.037,0,0,1,1.03,1.037V677.807a1.037,1.037,0,0,1-1.03,1.037h-62.5a1.037,1.037,0,0,1-1.037-1.037V639.713a1.045,1.045,0,0,0-1.037-1.037h-26.4a1.045,1.045,0,0,0-1.037,1.037v38.094a1.037,1.037,0,0,1-1.03,1.037H503.335a1.045,1.045,0,0,1-1.037-1.037V639.713a1.037,1.037,0,0,0-1.029-1.037h-26.4a1.037,1.037,0,0,0-1.037,1.037v38.094a1.045,1.045,0,0,1-1.037,1.037H410.3a1.045,1.045,0,0,1-1.037-1.037V394.66a1.045,1.045,0,0,1,1.037-1.037Zm257.24,231.823a1.03,1.03,0,0,0,1.03,1.03h38.6a1.03,1.03,0,0,0,1.037-1.03V612.284a1.037,1.037,0,0,0-1.037-1.037h-38.6a1.037,1.037,0,0,0-1.03,1.037Zm0-34.068a1.029,1.029,0,0,0,1.03,1.037h38.6a1.03,1.03,0,0,0,1.037-1.037V578.2a1.03,1.03,0,0,0-1.037-1.037h-38.6a1.03,1.03,0,0,0-1.03,1.037Zm0-34.06a1.037,1.037,0,0,0,1.03,1.037h38.6a1.037,1.037,0,0,0,1.037-1.037V544.132a1.037,1.037,0,0,0-1.037-1.037h-38.6a1.037,1.037,0,0,0-1.03,1.037Zm0-34.068a1.029,1.029,0,0,0,1.03,1.037h38.6a1.03,1.03,0,0,0,1.037-1.037V510.095a1.03,1.03,0,0,0-1.037-1.037h-38.6a1.03,1.03,0,0,0-1.03,1.037Zm0-34.06a1.037,1.037,0,0,0,1.03,1.037h38.6a1.037,1.037,0,0,0,1.037-1.037V476a1.03,1.03,0,0,0-1.037-1.03h-38.6a1.029,1.029,0,0,0-1.03,1.03Zm0-34.06a1.029,1.029,0,0,0,1.03,1.03h38.6a1.03,1.03,0,0,0,1.037-1.03V441.943a1.037,1.037,0,0,0-1.037-1.037h-38.6a1.037,1.037,0,0,0-1.03,1.037Zm0-34.068a1.03,1.03,0,0,0,1.03,1.037h38.6a1.03,1.03,0,0,0,1.037-1.037V407.906a1.03,1.03,0,0,0-1.037-1.037h-38.6a1.03,1.03,0,0,0-1.03,1.037ZM576.02,625.437a1.03,1.03,0,0,0,1.037,1.03h38.6a1.037,1.037,0,0,0,1.037-1.03V612.284a1.045,1.045,0,0,0-1.037-1.037h-38.6a1.037,1.037,0,0,0-1.037,1.037Zm0-34.068a1.029,1.029,0,0,0,1.037,1.037h38.6a1.037,1.037,0,0,0,1.037-1.037V578.2a1.037,1.037,0,0,0-1.037-1.037h-38.6a1.03,1.03,0,0,0-1.037,1.037Zm0-34.06a1.037,1.037,0,0,0,1.037,1.037h38.6a1.045,1.045,0,0,0,1.037-1.037V544.132a1.045,1.045,0,0,0-1.037-1.037h-38.6a1.037,1.037,0,0,0-1.037,1.037Zm0-34.068a1.03,1.03,0,0,0,1.037,1.037h38.6a1.037,1.037,0,0,0,1.037-1.037V510.095a1.037,1.037,0,0,0-1.037-1.037h-38.6a1.03,1.03,0,0,0-1.037,1.037Zm0-34.06a1.037,1.037,0,0,0,1.037,1.037h38.6a1.045,1.045,0,0,0,1.037-1.037V476a1.037,1.037,0,0,0-1.037-1.03h-38.6A1.029,1.029,0,0,0,576.02,476Zm0-34.06a1.03,1.03,0,0,0,1.037,1.03h38.6a1.037,1.037,0,0,0,1.037-1.03V441.943a1.045,1.045,0,0,0-1.037-1.037h-38.6a1.037,1.037,0,0,0-1.037,1.037Zm0-34.068a1.03,1.03,0,0,0,1.037,1.037h38.6a1.037,1.037,0,0,0,1.037-1.037V407.906a1.037,1.037,0,0,0-1.037-1.037h-38.6a1.03,1.03,0,0,0-1.037,1.037ZM513.485,625.43a1.03,1.03,0,0,0,1.037,1.029h38.6a1.037,1.037,0,0,0,1.037-1.03V612.284a1.045,1.045,0,0,0-1.037-1.037h-38.6a1.037,1.037,0,0,0-1.037,1.037Zm0-34.068a1.03,1.03,0,0,0,1.037,1.037h38.6a1.037,1.037,0,0,0,1.037-1.037V578.2a1.037,1.037,0,0,0-1.037-1.037h-38.6a1.03,1.03,0,0,0-1.037,1.037Zm0-34.06a1.037,1.037,0,0,0,1.037,1.037h38.6a1.045,1.045,0,0,0,1.037-1.037V544.132a1.045,1.045,0,0,0-1.037-1.037h-38.6a1.037,1.037,0,0,0-1.037,1.037Zm0-34.068a1.03,1.03,0,0,0,1.037,1.037h38.6a1.037,1.037,0,0,0,1.037-1.037V510.095a1.037,1.037,0,0,0-1.037-1.037h-38.6a1.03,1.03,0,0,0-1.037,1.037Zm0-34.06a1.037,1.037,0,0,0,1.037,1.037h38.6a1.045,1.045,0,0,0,1.037-1.037V476a1.037,1.037,0,0,0-1.037-1.03h-38.6a1.03,1.03,0,0,0-1.037,1.03Zm0-34.06a1.03,1.03,0,0,0,1.037,1.03h38.6a1.037,1.037,0,0,0,1.037-1.03V441.943a1.045,1.045,0,0,0-1.037-1.037h-38.6a1.037,1.037,0,0,0-1.037,1.037Zm0-34.068a1.03,1.03,0,0,0,1.037,1.037h38.6a1.037,1.037,0,0,0,1.037-1.037V407.906a1.037,1.037,0,0,0-1.037-1.037h-38.6a1.03,1.03,0,0,0-1.037,1.037ZM421.968,625.422a1.037,1.037,0,0,0,1.037,1.03h38.6a1.03,1.03,0,0,0,1.037-1.03V612.284a1.037,1.037,0,0,0-1.037-1.037H423a1.045,1.045,0,0,0-1.037,1.037Zm0-34.068a1.037,1.037,0,0,0,1.037,1.037h38.6a1.03,1.03,0,0,0,1.037-1.037V578.2a1.03,1.03,0,0,0-1.037-1.037H423a1.037,1.037,0,0,0-1.037,1.037Zm0-34.06a1.045,1.045,0,0,0,1.037,1.037h38.6a1.037,1.037,0,0,0,1.037-1.037V544.132a1.037,1.037,0,0,0-1.037-1.037H423a1.045,1.045,0,0,0-1.037,1.037Zm0-34.068a1.037,1.037,0,0,0,1.037,1.037h38.6a1.03,1.03,0,0,0,1.037-1.037V510.095a1.03,1.03,0,0,0-1.037-1.037H423a1.037,1.037,0,0,0-1.037,1.037Zm0-34.06a1.045,1.045,0,0,0,1.037,1.037h38.6a1.037,1.037,0,0,0,1.037-1.037V476a1.03,1.03,0,0,0-1.037-1.03H423A1.037,1.037,0,0,0,421.96,476Zm0-34.06a1.037,1.037,0,0,0,1.03,1.053h38.609a1.03,1.03,0,0,0,1.037-1.03V441.943a1.037,1.037,0,0,0-1.037-1.037H423a1.045,1.045,0,0,0-1.037,1.037Zm0-34.068a1.037,1.037,0,0,0,1.037,1.037h38.6a1.03,1.03,0,0,0,1.037-1.037v-13.13a1.03,1.03,0,0,0-1.037-1.037H423a1.037,1.037,0,0,0-1.037,1.037Z" transform="translate(-130.086 -75.345)" fill="#eb3f43" opacity="0.1"/>
  <path id="Path_170" data-name="Path 170" d="M361.25,300.6a22.2,22.2,0,0,1,12.885,1.4,18.986,18.986,0,0,0,15.544-.038,21.682,21.682,0,0,1,18.194.361,11.333,11.333,0,0,0,5.24,1.306c7.376,0,13.515-7.43,14.791-17.234a14.143,14.143,0,0,1-3.688-3.972c-4.326-6.969-11.026-11.448-18.548-11.448s-14.137,4.426-18.44,11.318a14.222,14.222,0,0,1-12.255,6.731h-.192C368.849,289.018,363.762,293.728,361.25,300.6Z" transform="translate(219.436 -109.454)" fill="#eb3f43" opacity="0.1"/>
  <path id="Path_171" data-name="Path 171" d="M364.346,261.571l11.925,7.56-7.238-13.162a11.786,11.786,0,0,1,7.215-2.574h.192a13.955,13.955,0,0,0,2.474-.184l4.026,2.566-1.736-3.15a14.368,14.368,0,0,0,7.069-5.378l7.238,4.61-4.556-8.329c4.234-5.079,9.935-8.19,16.2-8.19,7.522,0,14.222,4.472,18.548,11.441A13.869,13.869,0,0,0,438,253.4h.407c8.306,0,15.036,9.412,15.036,21.029s-6.731,21.029-15.036,21.029a11.225,11.225,0,0,1-5.24-1.314,21.683,21.683,0,0,0-18.194-.353,18.986,18.986,0,0,1-15.474,0,21.675,21.675,0,0,0-18.041.346,11.255,11.255,0,0,1-5.179,1.283c-8.306,0-15.036-9.42-15.036-21.029a26.708,26.708,0,0,1,3.1-12.816Z" transform="translate(192.967 -103.953)" fill="#eb3f43" opacity="0.1"/>
  <path id="Path_172" data-name="Path 172" d="M848.34,485.754a15.6,15.6,0,0,1,9.02.976,13.269,13.269,0,0,0,10.833,0,15.182,15.182,0,0,1,12.739.254,7.9,7.9,0,0,0,3.665.914c5.163,0,9.458-5.2,10.35-12.063a10.04,10.04,0,0,1-2.582-2.781c-3.027-4.879-7.683-8.014-12.977-8.014s-9.9,3.073-12.931,7.922a9.942,9.942,0,0,1-8.575,4.71h-.138C853.672,477.656,850.115,480.952,848.34,485.754Z" transform="translate(-664.762 -135.606)" fill="#eb3f43" opacity="0.1"/>
  <path id="Path_173" data-name="Path 173" d="M850.513,458.459l8.344,5.294-5.063-9.22a8.251,8.251,0,0,1,5.048-1.8h.13a9.9,9.9,0,0,0,1.729-.131l2.835,1.79-1.214-2.2a10.134,10.134,0,0,0,4.948-3.757l5.079,3.2-3.2-5.816a14.751,14.751,0,0,1,11.341-5.739c5.263,0,9.988,3.135,12.985,8.014a9.7,9.7,0,0,0,8.583,4.61h.253c5.809,0,10.526,6.585,10.526,14.714s-4.718,14.721-10.526,14.721a7.9,7.9,0,0,1-3.665-.914,15.151,15.151,0,0,0-12.739-.246,13.346,13.346,0,0,1-10.834,0,15.175,15.175,0,0,0-12.624.246,7.953,7.953,0,0,1-3.627.891c-5.816,0-10.526-6.585-10.526-14.721A18.71,18.71,0,0,1,850.513,458.459Z" transform="translate(-684.296 -130.99)" fill="#eb3f43" opacity="0.1"/>
  <path id="Path_174" data-name="Path 174" d="M362.227,421.745a15.612,15.612,0,0,0-9.02.976,13.246,13.246,0,0,1-10.826,0,15.182,15.182,0,0,0-12.739.254,7.922,7.922,0,0,1-3.665.914c-5.163,0-9.466-5.2-10.357-12.063a9.934,9.934,0,0,0,2.582-2.781c3.012-4.894,7.722-8.044,13-8.044s9.9,3.073,12.923,7.922a9.988,9.988,0,0,0,8.59,4.725h.131C356.934,413.647,360.5,416.943,362.227,421.745Z" transform="translate(324.948 -127.087)" fill="#eb3f43" opacity="0.1"/>
  <path id="Path_175" data-name="Path 175" d="M354.6,394.456l-8.344,5.271,5.071-9.22a8.267,8.267,0,0,0-5.048-1.8h-.138a9.981,9.981,0,0,1-1.729-.131l-2.828,1.79,1.214-2.2a10.15,10.15,0,0,1-4.956-3.757l-5.063,3.212,3.2-5.816a14.825,14.825,0,0,0-11.348-5.739c-5.263,0-9.988,3.135-12.985,8.014a9.689,9.689,0,0,1-8.582,4.61H302.8c-5.816,0-10.526,6.585-10.526,14.714s4.71,14.721,10.526,14.721a7.945,7.945,0,0,0,3.665-.914,15.152,15.152,0,0,1,12.739-.246,13.33,13.33,0,0,0,10.826,0,15.19,15.19,0,0,1,12.631.246,7.93,7.93,0,0,0,3.627.891c5.809,0,10.526-6.585,10.526-14.721A18.709,18.709,0,0,0,354.6,394.456Z" transform="translate(349.928 -122.71)" fill="#eb3f43" opacity="0.1"/>
  <path id="Path_176" data-name="Path 176" d="M847.571,784.993c-10.4,6.608-25.394-.077-35.866,6.431-2.7,1.675-4.887,4.141-7.683,5.663-3.358,1.836-7.307,2.167-11.126,2.3-31.978,1.237-64.494-7.683-95.673-.476-8.721,2.013-17.249,5.286-26.185,5.763-15.436.838-30.226-6.692-45.678-7.107-23.434-.63-46.461,15.052-69.074,8.867-7.437-2.036-14.26-6.377-21.936-7.107-8.552-.768-16.773,2.958-25.086,5.133-29.481,7.683-60.184-4.764-90.664-5.693-19.877-.607-39.562,3.726-59.423,4.725-14.122.707-28.275-.284-42.381-1.268-5.378-.376-11.01-.838-15.513-3.788s-7.268-9.289-4.487-13.9Z" transform="translate(-211.909 -178.037)" fill="#3f3d56"/>
  <path id="Path_177" data-name="Path 177" d="M847.571,784.993c-10.4,6.608-25.394-.077-35.866,6.431-2.7,1.675-4.887,4.141-7.683,5.663-3.358,1.836-7.307,2.167-11.126,2.3-31.978,1.237-64.494-7.683-95.673-.476-8.721,2.013-17.249,5.286-26.185,5.763-15.436.838-30.226-6.692-45.678-7.107-23.434-.63-46.461,15.052-69.074,8.867-7.437-2.036-14.26-6.377-21.936-7.107-8.552-.768-16.773,2.958-25.086,5.133-29.481,7.683-60.184-4.764-90.664-5.693-19.877-.607-39.562,3.726-59.423,4.725-14.122.707-28.275-.284-42.381-1.268-5.378-.376-11.01-.838-15.513-3.788s-7.268-9.289-4.487-13.9Z" transform="translate(-211.909 -178.037)" opacity="0.1"/>
  <path id="Path_178" data-name="Path 178" d="M847.571,779.993c-10.4,6.608-25.394-.077-35.866,6.431-2.7,1.675-4.887,4.141-7.683,5.663-3.358,1.836-7.307,2.167-11.126,2.3-31.978,1.237-64.494-7.683-95.673-.476-8.721,2.013-17.249,5.286-26.185,5.762-15.436.838-30.226-6.692-45.678-7.107-23.434-.63-46.461,15.052-69.074,8.867-7.437-2.036-14.26-6.377-21.936-7.107-8.552-.768-16.773,2.958-25.086,5.133-29.481,7.683-60.184-4.764-90.664-5.693-19.877-.607-39.562,3.727-59.423,4.725-14.122.707-28.275-.284-42.381-1.268-5.378-.376-11.01-.837-15.513-3.788s-7.268-9.289-4.487-13.9Z" transform="translate(-211.909 -176.878)" fill="#3f3d56"/>
  <g id="Group_81" data-name="Group 81" transform="translate(753.057 204.458)" opacity="0.1">
    <path id="Path_179" data-name="Path 179" d="M168.4,646.491A18.785,18.785,0,0,0,170.882,656a19.47,19.47,0,0,0,0,19.024,17.48,17.48,0,0,0-1.875,4.61,348.881,348.881,0,0,0,23.119-34.575h0a18.44,18.44,0,0,0-2.428-8.114,18.787,18.787,0,0,0,2.482-9.512,19.563,19.563,0,0,0-1.122-6.615,16.436,16.436,0,0,0-1.36-2.9c-2.167-3.68-5.578-6.054-9.4-6.054s-7.245,2.374-9.412,6.054a17.124,17.124,0,0,0-1.329,2.8,19.692,19.692,0,0,0-1.153,6.707,18.786,18.786,0,0,0,2.482,9.512,18.786,18.786,0,0,0-2.482,9.543Z" transform="translate(-123.591 -367.054)" fill="#3f3d56"/>
    <ellipse id="Ellipse_30" data-name="Ellipse 30" cx="11.886" cy="15.567" rx="11.886" ry="15.567" transform="translate(44.817 225.831)" fill="#3f3d56"/>
    <ellipse id="Ellipse_31" data-name="Ellipse 31" cx="11.886" cy="15.567" rx="11.886" ry="15.567" transform="translate(44.817 206.807)" fill="#3f3d56"/>
    <path id="Path_180" data-name="Path 180" d="M109.367,420.6a56.688,56.688,0,0,0,12.194,35.213,56.957,56.957,0,0,0,33.807,91.1c1.368.277,2.758.492,4.164.661a57.54,57.54,0,0,0,13.062.069q2.167-.231,4.28-.638a56.318,56.318,0,0,0,17.672-6.462,567.443,567.443,0,0,0,26.746-64.379,56.7,56.7,0,0,0-10.211-20.323,57,57,0,0,0,9.22-53.484l-43.242,14.514,40.553-21.068a57.19,57.19,0,0,0-6.492-10.388,56.957,56.957,0,1,0-94.068-63.734l41.805,30.734-45.332-23.511a57.026,57.026,0,0,0,1.091,45.125l33.807-.254-31.241,5.133a57.185,57.185,0,0,0,4.433,6.516A56.7,56.7,0,0,0,109.367,420.6Z" transform="translate(-109.367 -293.239)" fill="#eb3f43"/>
    <path id="Path_181" data-name="Path 181" d="M109.42,529.2a56.97,56.97,0,0,0,45.953,55.887c1.377.278,2.768.494,4.174.663a57.54,57.54,0,0,0,13.062.069q2.167-.231,4.28-.638a56.317,56.317,0,0,0,17.672-6.462,567.417,567.417,0,0,0,26.784-64.41,56.7,56.7,0,0,0-10.211-20.323,56.726,56.726,0,0,0,12.194-35.244c0-6.393-109.35,25.524-101.713,35.213A56.688,56.688,0,0,0,109.42,529.2Z" transform="translate(-109.42 -331.387)" opacity="0.1"/>
  </g>
  <g id="Group_82" data-name="Group 82" transform="translate(0 269.799)" opacity="0.1">
    <path id="Path_182" data-name="Path 182" d="M1081.4,637.65c2.228,7.115,4.61,14.176,7.053,21.076a19.692,19.692,0,0,0,1.014-6.308C1089.468,645.556,1086.087,639.732,1081.4,637.65Z" transform="translate(-1057.505 -434.163)" fill="#3f3d56"/>
    <path id="Path_183" data-name="Path 183" d="M1022.321,453.7c0,13.484,2.72,34.79,7.683,59.162a649.786,649.786,0,0,0,16.25,63.434c2.228,7.115,4.61,14.176,7.054,21.076,2.8,7.837,5.763,15.459,8.859,22.75a57.172,57.172,0,0,0,25.286-88.951,57.226,57.226,0,0,0,9.22-53.6l-43.242,14.545L1093.984,471a57.358,57.358,0,0,0-6.493-10.411,57.164,57.164,0,0,0-22.374-87.783,98,98,0,0,0-37.456,49.12l7.491,5.578-8.037-4.172a97.508,97.508,0,0,0-4.679,25.593h2.259l-2.305.377C1022.321,450.758,1022.321,452.218,1022.321,453.7Z" transform="translate(-1022.321 -372.81)" fill="#eb3f43"/>
    <path id="Path_184" data-name="Path 184" d="M1022.42,549.721a649.708,649.708,0,0,0,16.25,63.434c2.228,7.115,4.61,14.176,7.053,21.076,2.8,7.837,5.763,15.459,8.859,22.75a57.172,57.172,0,0,0,25.286-88.951,56.934,56.934,0,0,0,12.186-35.282C1092.054,528.907,1052.316,538.972,1022.42,549.721Z" transform="translate(-1014.774 -409.668)" opacity="0.1"/>
  </g>
  <path id="Path_185" data-name="Path 185" d="M77.1,432.345v-.412a114.175,114.175,0,0,1,5.193-29.215c.171-.535.341-1.079.52-1.605a111.56,111.56,0,0,1,41.567-56.07c44.915-31.478,105.566-23.765,141.677,18.015a160.839,160.839,0,0,1,8.62-31.109,472.276,472.276,0,0,0,85.8,3.289,339.994,339.994,0,0,1-54.4,20.321l.665,2.543a343.3,343.3,0,0,0,60.811-23.417l5.892-2.938-6.531.439a472.4,472.4,0,0,1-91.234-2.693,158.956,158.956,0,0,1,26.876-43.923c49.079-5.087,97.773-15.682,143.245-36.687l-1.049-2.394c-44.261,20.462-91.694,30.978-139.579,36.152,32.861-36.235,80.373-54.47,128.277-49.232s90.628,33.338,115.351,75.868A219.554,219.554,0,0,1,601.02,187.453a481.521,481.521,0,0,0,80.806,25.18,475.474,475.474,0,0,0,126.312,10.34,339.984,339.984,0,0,1-54.4,20.322l.665,2.543A343.3,343.3,0,0,0,815.2,222.421l5.892-2.938-6.531.439a473.16,473.16,0,0,1-211.765-34.512q3.794-4.271,7.81-8.35c83.918,1.754,175.314.877,258.055-30.109C931,186.531,968.931,256.536,968.862,331.9c0,40.748-10.888,96.783-29.843,153a660.607,660.607,0,0,1-29.766,73.673c-5.789,12.1-11.937,23.865-18.392,35.126h0a399.691,399.691,0,0,1-25.656,39.467q-2.507,3.394-5.073,6.666a237.891,237.891,0,0,1-31.957,34.091h0q-3.556,3.052-7.154,5.815a135.721,135.721,0,0,1-20.464,13.156c-12.508,6.446-25.418,10.226-38.625,10.77-1.057.044-2.123.07-3.18.07v.447H185.77v-.447h-.426a28.269,28.269,0,0,1-9.686-1.754c-20.259-7.394-38.915-37.082-54.425-74.6-3.41-8.323-6.719-17.024-9.831-25.97-2.745-7.894-5.355-15.936-7.827-24.058q-10.786-35.714-18.034-72.41c-5.465-27.82-8.526-52.141-8.526-67.533C76.988,435.686,76.988,434.02,77.1,432.345Z" transform="translate(-76.989 -99.405)" fill="#eb3f43" opacity="0.1"/>
  <path id="Path_186" data-name="Path 186" d="M364.046,744.977l-14.706-8.651a35.442,35.442,0,0,1,7.522-9l27.745,8.628L362.863,723.18a35.344,35.344,0,0,1,52.324,31c0,19.516-15.82,20.192-35.344,20.192S344.5,773.7,344.5,754.182a35.183,35.183,0,0,1,3.035-14.345Z" transform="translate(246.427 -162.815)" fill="#eb3f43"/>
  <path id="Path_187" data-name="Path 187" d="M349.326,770.777a27.471,27.471,0,0,1,5.209-4.088c2.674-1.775,5.432-3.588,8.582-4.187,2.766-.53,5.617-.084,8.452-.246a19.715,19.715,0,0,0,12.916-5.916c2.005-2.074,3.588-4.61,6-6.216a13.2,13.2,0,0,1,9-1.652,22.308,22.308,0,0,1,2.658.546,35.228,35.228,0,0,1,2.09,11.994c0,19.516-15.82,20.192-35.344,20.192-9.474,0-18.071-.161-24.418-2.551l1.06-1.982a27.968,27.968,0,0,1,3.8-5.893Z" transform="translate(257.772 -169.644)" opacity="0.1"/>
  <circle id="Ellipse_32" data-name="Ellipse 32" cx="27.468" cy="27.468" r="27.468" transform="translate(397.564 131.006)" fill="#3f3d56"/>
  <path id="Path_188" data-name="Path 188" d="M582.105,543.623c-2.835,19.892.622,40.176,6.008,59.531a44.2,44.2,0,0,0,3.972,10.473c1.882,3.235,4.5,6.016,6.715,9.059,4.61,6.346,7.315,13.83,9.842,21.237A599.021,599.021,0,0,1,626.177,706.4a4.28,4.28,0,0,1,0,2.666c-.668,1.537-2.7,1.736-4.364,1.729l-21.56-.115c-.768-1.475.653-3.073,1.537-4.487,3.073-4.779.123-10.987-2.589-15.989A171.91,171.91,0,0,1,584,651.789c-1.475-5.632-2.674-11.387-5.071-16.7-2.9-6.439-7.438-11.978-11.126-18-4.287-7-7.414-14.6-10.519-22.228-4.333-10.588-8.705-21.306-10.411-32.616-1.606-10.618-.814-21.437.231-32.124a2.028,2.028,0,0,1,2.351-2.305l28.928-1.491c5.962-.307,7.376-1.613,6.469,4.241C584.226,534.94,582.735,539.2,582.105,543.623Z" transform="translate(-138.775 -118.14)" fill="#3f3d56"/>
  <path id="Path_189" data-name="Path 189" d="M582.105,543.623c-2.835,19.892.622,40.176,6.008,59.531a44.2,44.2,0,0,0,3.972,10.473c1.882,3.235,4.5,6.016,6.715,9.059,4.61,6.346,7.315,13.83,9.842,21.237A599.021,599.021,0,0,1,626.177,706.4a4.28,4.28,0,0,1,0,2.666c-.668,1.537-2.7,1.736-4.364,1.729l-21.56-.115c-.768-1.475.653-3.073,1.537-4.487,3.073-4.779.123-10.987-2.589-15.989A171.91,171.91,0,0,1,584,651.789c-1.475-5.632-2.674-11.387-5.071-16.7-2.9-6.439-7.438-11.978-11.126-18-4.287-7-7.414-14.6-10.519-22.228-4.333-10.588-8.705-21.306-10.411-32.616-1.606-10.618-.814-21.437.231-32.124a2.028,2.028,0,0,1,2.351-2.305l28.928-1.491c5.962-.307,7.376-1.613,6.469,4.241C584.226,534.94,582.735,539.2,582.105,543.623Z" transform="translate(-138.775 -118.14)" opacity="0.1"/>
  <path id="Path_190" data-name="Path 190" d="M705.081,485.35c5.878,8.452,12.04,18.179,10.088,28.3-1.483,7.683-7.338,13.638-12.862,19.208-22.082,22.174-43.8,46.807-51.31,77.2-1.936,7.852-2.874,15.912-4.541,23.819-3.027,14.368-8.452,28.106-13.83,41.759L618.213,712.01a21.79,21.79,0,0,1-20.822-13.83c1.89-.146,4.356-1.975,5.463-3.511,6.147-8.506,7.407-19.447,8.982-29.819,1.744-11.464,4.072-22.835,6.408-34.2l10.327-50.28c1.191-5.8,2.382-11.61,3.934-17.326,6.008-22.144,17.4-43.027,19.155-65.923.261-3.365.422-7.061,2.7-9.558,2.4-2.635,6.331-3.073,9.888-3.281C678.642,483.36,691.059,481.954,705.081,485.35Z" transform="translate(-274.938 -108.226)" fill="#3f3d56"/>
  <path id="Path_191" data-name="Path 191" d="M585,758.916a22.936,22.936,0,0,1,4.779-.615,9.926,9.926,0,0,1,7.806,4.264,19.4,19.4,0,0,1,2.1,4.61l2.082,5.978c.615,1.752,1.214,3.773.3,5.378a5.7,5.7,0,0,1-2.8,2.159c-5.04,2.244-10.757,2.367-16.212,2.9-5.332.522-10.619,1.46-15.882,2.443-1.813.346-3.619.692-5.455.876a65,65,0,0,1-12.34-.369l-4.233-.407a15.241,15.241,0,0,1-4.164-.768,5.248,5.248,0,0,1-3.073-2.758c-1.045-2.589,1.2-5.655,3.942-6.193,1.114-.215,2.3-.115,3.4-.261a16.04,16.04,0,0,0,3.719-1.114c5.378-2.128,10.887-4.28,15.651-7.63,1.321-.93,2.7-2.228,2.558-3.842a7.828,7.828,0,0,0-.684-1.99,7.269,7.269,0,0,1-.061-5.14c.261-.707.768-1.452,1.483-1.537,2.028-.246,1.783,2.712,2.082,3.842.407,1.537,1.145,1.675,2.589,1.537C576.735,759.908,580.884,759.7,585,758.916Z" transform="translate(-106.848 -171.168)" fill="#f2f2f2"/>
  <path id="Path_192" data-name="Path 192" d="M780.189,778.744a13.561,13.561,0,0,1-2.935,8.26,6.424,6.424,0,0,1-2.09,1.683,8.39,8.39,0,0,1-3.842.607,30.77,30.77,0,0,1-10.672-2.159,30.459,30.459,0,0,0-3.688-1.391,41.382,41.382,0,0,0-4.794-.692c-6.354-.914-11.932-4.664-18.071-6.562a38.025,38.025,0,0,1-5.378-1.767,24.65,24.65,0,0,1-6.323-4.94,15.156,15.156,0,0,1-2.9-3.481c-1.129-2.1-1.2-4.61-1.245-6.984a1.991,1.991,0,0,1,.184-1.083,1.612,1.612,0,0,1,.692-.545c1.867-.922,4.08-.461,6.147-.1,7.468,1.329,15.113,1.083,22.7.837a3.3,3.3,0,0,0,3.488-1.99l2.881-4.61c.822-1.321,2.128-2.835,3.619-2.382,1.191.361,1.675,1.821,1.629,3.073a16.417,16.417,0,0,0-.192,3.719,5.079,5.079,0,0,0,2.459,3.2,15.7,15.7,0,0,0,3.842,1.475c4.241,1.2,9.174,2.559,12.455,5.678C780.558,770.8,780.335,775.755,780.189,778.744Z" transform="translate(-439.669 -170.351)" fill="#f2f2f2"/>
  <path id="Path_193" data-name="Path 193" d="M703.043,380.187a17.8,17.8,0,0,1-4.2-4.564,18.6,18.6,0,0,1-1.79-6.308l-1.206-7.622c-.668-4.2-1.452-8.651-4.256-11.855s-8.39-4.349-11.241-1.183a9.861,9.861,0,0,0-2.044,5.1,37.142,37.142,0,0,0,9.082,30.734c3.45,3.78,7.683,6.784,11.333,10.357,3.181,3.073,5.939,6.6,8.874,9.942a122.486,122.486,0,0,0,24.18,21.129c-.108-5.716-.838-11.848,0-17.526.622-4.1,2.3-6.316-1.667-9C720.891,393.126,711.587,387.456,703.043,380.187Z" transform="translate(-356.812 -116.86)" fill="#fbbebe"/>
  <path id="Path_194" data-name="Path 194" d="M635.252,313.457c.3,4.088,2,8.267,5.378,10.626q-14.36,5.025-28.329,11.079c1.8-1.729,2.343-4.38,2.428-6.869.238-6.508-2.013-12.908-5.3-18.517a4.5,4.5,0,0,1-.868-2.443c.108-1.813,2.259-2.651,4.026-3.073a99.012,99.012,0,0,1,18.379-2.666c2.651-.085,5.793-.922,5.194,2.451A37.1,37.1,0,0,0,635.252,313.457Z" transform="translate(-203.855 -113.407)" fill="#fbbebe"/>
  <circle id="Ellipse_33" data-name="Ellipse 33" cx="22.459" cy="22.459" r="22.459" transform="translate(389.464 153.683)" fill="#fbbebe"/>
  <path id="Path_195" data-name="Path 195" d="M612.985,358.868a27.174,27.174,0,0,1,2.85-4.779c4.072-5.847,8.252-11.686,13.477-16.527a83.889,83.889,0,0,1,12.793-9.4,29.037,29.037,0,0,1,8.006-3.842,31.321,31.321,0,0,1,5.14-.7l5.832-.476a4.771,4.771,0,0,1,1.537.046c1.583.4,2.305,2.366,1.967,3.957a9.736,9.736,0,0,1-2.6,4.088c-.261,11.9,5.033,23.642,5.747,35.528,1.252,20.784-11.433,40.115-12.447,60.914a6.568,6.568,0,0,0,.292,2.789c.169.43.423.822.615,1.245a12.159,12.159,0,0,1,.684,4.226,21.468,21.468,0,0,0,6.323,13.538,9.4,9.4,0,0,1-3.565,2.72c-2.451,1.068-5.378,1.16-7.983,1.906-6.792,1.982-13.753,3.98-20.814,3.557a18.363,18.363,0,0,1-1.606-6.047c-1-.622-2.151.707-2.3,1.875s.069,2.528-.768,3.373a3.162,3.162,0,0,1-2.92.584c-4.31-.546-8.452-2-12.678-2.973s-8.744-1.444-12.854-.046c-.83-1.053-.476-2.612.2-3.765a16.821,16.821,0,0,0,2.021-3.45,7.742,7.742,0,0,0,.246-2.267c0-6.569-1.352-13.208-.069-19.654.377-1.89.976-3.734,1.36-5.632a48.57,48.57,0,0,0,.553-11.233c-.1-3.757.353-7.822.43-11.633a37.086,37.086,0,0,1,.307-4.71c.261-1.637.768-3.235.907-4.887.415-4.2-1.275-8.36-1.022-12.57C603.065,368.234,610.5,364.761,612.985,358.868Z" transform="translate(-223.746 -110.57)" fill="#ff6f61"/>
  <path id="Path_196" data-name="Path 196" d="M592.211,365.671c5.44,14.429,8.1,29.735,10.757,44.932l6.147,35.7c1.744,10.088,3.5,20.238,3.427,30.472,0,2.874-.184,5.8.569,8.575.984,3.642,3.427,6.677,5.279,9.988a32.87,32.87,0,0,1,3.534,22.228c-.63,3.189-2.351,6.807-5.586,7.176-2.659.292-4.956-1.821-6.508-4-3.565-5-5.332-11.041-6.915-16.988a384.253,384.253,0,0,1-10.657-59.231,57.688,57.688,0,0,0-1.068-7.53,53.44,53.44,0,0,0-2.6-7.5q-3.527-8.744-7.061-17.487c-5.432-13.469-10.9-27-18.356-39.462,7.376-2.121,15.052-4.61,22.428-6.708C587.732,365.2,590.014,365.579,592.211,365.671Z" transform="translate(-148.459 -112.962)" fill="#fbbebe"/>
  <path id="Path_197" data-name="Path 197" d="M617.341,374.857c5.163-1.114,10.5-.768,15.774-.9a3.4,3.4,0,0,0,2.121-.553c1.068-.914.615-2.628.077-3.926l-2.551-6.147a8.944,8.944,0,0,0-2.044-3.4c-1.3-1.152-3.127-1.437-4.848-1.644-5.6-.645-11.364-.86-16.8.653s-10.541,4.956-12.969,10.05c-1.014,2.121-1.483,4.794-.138,6.723,2,2.866,6.477,6.07,9.819,4.5C609.788,378.322,612.854,375.81,617.341,374.857Z" transform="translate(-188.133 -121.344)" fill="#ff6f61"/>
  <path id="Path_198" data-name="Path 198" d="M582.689,240.564a22.681,22.681,0,0,1,12.524,3.611,27.468,27.468,0,0,1,26.969-6.316,15.7,15.7,0,1,1,18.133,18.164,27.468,27.468,0,0,1-52.723,15.436,24.588,24.588,0,0,1-4.925.5c-10.833,0-19.623-7.03-19.623-15.7S571.871,240.564,582.689,240.564Z" transform="translate(-181.083 -102.448)" fill="#3f3d56"/>
  <path id="Path_199" data-name="Path 199" d="M664.6,274.082a23.891,23.891,0,0,0,4.925-.5,27.331,27.331,0,0,0,3.6,7.906,24.667,24.667,0,0,1-4.61.446c-10.127,0-18.44-6.147-19.508-14.014A21.646,21.646,0,0,0,664.6,274.082Z" transform="translate(-270.454 -109.681)" opacity="0.1"/>
  <path id="Path_200" data-name="Path 200" d="M585.342,285.25A27.506,27.506,0,0,0,611.6,249.691a15.7,15.7,0,0,0,12.977-15.459,15.421,15.421,0,0,0-.254-2.812,15.7,15.7,0,0,1-8.805,26.124,27.468,27.468,0,1,1-52.47,16.273A27.414,27.414,0,0,0,585.342,285.25Z" transform="translate(-154.699 -103.41)" opacity="0.1"/>
  <rect id="Rectangle_203" data-name="Rectangle 203" width="0.515" height="4.257" rx="0.257" transform="matrix(-0.814, 0.581, -0.581, -0.814, 321.185, 241.842)" fill="#3a3768"/>
  <rect id="Rectangle_204" data-name="Rectangle 204" width="0.292" height="1.398" rx="0.146" transform="matrix(-0.814, 0.581, -0.581, -0.814, 332.823, 225.149)" fill="#3a3768"/>
  <rect id="Rectangle_205" data-name="Rectangle 205" width="0.323" height="2.436" rx="0.161" transform="matrix(-0.814, 0.581, -0.581, -0.814, 335.122, 228.381)" fill="#3a3768"/>
  <rect id="Rectangle_206" data-name="Rectangle 206" width="0.307" height="2.459" rx="0.154" transform="matrix(-0.814, 0.581, -0.581, -0.814, 337.244, 231.415)" fill="#3a3768"/>
  <rect id="Rectangle_207" data-name="Rectangle 207" width="17.272" height="35.105" rx="2.52" transform="matrix(-0.814, 0.581, -0.581, -0.814, 348.301, 251.813)" fill="#3a3768"/>
  <rect id="Rectangle_208" data-name="Rectangle 208" width="17.272" height="35.105" rx="2.52" transform="matrix(-0.814, 0.581, -0.581, -0.814, 348.301, 251.813)" opacity="0.1"/>
  <rect id="Rectangle_209" data-name="Rectangle 209" width="17.272" height="35.105" rx="2.52" transform="matrix(-0.814, 0.581, -0.581, -0.814, 349.095, 250.191)" fill="#3a3768"/>
  <path id="Path_201" data-name="Path 201" d="M713.856,349.751l1.606-1.152.138.192a1.122,1.122,0,0,0,1.537.269l5.133-3.665a1.129,1.129,0,0,0,.261-1.575l-.138-.192,1.537-1.076a1.368,1.368,0,0,1,1.913.315l17.733,24.856a1.375,1.375,0,0,1-.315,1.913l-10.1,7.2a1.367,1.367,0,0,1-1.913-.323l-17.733-24.848a1.368,1.368,0,0,1,.338-1.913Z" transform="translate(-396.593 -118.705)" fill="#eb3f43"/>
  <rect id="Rectangle_210" data-name="Rectangle 210" width="2.413" height="0.492" rx="0.246" transform="matrix(-0.814, 0.581, -0.581, -0.814, 323.404, 225.825)" fill="#e6e8ec"/>
  <circle id="Ellipse_34" data-name="Ellipse 34" cx="0.277" cy="0.277" r="0.277" transform="translate(320.397 227.299)" fill="#e6e8ec"/>
  <path id="Path_202" data-name="Path 202" d="M731.479,99a51.479,51.479,0,0,1,51.479,51.479c0,28.429-53.937,122.581-53.937,122.581S680,178.946,680,150.479A51.479,51.479,0,0,1,731.479,99Zm0,85.808a11.173,11.173,0,1,0,0,.023Z" transform="translate(-412.703 -88.297)" fill="#eb3f43"/>
  <path id="Path_203" data-name="Path 203" d="M731.479,99a51.479,51.479,0,0,1,51.479,51.479c0,28.429-53.937,122.581-53.937,122.581S680,178.946,680,150.479A51.479,51.479,0,0,1,731.479,99Zm0,85.808a11.173,11.173,0,1,0,0,.023Z" transform="translate(-412.703 -88.297)" opacity="0.1"/>
  <path id="Path_204" data-name="Path 204" d="M731.479,85.07a51.479,51.479,0,0,1,51.479,51.479c0,28.429-53.937,133.307-53.937,133.307S680,164.993,680,136.556A51.48,51.48,0,0,1,731.486,85.07Zm0,85.808a26.969,26.969,0,1,0-26.969-26.969A26.969,26.969,0,0,0,731.479,170.878Z" transform="translate(-412.703 -85.07)" fill="#eb3f43"/>
</svg>
